<svg xmlns="http://www.w3.org/2000/svg" xmlns:xlink="http://www.w3.org/1999/xlink" xmlns:inkscape="http://www.inkscape.org/namespaces/inkscape" version="1.1" width="343" height="343" viewBox="0 0 343 343">
<defs>
<path id="font_1_1" d="M.33399964 .30233766C.33999635 .32835389 .36299134 .42037965 .43299867 .42037965 .43798829 .42037965 .46199037 .42037965 .48298646 .40734864 .45498658 .402359 .43499757 .37734986 .43499757 .35334779 .43499757 .33735658 .44599916 .31835938 .47299195 .31835938 .49499513 .31835938 .5269928 .3363495 .5269928 .37635804 .5269928 .42837525 .46798707 .4423828 .43399049 .4423828 .37599183 .4423828 .34098817 .38935853 .32899476 .36634828 .3039856 .43237306 .25 .4423828 .22099304 .4423828 .116989139 .4423828 .05999756 .3133545 .05999756 .28834535 .05999756 .27833558 .069992069 .27833558 .07199097 .27833558 .07998657 .27833558 .08299255 .28033448 .084991458 .28933717 .11898804 .39535523 .18499756 .42037965 .21899414 .42037965 .23799134 .42037965 .272995 .4113617 .272995 .35334779 .272995 .32235719 .2559967 .25532533 .21899414 .11528015 .20298767 .053268434 .16799927 .011245728 .12399292 .011245728 .117996219 .011245728 .09498596 .011245728 .07398987 .024276734 .09899902 .029266358 .12098694 .05027771 .12098694 .07827759 .12098694 .105270389 .09899902 .11328125 .083999637 .11328125 .053985597 .11328125 .0289917 .08728027 .0289917 .055267335 .0289917 .009246826 .07899475-.0107421879 .12298584-.0107421879 .18899536-.0107421879 .22499085 .059280397 .22799683 .0652771 .23999024 .028274537 .27598573-.0107421879 .33599855-.0107421879 .43899537-.0107421879 .49598695 .118270877 .49598695 .14328003 .49598695 .1532898 .4869995 .1532898 .48399354 .1532898 .47499085 .1532898 .47299195 .14929199 .47099305 .14228821 .43798829 .03527832 .36999513 .011245728 .33799745 .011245728 .29899598 .011245728 .2829895 .043273927 .2829895 .07727051 .2829895 .09927368 .2889862 .121276859 .2999878 .16529846L.33399964 .30233766Z"/>
<path id="font_1_2" d="M.48599244 .38136292C.48999024 .39537049 .48999024 .39736939 .48999024 .40437318 .48999024 .42237855 .47599793 .43138124 .46099855 .43138124 .45098878 .43138124 .43499757 .42536927 .42599488 .41036988 .42399598 .405365 .41600038 .37435914 .4119873 .35635377 .40499879 .33035279 .397995 .30334474 .3919983 .27633668L.34700013 .09628296C.34298707 .08126831 .2999878 .011245728 .23399353 .011245728 .18299866 .011245728 .17199707 .055267335 .17199707 .0922699 .17199707 .1382904 .18899536 .20030213 .22299195 .28833009 .23899842 .3293457 .24299622 .3403473 .24299622 .36035157 .24299622 .405365 .21099854 .4423828 .16099549 .4423828 .06599426 .4423828 .0289917 .29733277 .0289917 .28833009 .0289917 .27833558 .038986207 .27833558 .040985109 .27833558 .050994874 .27833558 .051986696 .28033448 .056991579 .29634095 .083999637 .3903656 .12399292 .42037965 .1579895 .42037965 .1659851 .42037965 .18299866 .42037965 .18299866 .3883667 .18299866 .36335755 .17298889 .3373413 .1659851 .31834413 .12599182 .21231079 .10798645 .1552887 .10798645 .10827637 .10798645 .019256592 .17098999-.0107421879 .22999573-.0107421879 .2689972-.0107421879 .30299378 .0062561037 .33099366 .03425598 .31799317-.017745972 .30599977-.06674194 .2659912-.11973572 .23999024-.15385437 .20199585-.18309021 .1559906-.18309021 .14199829-.18309021 .09700012-.18005371 .07998657-.14074707 .09599304-.14074707 .10899353-.14074707 .12298584-.1287384 .1329956-.11973572 .14299011-.10673523 .14299011-.08773804 .14299011-.056747438 .115997318-.052734376 .10598755-.052734376 .08299255-.052734376 .049987794-.068740848 .049987794-.11773682 .049987794-.16796875 .09399414-.20507813 .1559906-.20507813 .25898744-.20507813 .3619995-.11373901 .3899994-.00074768069L.48599244 .38136292Z"/>
<path id="font_2_1" d="M.6589966 .23046875C.6759949 .23046875 .69400027 .23046875 .69400027 .25045777 .69400027 .27046205 .6759949 .27046205 .6589966 .27046205H.117996219C.100997928 .27046205 .08299255 .27046205 .08299255 .25045777 .08299255 .23046875 .100997928 .23046875 .117996219 .23046875H.6589966Z"/>
<path id="font_3_1" d="M.1269989 .07699585 .23298645 .18003845C.3889923 .31811524 .44898988 .3721466 .44898988 .47216798 .44898988 .5860901 .35899354 .6660156 .23699951 .6660156 .12399292 .6660156 .049987794 .57411196 .049987794 .48516847 .049987794 .4291687 .099990848 .4291687 .102996829 .4291687 .11999512 .4291687 .15499878 .44117738 .15499878 .48217774 .15499878 .5081787 .13699341 .5341797 .101989749 .5341797 .09399414 .5341797 .09199524 .5341797 .08898926 .5331726 .11199951 .59806826 .1659851 .63500979 .22399903 .63500979 .31498719 .63500979 .35798646 .5541382 .35798646 .47216798 .35798646 .39215089 .30799867 .31311036 .25299073 .25108338L.06098938 .036987306C.049987794 .025985718 .049987794 .023986817 .049987794 0H.42099L.44898988 .17404175H.42399598C.4189911 .14402771 .4119873 .1000061 .4019928 .084991458 .394989 .07699585 .32899476 .07699585 .30699159 .07699585H.1269989Z"/>
<path id="font_3_2" d="M.2939911 .16503906V.07800293C.2939911 .041992189 .2919922 .0309906 .21798706 .0309906H.19699097V0C.23799134 .0029907227 .2899933 .0029907227 .33198548 .0029907227 .37399293 .0029907227 .4269867 .0029907227 .46798707 0V.0309906H.44699098C.37298585 .0309906 .37098695 .041992189 .37098695 .07800293V.16503906H.47099305V.19602967H.37098695V.65075686C.37098695 .67074587 .37098695 .6767578 .35499574 .6767578 .34599305 .6767578 .34298707 .6767578 .33499146 .66474917L.027999878 .19602967V.16503906H.2939911M.2999878 .19602967H.055999757L.2999878 .5688019V.19602967Z"/>
<path id="font_3_3" d="M.47599793 .609375C.4850006 .6213684 .4850006 .62338259 .4850006 .64437869H.24198914C.11999512 .64437869 .117996219 .65737918 .11399841 .67637637H.08898926L.055999757 .4702301H.08099365C.083999637 .48625184 .09298706 .5493469 .10598755 .56137087 .11299133 .5673828 .19099427 .5673828 .20399475 .5673828H.41099549C.3999939 .5513611 .32099916 .4421997 .29899598 .40914918 .20899964 .27394105 .17599488 .1347351 .17599488 .032577516 .17599488 .022567749 .17599488-.022460938 .22200012-.022460938 .2679901-.022460938 .2679901 .022567749 .2679901 .032577516V.08366394C.2679901 .13873291 .2709961 .19381714 .2789917 .24790955 .2829895 .27093507 .29699708 .35707093 .34098817 .41915895L.47599793 .609375Z"/>
</defs>
<path transform="matrix(1.00002,0,0,-1.00005,115.15633,171.28562)" stroke-width=".3985" stroke-linecap="butt" stroke-miterlimit="10" stroke-linejoin="miter" fill="none" stroke="#000000" d="M-112.92896 0H226.3162"/>
<path transform="matrix(-1.00002,-0,0,1.00005,2.2251054,171.28562)" stroke-width=".31879" stroke-linecap="round" stroke-linejoin="round" fill="none" stroke="#000000" d="M-1.19551 1.59401C-1.09587 .99626 0 .09961 .29886 0 0-.09961-1.09587-.99626-1.19551-1.59401"/>
<path transform="matrix(1.00002,0,0,-1.00005,341.47706,171.28562)" stroke-width=".31879" stroke-linecap="round" stroke-linejoin="round" fill="none" stroke="#000000" d="M-1.19551 1.59401C-1.09587 .99626 0 .09961 .29886 0 0-.09961-1.09587-.99626-1.19551-1.59401"/>
<use data-text="x" xlink:href="#font_1_1" transform="matrix(10.909318,0,0,-10.909644,324.64454,162.29517)"/>
<path transform="matrix(1.00002,0,0,-1.00005,115.15633,171.28562)" stroke-width=".3985" stroke-linecap="butt" stroke-miterlimit="10" stroke-linejoin="miter" fill="none" stroke="#000000" d="M0-169.62258V169.62258"/>
<path transform="matrix(0,1.00005,1.00002,0,115.15633,340.91667)" stroke-width=".31879" stroke-linecap="round" stroke-linejoin="round" fill="none" stroke="#000000" d="M-1.19551 1.59401C-1.09587 .99626 0 .09961 .29886 0 0-.09961-1.09587-.99626-1.19551-1.59401"/>
<path transform="matrix(0,-1.00005,-1.00002,-0,115.15633,1.6545715)" stroke-width=".31879" stroke-linecap="round" stroke-linejoin="round" fill="none" stroke="#000000" d="M-1.19551 1.59401C-1.09587 .99626 0 .09961 .29886 0 0-.09961-1.09587-.99626-1.19551-1.59401"/>
<use data-text="y" xlink:href="#font_1_2" transform="matrix(10.909318,0,0,-10.909644,123.625499,16.657898)"/>
<path transform="matrix(1.00002,0,0,-1.00005,115.15633,171.28562)" stroke-width=".3985" stroke-linecap="butt" stroke-miterlimit="10" stroke-linejoin="miter" fill="none" stroke="#000000" d="M-56.69362-2.83484V2.83484"/>
<use data-text="&#x2212;" xlink:href="#font_2_1" transform="matrix(10.909318,0,0,-10.909644,51.49205,185.68534)"/>
<use data-text="2" xlink:href="#font_3_1" transform="matrix(10.909318,0,0,-10.909644,59.97722,185.68534)"/>
<path transform="matrix(1.00002,0,0,-1.00005,115.15633,171.28562)" stroke-width=".3985" stroke-linecap="butt" stroke-miterlimit="10" stroke-linejoin="miter" fill="none" stroke="#000000" d="M113.38724-2.83484V2.83484"/>
<use data-text="4" xlink:href="#font_3_2" transform="matrix(10.909318,0,0,-10.909644,225.81855,186.14035)"/>
<path transform="matrix(1.00002,0,0,-1.00005,115.15633,171.28562)" stroke-width=".3985" stroke-linecap="butt" stroke-miterlimit="10" stroke-linejoin="miter" fill="none" stroke="#000000" d="M198.42766-2.83484V2.83484"/>
<use data-text="7" xlink:href="#font_3_3" transform="matrix(10.909318,0,0,-10.909644,310.86024,186.14035)"/>
<path transform="matrix(1.00002,0,0,-1.00005,115.15633,171.28562)" stroke-width="1.59404" stroke-linecap="butt" stroke-miterlimit="10" stroke-linejoin="miter" fill="none" stroke="#0000ff" d="M-70.76584 140.98226C-68.7985 117.62798-68.7985 117.62798-68.00404 108.7011-67.20958 99.77423-65.93553 86.10202-65.14108 77.84471-64.34662 69.58742-63.07256 56.8043-62.2781 49.1882-61.48364 41.57208-60.20958 29.93271-59.41513 22.95305-58.62068 15.97339-57.34662 5.27568-56.55215-1.11636-55.7577-7.50844-54.48366-17.26833-53.6892-23.11655-52.89474-28.96477-51.62068-37.9559-50.82623-43.26633-50.03177-48.57675-48.7577-56.6119-47.96326-61.39053-47.1688-66.16919-45.89474-73.40239-45.1003-77.7076-44.30583-82.0128-43.03178-88.58043-42.23732-92.41951-41.44287-96.25859-40.16881-101.9825-39.37434-105.37704-38.5799-108.7716-37.30583-113.91136-36.51137-116.88516-35.71692-119.85896-34.44287-124.23654-33.64842-126.81017-32.85396-129.38379-31.5799-133.2369-30.78545-135.43412-29.99098-137.63134-28.71692-140.81758-27.92247-142.64626-27.12802-144.47493-25.85397-147.10945-25.05951-148.61399-24.26506-150.11853-22.991-152.30052-22.19653-153.48999-21.40208-154.67946-20.12802-156.29419-19.33356-157.18689-18.53911-158.07958-17.26506-159.30789-16.47061-159.92398-15.67615-160.54007-14.40208-161.27042-13.60764-161.62732-12.81317-161.98423-11.53911-162.37946-10.74466-162.49629-9.95021-162.61315-8.67615-162.58315-7.88168-162.46949-7.08723-162.35582-5.81319-161.98799-5.01872-161.67707-4.22427-161.36614-2.95021-160.72798-2.15576-160.2285-1.3613-159.729-.08725-158.75005 .70718-158.07706 1.50165-157.40406 2.7757-156.20746 3.57014-155.37802 4.36461-154.54857 5.63867-153.07039 6.43312-152.09896 7.22757-151.12752 8.50163-149.47476 9.2961-148.37651 10.09055-147.27826 11.36461-145.39505 12.15907-144.18349 12.95352-142.97194 14.22757-140.95508 15.02202-139.64444 15.81648-138.3338 17.09055-136.13814 17.885-134.7373 18.67946-133.33647 19.95352-131.0178 20.74797-129.54814 21.54243-128.07848 22.81647-125.6754 23.61093-124.14488 24.40538-122.61436 25.67944-120.09691 26.4739-118.51712 27.26836-116.93733 28.54242-114.37617 29.33688-112.75876 30.13133-111.14133 31.4054-108.505 32.19984-106.85979 32.99431-105.21457 34.26836-102.56311 35.0628-100.90115 35.85727-99.2392 37.13133-96.55266 37.92578-94.88152 38.72023-93.21037 39.9943-90.52339 40.78876-88.85669 41.5832-87.19 42.85725-84.52484 43.65172-82.86908 44.44617-81.2133 45.72023-78.55942 46.5147-76.92297 47.30914-75.28653 48.5832-72.68364 49.37766-71.07462 50.17212-69.4656 51.44618-66.9012 52.24063-65.32619 53.0351-63.75119 54.30914-61.25664 55.10359-59.72311 55.89804-58.18958 57.1721-55.7605 57.96657-54.27354 58.76102-52.78659 60.03508-50.4384 60.82954-49.0061 61.624-47.57382 62.89804-45.32376 63.69249-43.95059 64.48695-42.57744 65.76102-40.41905 66.55547-39.1092 67.34993-37.79936 68.624-35.75142 69.41844-34.51004 70.2129-33.26866 71.48694-31.33153 72.2814-30.16216 73.07585-28.9928 74.34991-27.17601 75.14438-26.08203 75.93883-24.98805 77.21289-23.29321 78.00735-22.27742 78.8018-21.26164 80.07587-19.69585 80.87032-18.7609 81.66478-17.82594 82.93883-16.3911 83.73328-15.53891 84.52774-14.68672 85.8018-13.38672 86.59625-12.61885 87.3907-11.85098 88.66476-10.68753 89.45923-10.00458 90.25368-9.32164 91.52773-8.29388 92.32219-7.69658 93.11664-7.09926 94.3907-6.21126 95.18517-5.69954 95.97961-5.1878 97.25368-4.43518 98.04813-4.00832 98.84259-3.58144 100.11665-2.96544 100.9111-2.6229 101.70557-2.28035 102.97961-1.79936 103.77406-1.53938 104.56851-1.27942 105.84258-.92888 106.63704-.74915 107.43149-.56941 108.70555-.34572 109.50002-.24394 110.29446-.14217 111.56851-.04219 112.36296-.01556 113.15742 .01106 114.43149-.00696 115.22594-.0519 116.0204-.09683 117.29446-.227 118.08891-.33952 118.88338-.45206 120.15744-.68718 120.95189-.8629 121.74634-1.03862 123.02039-1.37213 123.81485-1.606 124.6093-1.83987 125.88336-2.26183 126.67783-2.5485 127.47227-2.83517 128.74634-3.33856 129.54079-3.67223 130.33525-4.00589 131.6093-4.57935 132.40375-4.9534 133.19821-5.32747 134.47228-5.96075 135.26673-6.36824 136.06119-6.77573 137.33524-7.45668 138.1297-7.89034 138.92415-8.32399 140.1982-9.04187 140.99266-9.49376 141.78711-9.94566 143.06118-10.68555 143.85564-11.14735 144.65009-11.60916 145.92415-12.35945 146.7186-12.82214 147.51306-13.28485 148.78713-14.02805 149.58158-14.48222 150.37604-14.93639 151.65009-15.65935 152.44454-16.09558 153.23899-16.53183 154.51305-17.21866 155.30751-17.62634 156.10196-18.03401 157.37602-18.66557 158.17049-19.03381 158.96494-19.40205 160.23899-19.96292 161.03345-20.2804 161.8279-20.59785 163.10196-21.06694 163.89641-21.32195 164.69087-21.57693 165.96494-21.9381 166.75939-22.11824 167.55385-22.2984 168.82791-22.5282 169.62236-22.62042 170.41681-22.71266 171.69086-22.79152 172.48532-22.78307 173.27977-22.77461 174.55384-22.68257 175.3483-22.55943 176.14275-22.43631 177.41681-22.1476 178.21126-21.8955 179.00572-21.64339 180.27977-21.1382 181.07422-20.74234 181.86869-20.3465 183.14275-19.59743 183.9372-19.04248 184.73166-18.48753 186.0057-17.4723 186.80017-16.74266 187.59462-16.01302 188.86869-14.70439 189.66315-13.78368 190.4576-12.86295 191.73165-11.23497 192.52611-10.10666 193.32056-8.97836 194.59462-7.00478 195.38907-5.65152 196.18354-4.29828 197.4576-1.94923 198.25205-.35336 199.04651 1.2425 200.32056 3.99385 201.115 5.8505 201.90946 7.70712 203.18352 10.89172 203.97798 13.02803 204.77243 15.16434 206.0465 18.81262 206.84096 21.24756 207.6354 23.68248 208.90947 27.82396 209.70394 30.5774 210.49839 33.33081 212.56688 41.09238 212.25646 39.92758"/>
<path transform="matrix(-.083921689,-.99647977,-.99644997,.0839242,44.389085,30.29634)" stroke-width="1.27522" stroke-linecap="round" stroke-linejoin="round" fill="none" stroke="#0000ff" d="M-2.27148 3.02866C-2.0822 1.8929 0 .18927 .56786 0 0-.18927-2.0822-1.8929-2.27148-3.02866"/>
<path transform="matrix(.25750516,-.9662983,-.9662694,-.25751288,327.41706,131.35605)" stroke-width="1.27522" stroke-linecap="round" stroke-linejoin="round" fill="none" stroke="#0000ff" d="M-2.27148 3.02866C-2.0822 1.8929 0 .18927 .56786 0 0-.18927-2.0822-1.8929-2.27148-3.02866"/>
</svg>
