<svg xmlns="http://www.w3.org/2000/svg" xmlns:xlink="http://www.w3.org/1999/xlink" xmlns:inkscape="http://www.inkscape.org/namespaces/inkscape" version="1.1" width="343" height="393" viewBox="0 0 343 393">
<defs>
<path id="font_1_1" d="M.33399964 .30233766C.33999635 .32835389 .36299134 .42037965 .43299867 .42037965 .43798829 .42037965 .46199037 .42037965 .48298646 .40734864 .45498658 .402359 .43499757 .37734986 .43499757 .35334779 .43499757 .33735658 .44599916 .31835938 .47299195 .31835938 .49499513 .31835938 .5269928 .3363495 .5269928 .37635804 .5269928 .42837525 .46798707 .4423828 .43399049 .4423828 .37599183 .4423828 .34098817 .38935853 .32899476 .36634828 .3039856 .43237306 .25 .4423828 .22099304 .4423828 .116989139 .4423828 .05999756 .3133545 .05999756 .28834535 .05999756 .27833558 .069992069 .27833558 .07199097 .27833558 .07998657 .27833558 .08299255 .28033448 .084991458 .28933717 .11898804 .39535523 .18499756 .42037965 .21899414 .42037965 .23799134 .42037965 .272995 .4113617 .272995 .35334779 .272995 .32235719 .2559967 .25532533 .21899414 .11528015 .20298767 .053268434 .16799927 .011245728 .12399292 .011245728 .117996219 .011245728 .09498596 .011245728 .07398987 .024276734 .09899902 .029266358 .12098694 .05027771 .12098694 .07827759 .12098694 .105270389 .09899902 .11328125 .083999637 .11328125 .053985597 .11328125 .0289917 .08728027 .0289917 .055267335 .0289917 .009246826 .07899475-.0107421879 .12298584-.0107421879 .18899536-.0107421879 .22499085 .059280397 .22799683 .0652771 .23999024 .028274537 .27598573-.0107421879 .33599855-.0107421879 .43899537-.0107421879 .49598695 .118270877 .49598695 .14328003 .49598695 .1532898 .4869995 .1532898 .48399354 .1532898 .47499085 .1532898 .47299195 .14929199 .47099305 .14228821 .43798829 .03527832 .36999513 .011245728 .33799745 .011245728 .29899598 .011245728 .2829895 .043273927 .2829895 .07727051 .2829895 .09927368 .2889862 .121276859 .2999878 .16529846L.33399964 .30233766Z"/>
<path id="font_1_2" d="M.48599244 .38136292C.48999024 .39537049 .48999024 .39736939 .48999024 .40437318 .48999024 .42237855 .47599793 .43138124 .46099855 .43138124 .45098878 .43138124 .43499757 .42536927 .42599488 .41036988 .42399598 .405365 .41600038 .37435914 .4119873 .35635377 .40499879 .33035279 .397995 .30334474 .3919983 .27633668L.34700013 .09628296C.34298707 .08126831 .2999878 .011245728 .23399353 .011245728 .18299866 .011245728 .17199707 .055267335 .17199707 .0922699 .17199707 .1382904 .18899536 .20030213 .22299195 .28833009 .23899842 .3293457 .24299622 .3403473 .24299622 .36035157 .24299622 .405365 .21099854 .4423828 .16099549 .4423828 .06599426 .4423828 .0289917 .29733277 .0289917 .28833009 .0289917 .27833558 .038986207 .27833558 .040985109 .27833558 .050994874 .27833558 .051986696 .28033448 .056991579 .29634095 .083999637 .3903656 .12399292 .42037965 .1579895 .42037965 .1659851 .42037965 .18299866 .42037965 .18299866 .3883667 .18299866 .36335755 .17298889 .3373413 .1659851 .31834413 .12599182 .21231079 .10798645 .1552887 .10798645 .10827637 .10798645 .019256592 .17098999-.0107421879 .22999573-.0107421879 .2689972-.0107421879 .30299378 .0062561037 .33099366 .03425598 .31799317-.017745972 .30599977-.06674194 .2659912-.11973572 .23999024-.15385437 .20199585-.18309021 .1559906-.18309021 .14199829-.18309021 .09700012-.18005371 .07998657-.14074707 .09599304-.14074707 .10899353-.14074707 .12298584-.1287384 .1329956-.11973572 .14299011-.10673523 .14299011-.08773804 .14299011-.056747438 .115997318-.052734376 .10598755-.052734376 .08299255-.052734376 .049987794-.068740848 .049987794-.11773682 .049987794-.16796875 .09399414-.20507813 .1559906-.20507813 .25898744-.20507813 .3619995-.11373901 .3899994-.00074768069L.48599244 .38136292Z"/>
<path id="font_2_1" d="M.1269989 .07699585 .23298645 .18003845C.3889923 .31811524 .44898988 .3721466 .44898988 .47216798 .44898988 .5860901 .35899354 .6660156 .23699951 .6660156 .12399292 .6660156 .049987794 .57411196 .049987794 .48516847 .049987794 .4291687 .099990848 .4291687 .102996829 .4291687 .11999512 .4291687 .15499878 .44117738 .15499878 .48217774 .15499878 .5081787 .13699341 .5341797 .101989749 .5341797 .09399414 .5341797 .09199524 .5341797 .08898926 .5331726 .11199951 .59806826 .1659851 .63500979 .22399903 .63500979 .31498719 .63500979 .35798646 .5541382 .35798646 .47216798 .35798646 .39215089 .30799867 .31311036 .25299073 .25108338L.06098938 .036987306C.049987794 .025985718 .049987794 .023986817 .049987794 0H.42099L.44898988 .17404175H.42399598C.4189911 .14402771 .4119873 .1000061 .4019928 .084991458 .394989 .07699585 .32899476 .07699585 .30699159 .07699585H.1269989Z"/>
<path id="font_2_2" d="M.2939911 .16503906V.07800293C.2939911 .041992189 .2919922 .0309906 .21798706 .0309906H.19699097V0C.23799134 .0029907227 .2899933 .0029907227 .33198548 .0029907227 .37399293 .0029907227 .4269867 .0029907227 .46798707 0V.0309906H.44699098C.37298585 .0309906 .37098695 .041992189 .37098695 .07800293V.16503906H.47099305V.19602967H.37098695V.65075686C.37098695 .67074587 .37098695 .6767578 .35499574 .6767578 .34599305 .6767578 .34298707 .6767578 .33499146 .66474917L.027999878 .19602967V.16503906H.2939911M.2999878 .19602967H.055999757L.2999878 .5688019V.19602967Z"/>
<path id="font_2_3" d="M.47599793 .609375C.4850006 .6213684 .4850006 .62338259 .4850006 .64437869H.24198914C.11999512 .64437869 .117996219 .65737918 .11399841 .67637637H.08898926L.055999757 .4702301H.08099365C.083999637 .48625184 .09298706 .5493469 .10598755 .56137087 .11299133 .5673828 .19099427 .5673828 .20399475 .5673828H.41099549C.3999939 .5513611 .32099916 .4421997 .29899598 .40914918 .20899964 .27394105 .17599488 .1347351 .17599488 .032577516 .17599488 .022567749 .17599488-.022460938 .22200012-.022460938 .2679901-.022460938 .2679901 .022567749 .2679901 .032577516V.08366394C.2679901 .13873291 .2709961 .19381714 .2789917 .24790955 .2829895 .27093507 .29699708 .35707093 .34098817 .41915895L.47599793 .609375Z"/>
</defs>
<path transform="matrix(1.00002,0,0,-1,30.115624,313.01)" stroke-width=".3985" stroke-linecap="butt" stroke-miterlimit="10" stroke-linejoin="miter" fill="none" stroke="#000000" d="M-27.88852 0H311.35664"/>
<path transform="matrix(-1.00002,-0,0,1,2.2265454,313.01)" stroke-width=".31879" stroke-linecap="round" stroke-linejoin="round" fill="none" stroke="#000000" d="M-1.19551 1.59401C-1.09587 .99626 0 .09961 .29886 0 0-.09961-1.09587-.99626-1.19551-1.59401"/>
<path transform="matrix(1.00002,0,0,-1,341.4785,313.01)" stroke-width=".31879" stroke-linecap="round" stroke-linejoin="round" fill="none" stroke="#000000" d="M-1.19551 1.59401C-1.09587 .99626 0 .09961 .29886 0 0-.09961-1.09587-.99626-1.19551-1.59401"/>
<use data-text="x" xlink:href="#font_1_1" transform="matrix(10.909318,0,0,-10.9091,324.6455,304.02003)"/>
<path transform="matrix(1.00002,0,0,-1,30.115624,313.01)" stroke-width=".3985" stroke-linecap="butt" stroke-miterlimit="10" stroke-linejoin="miter" fill="none" stroke="#000000" d="M0-27.88852V311.35664"/>
<path transform="matrix(0,1,1.00002,0,30.115624,340.89854)" stroke-width=".31879" stroke-linecap="round" stroke-linejoin="round" fill="none" stroke="#000000" d="M-1.19551 1.59401C-1.09587 .99626 0 .09961 .29886 0 0-.09961-1.09587-.99626-1.19551-1.59401"/>
<path transform="matrix(0,-1,-1.00002,-0,30.115624,1.6533814)" stroke-width=".31879" stroke-linecap="round" stroke-linejoin="round" fill="none" stroke="#000000" d="M-1.19551 1.59401C-1.09587 .99626 0 .09961 .29886 0 0-.09961-1.09587-.99626-1.19551-1.59401"/>
<use data-text="y" xlink:href="#font_1_2" transform="matrix(10.909318,0,0,-10.9091,38.584794,16.656006)"/>
<path transform="matrix(1.00002,0,0,-1,30.115624,313.01)" stroke-width=".3985" stroke-linecap="butt" stroke-miterlimit="10" stroke-linejoin="miter" fill="none" stroke="#000000" d="M56.69362-2.83484V2.83484"/>
<use data-text="2" xlink:href="#font_2_1" transform="matrix(10.909318,0,0,-10.9091,84.0827,327.864)"/>
<path transform="matrix(1.00002,0,0,-1,30.115624,313.01)" stroke-width=".3985" stroke-linecap="butt" stroke-miterlimit="10" stroke-linejoin="miter" fill="none" stroke="#000000" d="M113.38724-2.83484V2.83484"/>
<use data-text="4" xlink:href="#font_2_2" transform="matrix(10.909318,0,0,-10.9091,140.77783,327.864)"/>
<path transform="matrix(1.00002,0,0,-1,30.115624,313.01)" stroke-width=".3985" stroke-linecap="butt" stroke-miterlimit="10" stroke-linejoin="miter" fill="none" stroke="#000000" d="M198.42766-2.83484V2.83484"/>
<use data-text="7" xlink:href="#font_2_3" transform="matrix(10.909318,0,0,-10.9091,225.81955,327.864)"/>
<path transform="matrix(1.00002,0,0,-1,30.115624,313.01)" stroke-width="1.59404" stroke-linecap="butt" stroke-miterlimit="10" stroke-linejoin="miter" fill="none" stroke="#0000ff" d="M42.72453-63.76924C43.76118-57.74323 43.76118-57.74323 44.23781-55.08456 44.71443-52.4259 45.47879-48.29553 45.95541-45.79538 46.43205-43.29521 47.19641-39.4109 47.67303-37.06503 48.14966-34.71915 48.914-31.08133 49.39063-28.88791 49.86725-26.69447 50.6316-23.30202 51.10823-21.25621 51.58487-19.2104 52.34923-16.04543 52.82585-14.14311 53.30247-12.2408 54.06683-9.30598 54.54346-7.54561 55.02008-5.78525 55.78444-3.07776 56.26106-1.45547 56.7377 .1668 57.50206 2.65833 57.97868 4.14673 58.4553 5.63512 59.21965 7.91304 59.69627 9.27188 60.1729 10.6307 60.93726 12.70752 61.4139 13.94025 61.89052 15.17297 62.65488 17.04788 63.1315 18.15663 63.60812 19.26537 64.37248 20.9426 64.8491 21.93138 65.32573 22.92017 66.09009 24.41054 66.56673 25.28313 67.04335 26.15573 67.80771 27.46114 68.28433 28.22049 68.76096 28.97984 69.52531 30.10583 70.00194 30.75603 70.47856 31.40622 71.2429 32.3621 71.71954 32.9066 72.19617 33.45111 72.96053 34.2387 73.43715 34.68045 73.91377 35.12221 74.67813 35.74773 75.15475 36.09053 75.63138 36.43332 76.39574 36.90349 76.87238 37.15111 77.349 37.39871 78.11336 37.71951 78.58998 37.87517 79.0666 38.03084 79.83096 38.2059 80.30759 38.27312 80.78421 38.34032 81.54855 38.37712 82.02519 38.35962 82.50182 38.3421 83.26617 38.246 83.7428 38.1468 84.21942 38.0476 84.98378 37.82173 85.4604 37.64464 85.93704 37.46754 86.70139 37.12172 87.17802 36.87039 87.65465 36.61905 88.419 36.1555 88.89563 35.83318 89.37225 35.51083 90.13661 34.93701 90.61324 34.54723 91.08987 34.15746 91.8542 33.47752 92.33084 33.02383 92.80746 32.57013 93.57182 31.79112 94.04845 31.27724 94.52507 30.76335 95.28943 29.89091 95.76605 29.32 96.24269 28.7491 97.00703 27.78706 97.48367 27.1625 97.9603 26.53795 98.72466 25.49283 99.20128 24.81857 99.6779 24.14432 100.44226 23.02345 100.91888 22.30293 101.39552 21.58243 102.15987 20.3892 102.6365 19.62553 103.11313 18.86186 103.87747 17.60182 104.3541 16.79889 104.83072 15.99597 105.59508 14.67747 106.0717 13.83861 106.54834 12.99976 107.31268 11.62422 107.78932 10.75288 108.26595 9.88155 109.0303 8.45866 109.50693 7.55858 109.98355 6.65851 110.74791 5.19138 111.22453 4.26567 111.70117 3.33997 112.46552 1.83406 112.94215 .88669 113.41878-.06067 114.18312-1.59666 114.65974-2.56235 115.13637-3.52802 115.90073-5.09238 116.37735-6.07324 116.85399-7.05411 117.61833-8.63948 118.09497-9.63174 118.5716-10.62401 119.33595-12.2246 119.81258-13.22484 120.2892-14.22508 121.05356-15.83629 121.53018-16.84085 122.00682-17.84541 122.77116-19.45964 123.2478-20.46509 123.72443-21.47055 124.48878-23.08453 124.96541-24.08759 125.44203-25.09065 126.20638-26.69783 126.683-27.69453 127.15964-28.69124 127.92398-30.28409 128.40062-31.27118 128.87725-32.25827 129.6416-33.83464 130.11823-34.8089 130.59485-35.78317 131.3592-37.33543 131.83583-38.293 132.31247-39.25058 133.07682-40.77301 133.55345-41.71048 134.03008-42.64796 134.79444-44.13568 135.27106-45.04968 135.74768-45.96368 136.51203-47.41122 136.98865-48.29805 137.46529-49.18488 138.22963-50.58516 138.70627-51.4413 139.18289-52.29744 139.94725-53.64658 140.42388-54.46863 140.9005-55.2907 141.66486-56.58171 142.14148-57.36621 142.61812-58.15071 143.38246-59.37915 143.8591-60.12277 144.33573-60.8664 145.10009-62.02686 145.5767-62.72577 146.05333-63.42468 146.81769-64.50945 147.29431-65.16011 147.77095-65.81078 148.53528-66.81606 149.01192-67.41536 149.48854-68.01465 150.2529-68.93529 150.72953-69.47943 151.20615-70.02357 151.9705-70.85167 152.44713-71.33717 152.92377-71.82268 153.68811-72.55515 154.16475-72.97865 154.64138-73.40216 155.40573-74.0318 155.88236-74.3896 156.35898-74.74739 157.12334-75.26868 157.59996-75.55746 158.0766-75.84624 158.84093-76.25476 159.31757-76.47098 159.79419-76.6872 160.55855-76.97583 161.03517-77.11589 161.5118-77.25595 162.27616-77.41995 162.75278-77.48051 163.22942-77.54106 163.99376-77.57477 164.4704-77.55232 164.94702-77.52989 165.71138-77.4279 166.188-77.31874 166.66463-77.20958 167.42899-76.96477 167.90561-76.76553 168.38225-76.5663 169.14658-76.17552 169.62322-75.88272 170.09984-75.58992 170.8642-75.04514 171.34082-74.65518 171.81745-74.26521 172.5818-73.56252 173.05843-73.07208 173.53507-72.58165 174.29943-71.71503 174.77605-71.12047 175.25267-70.52592 176.01703-69.48909 176.49365-68.78694 176.97028-68.0848 177.73464-66.87291 178.21126-66.05978 178.6879-65.24666 179.45226-63.8543 179.92888-62.92648 180.4055-61.99867 181.16985-60.41866 181.64647-59.37274 182.1231-58.32684 182.88745-56.55557 183.36408-55.3882 183.84072-54.22083 184.60507-52.25157 185.0817-50.95901 185.55832-49.66646 186.32268-47.49338 186.7993-46.0722 187.27593-44.65103 188.04029-42.26924 188.5169-40.7161 188.99355-39.16293 189.7579-36.56691 190.23453-34.87811 190.71115-33.18933 191.4755-30.37236 191.95212-28.54446 192.42874-26.71655 193.1931-23.67422 193.66973-21.70387 194.14636-19.73352 194.91072-16.45987 195.38735-14.34338 195.86397-12.22688 196.62833-8.7156 197.10495-6.44955 197.58158-4.1835 198.34593-.43034 198.82256 1.98878 199.2992 4.40794 200.06356 8.41023 200.54018 10.98602 201.0168 13.56181 201.78116 17.81749 202.25778 20.55333 202.7344 23.28917 203.49875 27.80475 203.97539 30.70413 204.45201 33.60352 205.21637 38.38364 205.693 41.4501 206.16962 44.51657 206.93398 49.56795 207.4106 52.80508 207.88722 56.04222 208.65158 61.37007 209.12822 64.7812 209.60485 68.19232 210.3692 73.80142 210.84583 77.39012 211.32245 80.97882 212.56343 90.6461 212.40998 89.45047"/>
<path transform="matrix(-.1695134,.98549,.98550978,.16951,72.84103,376.77925)" stroke-width="1.27522" stroke-linecap="round" stroke-linejoin="round" fill="none" stroke="#0000ff" d="M-2.27148 3.02866C-2.0822 1.8929 0 .18927 .56786 0 0-.18927-2.0822-1.8929-2.27148-3.02866"/>
<path transform="matrix(.12730254,-.99182,-.9918398,-.1273,242.52985,223.55957)" stroke-width="1.27522" stroke-linecap="round" stroke-linejoin="round" fill="none" stroke="#0000ff" d="M-2.27148 3.02866C-2.0822 1.8929 0 .18927 .56786 0 0-.18927-2.0822-1.8929-2.27148-3.02866"/>
</svg>
