<svg xmlns="http://www.w3.org/2000/svg" xmlns:xlink="http://www.w3.org/1999/xlink" xmlns:inkscape="http://www.inkscape.org/namespaces/inkscape" version="1.1" width="343" height="349" viewBox="0 0 343 349">
<defs>
<path id="font_1_1" d="M.33399964 .30233766C.33999635 .32835389 .36299134 .42037965 .43299867 .42037965 .43798829 .42037965 .46199037 .42037965 .48298646 .40734864 .45498658 .402359 .43499757 .37734986 .43499757 .35334779 .43499757 .33735658 .44599916 .31835938 .47299195 .31835938 .49499513 .31835938 .5269928 .3363495 .5269928 .37635804 .5269928 .42837525 .46798707 .4423828 .43399049 .4423828 .37599183 .4423828 .34098817 .38935853 .32899476 .36634828 .3039856 .43237306 .25 .4423828 .22099304 .4423828 .116989139 .4423828 .05999756 .3133545 .05999756 .28834535 .05999756 .27833558 .069992069 .27833558 .07199097 .27833558 .07998657 .27833558 .08299255 .28033448 .084991458 .28933717 .11898804 .39535523 .18499756 .42037965 .21899414 .42037965 .23799134 .42037965 .272995 .4113617 .272995 .35334779 .272995 .32235719 .2559967 .25532533 .21899414 .11528015 .20298767 .053268434 .16799927 .011245728 .12399292 .011245728 .117996219 .011245728 .09498596 .011245728 .07398987 .024276734 .09899902 .029266358 .12098694 .05027771 .12098694 .07827759 .12098694 .105270389 .09899902 .11328125 .083999637 .11328125 .053985597 .11328125 .0289917 .08728027 .0289917 .055267335 .0289917 .009246826 .07899475-.0107421879 .12298584-.0107421879 .18899536-.0107421879 .22499085 .059280397 .22799683 .0652771 .23999024 .028274537 .27598573-.0107421879 .33599855-.0107421879 .43899537-.0107421879 .49598695 .118270877 .49598695 .14328003 .49598695 .1532898 .4869995 .1532898 .48399354 .1532898 .47499085 .1532898 .47299195 .14929199 .47099305 .14228821 .43798829 .03527832 .36999513 .011245728 .33799745 .011245728 .29899598 .011245728 .2829895 .043273927 .2829895 .07727051 .2829895 .09927368 .2889862 .121276859 .2999878 .16529846L.33399964 .30233766Z"/>
<path id="font_1_2" d="M.48599244 .38136292C.48999024 .39537049 .48999024 .39736939 .48999024 .40437318 .48999024 .42237855 .47599793 .43138124 .46099855 .43138124 .45098878 .43138124 .43499757 .42536927 .42599488 .41036988 .42399598 .405365 .41600038 .37435914 .4119873 .35635377 .40499879 .33035279 .397995 .30334474 .3919983 .27633668L.34700013 .09628296C.34298707 .08126831 .2999878 .011245728 .23399353 .011245728 .18299866 .011245728 .17199707 .055267335 .17199707 .0922699 .17199707 .1382904 .18899536 .20030213 .22299195 .28833009 .23899842 .3293457 .24299622 .3403473 .24299622 .36035157 .24299622 .405365 .21099854 .4423828 .16099549 .4423828 .06599426 .4423828 .0289917 .29733277 .0289917 .28833009 .0289917 .27833558 .038986207 .27833558 .040985109 .27833558 .050994874 .27833558 .051986696 .28033448 .056991579 .29634095 .083999637 .3903656 .12399292 .42037965 .1579895 .42037965 .1659851 .42037965 .18299866 .42037965 .18299866 .3883667 .18299866 .36335755 .17298889 .3373413 .1659851 .31834413 .12599182 .21231079 .10798645 .1552887 .10798645 .10827637 .10798645 .019256592 .17098999-.0107421879 .22999573-.0107421879 .2689972-.0107421879 .30299378 .0062561037 .33099366 .03425598 .31799317-.017745972 .30599977-.06674194 .2659912-.11973572 .23999024-.15385437 .20199585-.18309021 .1559906-.18309021 .14199829-.18309021 .09700012-.18005371 .07998657-.14074707 .09599304-.14074707 .10899353-.14074707 .12298584-.1287384 .1329956-.11973572 .14299011-.10673523 .14299011-.08773804 .14299011-.056747438 .115997318-.052734376 .10598755-.052734376 .08299255-.052734376 .049987794-.068740848 .049987794-.11773682 .049987794-.16796875 .09399414-.20507813 .1559906-.20507813 .25898744-.20507813 .3619995-.11373901 .3899994-.00074768069L.48599244 .38136292Z"/>
<path id="font_2_1" d="M.13198853 .327713V.35173036C.13198853 .6047821 .2559967 .64100649 .30699159 .64100649 .33099366 .64100649 .37298585 .634964 .394989 .6007538 .37998963 .6007538 .33999635 .6007538 .33999635 .5557556 .33999635 .524765 .3639984 .5097656 .38598634 .5097656 .4019928 .5097656 .43199159 .51875308 .43199159 .5577545 .43199159 .6178589 .3880005 .6660156 .30499269 .6660156 .1769867 .6660156 .041992189 .5367584 .041992189 .31570436 .041992189 .048553468 .1579895-.022460938 .25099183-.022460938 .3619995-.022460938 .45700074 .07156372 .45700074 .2036438 .45700074 .33070375 .36799623 .4267578 .25698854 .4267578 .18899536 .4267578 .1519928 .37573243 .13198853 .327713M.25099183 .0055389406C.18798828 .0055389406 .1579895 .06556702 .1519928 .080566409 .13398743 .127594 .13398743 .2076416 .13398743 .22564698 .13398743 .30369569 .1659851 .40374757 .2559967 .40374757 .27198792 .40374757 .31799317 .40374757 .34899903 .34172059 .36698915 .30470277 .36698915 .2536621 .36698915 .20463562 .36698915 .15661621 .36698915 .10658264 .34999085 .0705719 .31999208 .010528564 .27398683 .0055389406 .25099183 .0055389406Z"/>
<path id="font_2_2" d="M.16299439 .4569702C.116989139 .486969 .11299133 .52098086 .11299133 .5379791 .11299133 .598999 .17799378 .64100649 .24899292 .64100649 .32199098 .64100649 .38598634 .58898928 .38598634 .51698306 .38598634 .45996095 .34700013 .4119568 .2869873 .37695313L.16299439 .4569702M.30899049 .36193849C.3809967 .3989563 .42999269 .45095826 .42999269 .51698306 .42999269 .6090088 .34098817 .6660156 .25 .6660156 .1499939 .6660156 .068984989 .59199526 .068984989 .49897767 .068984989 .4809723 .070999149 .43595887 .11299133 .38894654 .12399292 .37695313 .16099549 .35194398 .18598938 .33494569 .12799073 .30592347 .041992189 .24984741 .041992189 .15072632 .041992189 .04458618 .14399719-.022460938 .24899292-.022460938 .3619995-.022460938 .45700074 .06060791 .45700074 .16773987 .45700074 .20379639 .44599916 .24885559 .4079895 .2909088 .3889923 .31193543 .37298585 .3219452 .30899049 .36193849M.20899964 .3199463 .33198548 .24183655C.3600006 .2228241 .40699769 .19277954 .40699769 .13169861 .40699769 .05760193 .33198548 .0055389406 .25 .0055389406 .1639862 .0055389406 .09199524 .067611698 .09199524 .15072632 .09199524 .20880127 .12399292 .27288819 .20899964 .3199463Z"/>
</defs>
<path transform="matrix(1.00002,0,0,-1.00005,30.115624,313.0247)" stroke-width=".3985" stroke-linecap="butt" stroke-miterlimit="10" stroke-linejoin="miter" fill="none" stroke="#000000" d="M-27.88852 0H311.35664"/>
<path transform="matrix(-1.00002,-0,0,1.00005,2.2265454,313.0247)" stroke-width=".31879" stroke-linecap="round" stroke-linejoin="round" fill="none" stroke="#000000" d="M-1.19551 1.59401C-1.09587 .99626 0 .09961 .29886 0 0-.09961-1.09587-.99626-1.19551-1.59401"/>
<path transform="matrix(1.00002,0,0,-1.00005,341.4785,313.0247)" stroke-width=".31879" stroke-linecap="round" stroke-linejoin="round" fill="none" stroke="#000000" d="M-1.19551 1.59401C-1.09587 .99626 0 .09961 .29886 0 0-.09961-1.09587-.99626-1.19551-1.59401"/>
<use data-text="x" xlink:href="#font_1_1" transform="matrix(10.909318,0,0,-10.909644,324.6455,304.03425)"/>
<path transform="matrix(1.00002,0,0,-1.00005,30.115624,313.0247)" stroke-width=".3985" stroke-linecap="butt" stroke-miterlimit="10" stroke-linejoin="miter" fill="none" stroke="#000000" d="M0-27.88852V311.35664"/>
<path transform="matrix(0,1.00005,1.00002,0,30.115624,340.9146)" stroke-width=".31879" stroke-linecap="round" stroke-linejoin="round" fill="none" stroke="#000000" d="M-1.19551 1.59401C-1.09587 .99626 0 .09961 .29886 0 0-.09961-1.09587-.99626-1.19551-1.59401"/>
<path transform="matrix(0,-1.00005,-1.00002,-0,30.115624,1.6524963)" stroke-width=".31879" stroke-linecap="round" stroke-linejoin="round" fill="none" stroke="#000000" d="M-1.19551 1.59401C-1.09587 .99626 0 .09961 .29886 0 0-.09961-1.09587-.99626-1.19551-1.59401"/>
<use data-text="y" xlink:href="#font_1_2" transform="matrix(10.909318,0,0,-10.909644,38.584794,16.655884)"/>
<path transform="matrix(1.00002,0,0,-1.00005,30.115624,313.0247)" stroke-width=".3985" stroke-linecap="butt" stroke-miterlimit="10" stroke-linejoin="miter" fill="none" stroke="#000000" d="M170.08086-2.83484V2.83484"/>
<use data-text="6" xlink:href="#font_2_1" transform="matrix(10.909318,0,0,-10.909644,197.47299,327.87944)"/>
<path transform="matrix(1.00002,0,0,-1.00005,30.115624,313.0247)" stroke-width=".3985" stroke-linecap="butt" stroke-miterlimit="10" stroke-linejoin="miter" fill="none" stroke="#000000" d="M226.77448-2.83484V2.83484"/>
<use data-text="8" xlink:href="#font_2_2" transform="matrix(10.909318,0,0,-10.909644,254.16712,327.87944)"/>
<path transform="matrix(1.00002,0,0,-1.00005,30.115624,313.0247)" stroke-width="1.59404" stroke-linecap="butt" stroke-miterlimit="10" stroke-linejoin="miter" fill="none" stroke="#0000ff" d="M156.3281-16.58711C156.52779-16.05113 156.52779-16.05113 156.76604-15.4455 157.00428-14.83984 157.38637-13.90855 157.6246-13.35158 157.86286-12.79459 158.24495-11.94092 158.4832-11.4311 158.72145-10.9213 159.10355-10.141 159.3418-9.67715 159.58003-9.21332 159.96213-8.5072 160.20038-8.08801 160.43862-7.66881 160.82073-7.03178 161.05896-6.65587 161.29721-6.27995 161.6793-5.71255 161.91756-5.37859 162.1558-5.04462 162.5379-4.5422 162.77616-4.24881 163.01439-3.95541 163.39649-3.51778 163.63472-3.26392 163.87297-3.01006 164.25507-2.63498 164.49332-2.41917 164.73157-2.20337 165.11367-1.88765 165.35192-1.70851 165.59017-1.52937 165.97225-1.2717 166.2105-1.12804 166.44873-.98438 166.83084-.78247 167.06908-.67302 167.30733-.56355 167.68943-.41579 167.92768-.33908 168.16593-.26239 168.548-.16547 168.78626-.12022 169.02449-.07498 169.4066-.02802 169.64484-.01295 169.88309 .00208 170.2652 .00206 170.50344-.01167 170.74169-.0254 171.12378-.07062 171.36203-.11201 171.60028-.15341 171.98236-.24236 172.22061-.31012 172.45885-.37787 172.84096-.50775 173.0792-.60034 173.31745-.69295 173.69954-.86136 173.93779-.97752 174.17604-1.0937 174.55812-1.29916 174.79637-1.43773 175.0346-1.5763 175.41672-1.81674 175.65497-1.97624 175.8932-2.13576 176.27532-2.4083 176.51355-2.58743 176.7518-2.76657 177.13388-3.06972 177.37213-3.26738 177.61038-3.46506 177.99248-3.79749 178.23073-4.0122 178.46897-4.22691 178.85108-4.58455 179.08931-4.81499 179.32756-5.04544 179.70964-5.42819 179.94789-5.67316 180.18614-5.91812 180.56824-6.32263 180.80649-6.58063 181.04473-6.83862 181.42684-7.26276 181.66509-7.53264 181.90332-7.80252 182.28543-8.24532 182.52367-8.52574 182.76192-8.80618 183.144-9.26428 183.38225-9.5539 183.6205-9.8435 184.0026-10.31567 184.24085-10.61316 184.47908-10.91064 184.86119-11.39401 185.09943-11.69798 185.33768-12.00194 185.71977-12.49467 185.95801-12.80399 186.19626-13.11328 186.57836-13.61394 186.8166-13.92728 187.05486-14.2406 187.43695-14.74634 187.6752-15.06226 187.91344-15.37816 188.29553-15.88689 188.53377-16.20416 188.77202-16.52144 189.15412-17.0318 189.39237-17.34909 189.63062-17.66637 190.01271-18.175 190.25096-18.49098 190.4892-18.80695 190.8713-19.3129 191.10956-19.6264 191.3478-19.93991 191.72989-20.44101 191.96813-20.75055 192.20638-21.0601 192.58847-21.55316 192.82672-21.85742 193.06497-22.1617 193.44707-22.64575 193.68532-22.94353 193.92356-23.2413 194.30565-23.71384 194.54389-24.0037 194.78214-24.29355 195.16423-24.75201 195.40248-25.0327 195.64073-25.31337 196.02283-25.75636 196.26108-26.02666 196.49932-26.29695 196.88141-26.72232 197.11966-26.98085 197.3579-27.23936 197.74-27.64464 197.97824-27.89003 198.21649-28.13542 198.59859-28.5185 198.83684-28.74948 199.07509-28.98048 199.45717-29.33961 199.69542-29.55487 199.93366-29.77013 200.31577-30.10272 200.554-30.301 200.79225-30.49928 201.17436-30.804 201.4126-30.98398 201.65085-31.16396 202.03295-31.4379 202.2712-31.59819 202.50945-31.75847 202.89153-32 203.12978-32.13928 203.36801-32.27856 203.75012-32.48509 203.98836-32.60211 204.22661-32.71913 204.6087-32.88925 204.84696-32.98274 205.0852-33.07623 205.46729-33.20741 205.70554-33.276 205.94377-33.34459 206.32588-33.43475 206.56412-33.47713 206.80237-33.51949 207.18448-33.56656 207.42272-33.58138 207.66097-33.59619 208.04305-33.59787 208.2813-33.58395 208.51955-33.57005 208.90164-33.52507 209.1399-33.48103 209.37813-33.43698 209.76024-33.34204 209.99848-33.26648 210.23673-33.19093 210.61882-33.04483 210.85707-32.93646 211.09532-32.8281 211.4774-32.62773 211.71566-32.4853 211.95389-32.3429 212.336-32.0878 212.57425-31.91003 212.81249-31.73228 213.1946-31.41862 213.43283-31.20413 213.67108-30.98965 214.05316-30.61662 214.29141-30.36415 214.52967-30.11168 214.91176-29.67624 215.15001-29.38446 215.38825-29.09267 215.77036-28.59357 216.00859-28.26115 216.24684-27.92874 216.62894-27.36305 216.86717-26.98863 217.10543-26.6142 217.48752-25.98018 217.72577-25.56255 217.96402-25.14491 218.34612-24.44075 218.58437-23.97859 218.8226-23.51643 219.2047-22.73964 219.44293-22.23158 219.68119-21.72351 220.06328-20.87202 220.30153-20.31673 220.53978-19.76143 220.92188-18.83308 221.16013-18.2293 221.39836-17.6255 221.78047-16.6185 222.0187-15.96495 222.25696-15.31142 222.63906-14.22363 222.87729-13.51897 223.11554-12.81429 223.49764-11.64323 223.73589-10.8861 223.97414-10.12897 224.35623-8.87296 224.59449-8.06206 224.83272-7.25116 225.21482-5.9076 225.45305-5.04166 225.6913-4.17572 226.0734-2.74321 226.31165-1.82098 226.5499-.89874 226.93199 .62523 227.17024 1.60513 227.40848 2.58504 227.79058 4.20253 228.02883 5.24149 228.26706 6.28043 228.64917 7.99391 228.8874 9.09323 229.12566 10.19257 229.50775 12.00381 229.746 13.1647 229.98426 14.3256 230.36635 16.23645 230.6046 17.46024 230.84284 18.68404 231.22493 20.69696 231.46317 21.98503 231.70142 23.27312 232.08351 25.39021 232.32176 26.74382 232.56002 28.09741 232.94211 30.32047 233.18036 31.74092 233.41861 33.16138 233.80069 35.49292 234.03894 36.98155 234.27718 38.4702 234.65929 40.9119 234.89752 42.47002 235.13578 44.02814 235.51787 46.58264 235.75612 48.21153 235.99437 49.84042 236.37645 52.509 236.6147 54.20998 236.85294 55.91093 237.23505 58.69647 237.47328 60.47095 237.71154 62.24544 238.09365 65.15005 238.33188 66.99927 238.57013 68.84846 238.95223 71.87358 239.19048 73.79875 239.42873 75.72394 239.8108 78.8721 240.04906 80.87463 240.2873 82.87718 240.90764 88.23169 240.76892 87.03427"/>
<path transform="matrix(-.34895698,.9371168,.9370888,.34896744,186.44687,329.6126)" stroke-width="1.27522" stroke-linecap="round" stroke-linejoin="round" fill="none" stroke="#0000ff" d="M-2.27148 3.02866C-2.0822 1.8929 0 .18927 .56786 0 0-.18927-2.0822-1.8929-2.27148-3.02866"/>
<path transform="matrix(.1150823,-.9933496,-.9933199,-.11508574,270.88935,225.98607)" stroke-width="1.27522" stroke-linecap="round" stroke-linejoin="round" fill="none" stroke="#0000ff" d="M-2.27148 3.02866C-2.0822 1.8929 0 .18927 .56786 0 0-.18927-2.0822-1.8929-2.27148-3.02866"/>
</svg>
