<svg xmlns="http://www.w3.org/2000/svg" xmlns:xlink="http://www.w3.org/1999/xlink" xmlns:inkscape="http://www.inkscape.org/namespaces/inkscape" version="1.1" width="201" height="30" viewBox="0 0 201 30">
<defs>
<path id="font_1_1" d="M.45999146 .31976319C.45999146 .39982606 .45498658 .47988893 .41999818 .5539398 .37399293 .65000918 .2919922 .6660156 .25 .6660156 .18998719 .6660156 .116989139 .64001467 .07598877 .54693606 .04399109 .47789 .038986207 .39982606 .038986207 .31976319 .038986207 .24472046 .042999269 .15464783 .083999637 .07859802 .1269989-.0024719239 .19999695-.022460938 .24899292-.022460938 .30299378-.022460938 .3789978-.0014648438 .4229889 .09359741 .45498658 .16265869 .45999146 .2407074 .45999146 .31976319M.24899292-.00047302247C.20999146-.00047302247 .15098572 .024551392 .1329956 .12062073 .12199402 .18066406 .12199402 .2727356 .12199402 .3317871 .12199402 .39582826 .12199402 .46188355 .12998963 .5159149 .14898682 .63500979 .22399903 .64401248 .24899292 .64401248 .28199769 .64401248 .34799195 .6259918 .36698915 .52693179 .3769989 .47088624 .3769989 .39482118 .3769989 .3317871 .3769989 .25672914 .3769989 .18867493 .3659973 .12461853 .35099793 .029556275 .2939911-.00047302247 .24899292-.00047302247Z"/>
<path id="font_2_1" d="M.6589966 .23046875C.6759949 .23046875 .69400027 .23046875 .69400027 .25045777 .69400027 .27046205 .6759949 .27046205 .6589966 .27046205H.117996219C.100997928 .27046205 .08299255 .27046205 .08299255 .25045777 .08299255 .23046875 .100997928 .23046875 .117996219 .23046875H.6589966Z"/>
<path id="font_1_2" d="M.13198853 .327713V.35173036C.13198853 .6047821 .2559967 .64100649 .30699159 .64100649 .33099366 .64100649 .37298585 .634964 .394989 .6007538 .37998963 .6007538 .33999635 .6007538 .33999635 .5557556 .33999635 .524765 .3639984 .5097656 .38598634 .5097656 .4019928 .5097656 .43199159 .51875308 .43199159 .5577545 .43199159 .6178589 .3880005 .6660156 .30499269 .6660156 .1769867 .6660156 .041992189 .5367584 .041992189 .31570436 .041992189 .048553468 .1579895-.022460938 .25099183-.022460938 .3619995-.022460938 .45700074 .07156372 .45700074 .2036438 .45700074 .33070375 .36799623 .4267578 .25698854 .4267578 .18899536 .4267578 .1519928 .37573243 .13198853 .327713M.25099183 .0055389406C.18798828 .0055389406 .1579895 .06556702 .1519928 .080566409 .13398743 .127594 .13398743 .2076416 .13398743 .22564698 .13398743 .30369569 .1659851 .40374757 .2559967 .40374757 .27198792 .40374757 .31799317 .40374757 .34899903 .34172059 .36698915 .30470277 .36698915 .2536621 .36698915 .20463562 .36698915 .15661621 .36698915 .10658264 .34999085 .0705719 .31999208 .010528564 .27398683 .0055389406 .25099183 .0055389406Z"/>
</defs>
<path transform="matrix(1,0,0,-1.00003,100.579,15.970909)" stroke-width=".3985" stroke-linecap="butt" stroke-miterlimit="10" stroke-linejoin="miter" fill="none" stroke="#000000" d="M-98.75554 0H98.75554"/>
<path transform="matrix(-1,-0,0,1.00003,1.8234634,15.970909)" stroke-width=".31879" stroke-linecap="round" stroke-linejoin="round" fill="none" stroke="#000000" d="M-1.19551 1.59401C-1.09587 .99626 0 .09961 .29886 0 0-.09961-1.09587-.99626-1.19551-1.59401"/>
<path transform="matrix(1,0,0,-1.00003,199.33454,15.970909)" stroke-width=".31879" stroke-linecap="round" stroke-linejoin="round" fill="none" stroke="#000000" d="M-1.19551 1.59401C-1.09587 .99626 0 .09961 .29886 0 0-.09961-1.09587-.99626-1.19551-1.59401"/>
<path transform="matrix(1,0,0,-1.00003,100.579,15.970909)" stroke-width=".3985" stroke-linecap="butt" stroke-miterlimit="10" stroke-linejoin="miter" fill="none" stroke="#000000" d="M0-2.83484V2.83484"/>
<use data-text="0" xlink:href="#font_1_1" transform="matrix(10.9091,0,0,-10.909428,97.852008,27.99027)"/>
<path transform="matrix(1,0,0,-1.00003,100.579,15.970909)" stroke-width="1.59404" stroke-linecap="butt" stroke-miterlimit="10" stroke-linejoin="miter" fill="none" stroke="#0000ff" d="M-98.00832 11.33855H82.20555"/>
<path transform="matrix(-1,-0,0,1.00003,2.5706788,4.632019)" stroke-width="1.27522" stroke-linecap="round" stroke-linejoin="round" fill="none" stroke="#0000ff" d="M-2.27148 3.02866C-2.0822 1.8929 0 .18927 .56786 0 0-.18927-2.0822-1.8929-2.27148-3.02866"/>
<path transform="matrix(1,0,0,-1.00003,100.579,15.970909)" stroke-width=".3985" stroke-linecap="butt" stroke-miterlimit="10" stroke-linejoin="miter" fill="none" stroke="#000000" d="M82.20555-2.83484V2.83484"/>
<use data-text="&#x2212;" xlink:href="#font_2_1" transform="matrix(10.9091,0,0,-10.909428,175.815,27.536255)"/>
<use data-text="6" xlink:href="#font_1_2" transform="matrix(10.9091,0,0,-10.909428,184.3,27.536255)"/>
<path transform="matrix(1,0,0,-1.00003,100.579,15.970909)" d="M85.0404 11.33855C85.0404 12.90419 83.77121 14.17339 82.20555 14.17339 80.63991 14.17339 79.37071 12.90419 79.37071 11.33855 79.37071 9.77289 80.63991 8.5037 82.20555 8.5037 83.77121 8.5037 85.0404 9.77289 85.0404 11.33855ZM82.20555 11.33855" fill="#0000ff"/>
<path transform="matrix(1,0,0,-1.00003,100.579,15.970909)" stroke-width="1.59404" stroke-linecap="butt" stroke-miterlimit="10" stroke-linejoin="miter" fill="none" stroke="#0000ff" d="M85.0404 11.33855C85.0404 12.90419 83.77121 14.17339 82.20555 14.17339 80.63991 14.17339 79.37071 12.90419 79.37071 11.33855 79.37071 9.77289 80.63991 8.5037 82.20555 8.5037 83.77121 8.5037 85.0404 9.77289 85.0404 11.33855ZM82.20555 11.33855"/>
</svg>
