<svg xmlns="http://www.w3.org/2000/svg" xmlns:xlink="http://www.w3.org/1999/xlink" xmlns:inkscape="http://www.inkscape.org/namespaces/inkscape" version="1.1" width="343" height="343" viewBox="0 0 343 343">
<defs>
<path id="font_1_1" d="M.33399964 .30233766C.33999635 .32835389 .36299134 .42037965 .43299867 .42037965 .43798829 .42037965 .46199037 .42037965 .48298646 .40734864 .45498658 .402359 .43499757 .37734986 .43499757 .35334779 .43499757 .33735658 .44599916 .31835938 .47299195 .31835938 .49499513 .31835938 .5269928 .3363495 .5269928 .37635804 .5269928 .42837525 .46798707 .4423828 .43399049 .4423828 .37599183 .4423828 .34098817 .38935853 .32899476 .36634828 .3039856 .43237306 .25 .4423828 .22099304 .4423828 .116989139 .4423828 .05999756 .3133545 .05999756 .28834535 .05999756 .27833558 .069992069 .27833558 .07199097 .27833558 .07998657 .27833558 .08299255 .28033448 .084991458 .28933717 .11898804 .39535523 .18499756 .42037965 .21899414 .42037965 .23799134 .42037965 .272995 .4113617 .272995 .35334779 .272995 .32235719 .2559967 .25532533 .21899414 .11528015 .20298767 .053268434 .16799927 .011245728 .12399292 .011245728 .117996219 .011245728 .09498596 .011245728 .07398987 .024276734 .09899902 .029266358 .12098694 .05027771 .12098694 .07827759 .12098694 .105270389 .09899902 .11328125 .083999637 .11328125 .053985597 .11328125 .0289917 .08728027 .0289917 .055267335 .0289917 .009246826 .07899475-.0107421879 .12298584-.0107421879 .18899536-.0107421879 .22499085 .059280397 .22799683 .0652771 .23999024 .028274537 .27598573-.0107421879 .33599855-.0107421879 .43899537-.0107421879 .49598695 .118270877 .49598695 .14328003 .49598695 .1532898 .4869995 .1532898 .48399354 .1532898 .47499085 .1532898 .47299195 .14929199 .47099305 .14228821 .43798829 .03527832 .36999513 .011245728 .33799745 .011245728 .29899598 .011245728 .2829895 .043273927 .2829895 .07727051 .2829895 .09927368 .2889862 .121276859 .2999878 .16529846L.33399964 .30233766Z"/>
<path id="font_1_2" d="M.48599244 .38136292C.48999024 .39537049 .48999024 .39736939 .48999024 .40437318 .48999024 .42237855 .47599793 .43138124 .46099855 .43138124 .45098878 .43138124 .43499757 .42536927 .42599488 .41036988 .42399598 .405365 .41600038 .37435914 .4119873 .35635377 .40499879 .33035279 .397995 .30334474 .3919983 .27633668L.34700013 .09628296C.34298707 .08126831 .2999878 .011245728 .23399353 .011245728 .18299866 .011245728 .17199707 .055267335 .17199707 .0922699 .17199707 .1382904 .18899536 .20030213 .22299195 .28833009 .23899842 .3293457 .24299622 .3403473 .24299622 .36035157 .24299622 .405365 .21099854 .4423828 .16099549 .4423828 .06599426 .4423828 .0289917 .29733277 .0289917 .28833009 .0289917 .27833558 .038986207 .27833558 .040985109 .27833558 .050994874 .27833558 .051986696 .28033448 .056991579 .29634095 .083999637 .3903656 .12399292 .42037965 .1579895 .42037965 .1659851 .42037965 .18299866 .42037965 .18299866 .3883667 .18299866 .36335755 .17298889 .3373413 .1659851 .31834413 .12599182 .21231079 .10798645 .1552887 .10798645 .10827637 .10798645 .019256592 .17098999-.0107421879 .22999573-.0107421879 .2689972-.0107421879 .30299378 .0062561037 .33099366 .03425598 .31799317-.017745972 .30599977-.06674194 .2659912-.11973572 .23999024-.15385437 .20199585-.18309021 .1559906-.18309021 .14199829-.18309021 .09700012-.18005371 .07998657-.14074707 .09599304-.14074707 .10899353-.14074707 .12298584-.1287384 .1329956-.11973572 .14299011-.10673523 .14299011-.08773804 .14299011-.056747438 .115997318-.052734376 .10598755-.052734376 .08299255-.052734376 .049987794-.068740848 .049987794-.11773682 .049987794-.16796875 .09399414-.20507813 .1559906-.20507813 .25898744-.20507813 .3619995-.11373901 .3899994-.00074768069L.48599244 .38136292Z"/>
</defs>
<path transform="matrix(1.00002,0,0,-1.00005,30.115624,313.0247)" stroke-width=".3985" stroke-linecap="butt" stroke-miterlimit="10" stroke-linejoin="miter" fill="none" stroke="#000000" d="M-27.88852 0H311.35664"/>
<path transform="matrix(-1.00002,-0,0,1.00005,2.2265454,313.0247)" stroke-width=".31879" stroke-linecap="round" stroke-linejoin="round" fill="none" stroke="#000000" d="M-1.19551 1.59401C-1.09587 .99626 0 .09961 .29886 0 0-.09961-1.09587-.99626-1.19551-1.59401"/>
<path transform="matrix(1.00002,0,0,-1.00005,341.4785,313.0247)" stroke-width=".31879" stroke-linecap="round" stroke-linejoin="round" fill="none" stroke="#000000" d="M-1.19551 1.59401C-1.09587 .99626 0 .09961 .29886 0 0-.09961-1.09587-.99626-1.19551-1.59401"/>
<use data-text="x" xlink:href="#font_1_1" transform="matrix(10.909318,0,0,-10.909644,324.6455,304.03425)"/>
<path transform="matrix(1.00002,0,0,-1.00005,30.115624,313.0247)" stroke-width=".3985" stroke-linecap="butt" stroke-miterlimit="10" stroke-linejoin="miter" fill="none" stroke="#000000" d="M0-27.88852V311.35664"/>
<path transform="matrix(0,1.00005,1.00002,0,30.115624,340.9146)" stroke-width=".31879" stroke-linecap="round" stroke-linejoin="round" fill="none" stroke="#000000" d="M-1.19551 1.59401C-1.09587 .99626 0 .09961 .29886 0 0-.09961-1.09587-.99626-1.19551-1.59401"/>
<path transform="matrix(0,-1.00005,-1.00002,-0,30.115624,1.6524963)" stroke-width=".31879" stroke-linecap="round" stroke-linejoin="round" fill="none" stroke="#000000" d="M-1.19551 1.59401C-1.09587 .99626 0 .09961 .29886 0 0-.09961-1.09587-.99626-1.19551-1.59401"/>
<use data-text="y" xlink:href="#font_1_2" transform="matrix(10.909318,0,0,-10.909644,38.584794,16.655884)"/>
<path transform="matrix(1.00002,0,0,-1.00005,30.115624,313.0247)" stroke-width="1.59404" stroke-linecap="butt" stroke-miterlimit="10" stroke-linejoin="miter" fill="none" stroke="#0000ff" d="M28.54611 282.27928C29.58777 276.06828 29.58777 276.06828 30.06439 273.26625 30.54103 270.4642 31.30537 266.01716 31.78201 263.2729 32.25864 260.52864 33.023 256.17408 33.49962 253.48757 33.97624 250.80106 34.7406 246.53905 35.21722 243.91033 35.69386 241.2816 36.4582 237.11248 36.93484 234.54154 37.41147 231.97061 38.17583 227.89403 38.65245 225.38083 39.12907 222.86765 39.89342 218.8836 40.37004 216.42816 40.84668 213.9727 41.61102 210.08127 42.08766 207.68354 42.56429 205.28582 43.32864 201.4869 43.80527 199.14696 44.28189 196.80702 45.04625 193.10102 45.52287 190.81888 45.99951 188.53675 46.76385 184.92325 47.2405 182.69884 47.71712 180.47444 48.48148 176.95352 48.9581 174.78685 49.43472 172.62018 50.19907 169.1918 50.67569 167.08293 51.15233 164.97405 51.91667 161.63855 52.39331 159.58748 52.86993 157.53639 53.6343 154.29343 54.11092 152.30007 54.58754 150.30672 55.3519 147.15634 55.82852 145.22072 56.30516 143.2851 57.0695 140.22731 57.54614 138.34943 58.02277 136.47154 58.78712 133.50626 59.26375 131.68618 59.74037 129.86609 60.50473 126.99371 60.98135 125.23141 61.458 123.4691 62.22234 120.68925 62.69896 118.9847 63.17558 117.28012 63.93994 114.59286 64.41656 112.94604 64.89319 111.29921 65.65755 108.70445 66.13417 107.11543 66.61081 105.5264 67.37517 103.02455 67.85179 101.4933 68.32841 99.96205 69.09277 97.55273 69.5694 96.07922 70.04602 94.6057 70.81038 92.28897 71.287 90.8732 71.76364 89.45741 72.52798 87.2332 73.00461 85.87521 73.48123 84.51721 74.24559 82.38597 74.72221 81.08572 75.19884 79.78546 75.9632 77.74635 76.43982 76.50385 76.91646 75.26132 77.68082 73.31511 78.15744 72.13045 78.63406 70.94579 79.39842 69.09248 79.87505 67.96555 80.35167 66.83861 81.11603 65.07745 81.59265 64.00826 82.06929 62.93906 82.83365 61.27086 83.31027 60.25945 83.7869 59.24805 84.55124 57.67238 85.02786 56.71869 85.50449 55.76501 86.26884 54.28192 86.74548 53.38599 87.2221 52.49004 87.98647 51.09955 88.46309 50.26134 88.93971 49.42313 89.70407 48.12514 90.1807 47.34473 90.65732 46.56432 91.42168 45.35922 91.89832 44.6366 92.37494 43.91397 93.1393 42.80136 93.61592 42.13654 94.09254 41.47171 94.85689 40.45204 95.33351 39.84496 95.81013 39.23787 96.5745 38.31033 97.05113 37.76097 97.52776 37.21162 98.29211 36.37706 98.76874 35.8855 99.24536 35.39392 100.00972 34.6519 100.48634 34.21806 100.96297 33.78423 101.72733 33.13477 102.20396 32.75868 102.68059 32.38258 103.44495 31.82565 103.92157 31.50735 104.3982 31.18906 105.16255 30.72508 105.63918 30.4645 106.1158 30.20392 106.88014 29.83205 107.35678 29.62927 107.8334 29.4265 108.59776 29.14793 109.07439 29.00294 109.55101 28.85797 110.31537 28.67155 110.79199 28.58426 111.26862 28.49695 112.03297 28.40314 112.50961 28.37361 112.98624 28.3441 113.7506 28.34319 114.22722 28.37144 114.70384 28.3997 115.4682 28.49135 115.94482 28.57735 116.42146 28.66335 117.18579 28.84749 117.66243 28.99127 118.13905 29.13506 118.90341 29.41219 119.38004 29.61371 119.85666 29.81522 120.62102 30.18448 121.09764 30.44373 121.57428 30.70299 122.33862 31.1652 122.81526 31.48225 123.29189 31.7993 124.05624 32.35406 124.53287 32.72884 125.00949 33.1036 125.77385 33.7509 126.25047 34.18347 126.72711 34.61604 127.49144 35.3562 127.96808 35.84657 128.4447 36.33694 129.20906 37.16963 129.68569 37.71773 130.16231 38.26582 130.92667 39.19112 131.40329 39.79695 131.87993 40.40277 132.64427 41.42064 133.12091 42.08421 133.59754 42.74777 134.3619 43.85815 134.83852 44.57951 135.31514 45.30089 136.0795 46.50417 136.55612 47.28331 137.03276 48.06245 137.7971 49.35826 138.27375 50.19514 138.75037 51.03203 139.51471 52.42036 139.99134 53.31505 140.46796 54.20973 141.23232 55.69101 141.70894 56.64343 142.18558 57.59586 142.94992 59.16928 143.42656 60.17943 143.90319 61.18956 144.66754 62.85597 145.14417 63.92392 145.62079 64.99185 146.38515 66.75076 146.86177 67.87645 147.33841 69.00212 148.10276 70.85358 148.57939 72.03703 149.05602 73.22049 149.82036 75.1649 150.29698 76.4061 150.7736 77.6473 151.53797 79.68384 152.01459 80.98277 152.49123 82.28171 153.25557 84.41115 153.73221 85.76794 154.20883 87.12474 154.97319 89.34708 155.44982 90.7616 155.92644 92.1761 156.6908 94.49062 157.16742 95.96286 157.64406 97.4351 158.4084 99.84264 158.88504 101.37262 159.36167 102.9026 160.12602 105.40219 160.60265 106.98997 161.07927 108.57777 161.84362 111.1707 162.32024 112.81627 162.79688 114.46184 163.56122 117.14694 164.03786 118.85019 164.51448 120.55344 165.27884 123.33109 165.75547 125.09213 166.23209 126.85318 166.99645 129.72376 167.47307 131.54257 167.9497 133.3614 168.71405 136.3245 169.19069 138.20105 169.66732 140.07762 170.43167 143.13324 170.9083 145.06761 171.38492 147.00197 172.14926 150.15053 172.62589 152.14263 173.10253 154.13472 173.86687 157.37545 174.3435 159.42527 174.82013 161.47509 175.58449 164.80878 176.06111 166.9164 176.53774 169.02402 177.3021 172.45015 177.77872 174.61557 178.25536 176.78099 179.0197 180.3001 179.49634 182.52323 179.97296 184.74637 180.73732 188.35762 181.21395 190.6385 181.69057 192.91938 182.45493 196.6236 182.93155 198.96227 183.40819 201.30095 184.17252 205.09767 184.64916 207.49408 185.12578 209.89049 185.89014 213.77974 186.36676 216.23395 186.84339 218.68816 187.60774 222.6703 188.08437 225.1823 188.561 227.69428 189.32535 231.76897 189.80199 234.33869 190.27861 236.90842 191.04297 241.07567 191.51959 243.70314 191.99622 246.3306 192.76058 250.59046 193.2372 253.27564 193.71384 255.96083 194.47817 260.3132 194.9548 263.05619 195.43143 265.79917 196.19579 270.24443 196.67241 273.0452 197.14904 275.846 198.39002 283.2423 198.19057 282.05348"/>
<path transform="matrix(-.16534332,-.98622927,-.98619976,.16534826,58.662309,30.731354)" stroke-width="1.27522" stroke-linecap="round" stroke-linejoin="round" fill="none" stroke="#0000ff" d="M-2.27148 3.02866C-2.0822 1.8929 0 .18927 .56786 0 0-.18927-2.0822-1.8929-2.27148-3.02866"/>
<path transform="matrix(.16545332,-.9862092,-.9861797,-.16545828,228.31015,30.957123)" stroke-width="1.27522" stroke-linecap="round" stroke-linejoin="round" fill="none" stroke="#0000ff" d="M-2.27148 3.02866C-2.0822 1.8929 0 .18927 .56786 0 0-.18927-2.0822-1.8929-2.27148-3.02866"/>
</svg>
