<svg xmlns="http://www.w3.org/2000/svg" xmlns:xlink="http://www.w3.org/1999/xlink" xmlns:inkscape="http://www.inkscape.org/namespaces/inkscape" version="1.1" width="343" height="344" viewBox="0 0 343 344">
<defs>
<path id="font_1_1" d="M.33399964 .30233766C.33999635 .32835389 .36299134 .42037965 .43299867 .42037965 .43798829 .42037965 .46199037 .42037965 .48298646 .40734864 .45498658 .402359 .43499757 .37734986 .43499757 .35334779 .43499757 .33735658 .44599916 .31835938 .47299195 .31835938 .49499513 .31835938 .5269928 .3363495 .5269928 .37635804 .5269928 .42837525 .46798707 .4423828 .43399049 .4423828 .37599183 .4423828 .34098817 .38935853 .32899476 .36634828 .3039856 .43237306 .25 .4423828 .22099304 .4423828 .116989139 .4423828 .05999756 .3133545 .05999756 .28834535 .05999756 .27833558 .069992069 .27833558 .07199097 .27833558 .07998657 .27833558 .08299255 .28033448 .084991458 .28933717 .11898804 .39535523 .18499756 .42037965 .21899414 .42037965 .23799134 .42037965 .272995 .4113617 .272995 .35334779 .272995 .32235719 .2559967 .25532533 .21899414 .11528015 .20298767 .053268434 .16799927 .011245728 .12399292 .011245728 .117996219 .011245728 .09498596 .011245728 .07398987 .024276734 .09899902 .029266358 .12098694 .05027771 .12098694 .07827759 .12098694 .105270389 .09899902 .11328125 .083999637 .11328125 .053985597 .11328125 .0289917 .08728027 .0289917 .055267335 .0289917 .009246826 .07899475-.0107421879 .12298584-.0107421879 .18899536-.0107421879 .22499085 .059280397 .22799683 .0652771 .23999024 .028274537 .27598573-.0107421879 .33599855-.0107421879 .43899537-.0107421879 .49598695 .118270877 .49598695 .14328003 .49598695 .1532898 .4869995 .1532898 .48399354 .1532898 .47499085 .1532898 .47299195 .14929199 .47099305 .14228821 .43798829 .03527832 .36999513 .011245728 .33799745 .011245728 .29899598 .011245728 .2829895 .043273927 .2829895 .07727051 .2829895 .09927368 .2889862 .121276859 .2999878 .16529846L.33399964 .30233766Z"/>
<path id="font_1_2" d="M.48599244 .38136292C.48999024 .39537049 .48999024 .39736939 .48999024 .40437318 .48999024 .42237855 .47599793 .43138124 .46099855 .43138124 .45098878 .43138124 .43499757 .42536927 .42599488 .41036988 .42399598 .405365 .41600038 .37435914 .4119873 .35635377 .40499879 .33035279 .397995 .30334474 .3919983 .27633668L.34700013 .09628296C.34298707 .08126831 .2999878 .011245728 .23399353 .011245728 .18299866 .011245728 .17199707 .055267335 .17199707 .0922699 .17199707 .1382904 .18899536 .20030213 .22299195 .28833009 .23899842 .3293457 .24299622 .3403473 .24299622 .36035157 .24299622 .405365 .21099854 .4423828 .16099549 .4423828 .06599426 .4423828 .0289917 .29733277 .0289917 .28833009 .0289917 .27833558 .038986207 .27833558 .040985109 .27833558 .050994874 .27833558 .051986696 .28033448 .056991579 .29634095 .083999637 .3903656 .12399292 .42037965 .1579895 .42037965 .1659851 .42037965 .18299866 .42037965 .18299866 .3883667 .18299866 .36335755 .17298889 .3373413 .1659851 .31834413 .12599182 .21231079 .10798645 .1552887 .10798645 .10827637 .10798645 .019256592 .17098999-.0107421879 .22999573-.0107421879 .2689972-.0107421879 .30299378 .0062561037 .33099366 .03425598 .31799317-.017745972 .30599977-.06674194 .2659912-.11973572 .23999024-.15385437 .20199585-.18309021 .1559906-.18309021 .14199829-.18309021 .09700012-.18005371 .07998657-.14074707 .09599304-.14074707 .10899353-.14074707 .12298584-.1287384 .1329956-.11973572 .14299011-.10673523 .14299011-.08773804 .14299011-.056747438 .115997318-.052734376 .10598755-.052734376 .08299255-.052734376 .049987794-.068740848 .049987794-.11773682 .049987794-.16796875 .09399414-.20507813 .1559906-.20507813 .25898744-.20507813 .3619995-.11373901 .3899994-.00074768069L.48599244 .38136292Z"/>
<path id="font_2_1" d="M.13198853 .327713V.35173036C.13198853 .6047821 .2559967 .64100649 .30699159 .64100649 .33099366 .64100649 .37298585 .634964 .394989 .6007538 .37998963 .6007538 .33999635 .6007538 .33999635 .5557556 .33999635 .524765 .3639984 .5097656 .38598634 .5097656 .4019928 .5097656 .43199159 .51875308 .43199159 .5577545 .43199159 .6178589 .3880005 .6660156 .30499269 .6660156 .1769867 .6660156 .041992189 .5367584 .041992189 .31570436 .041992189 .048553468 .1579895-.022460938 .25099183-.022460938 .3619995-.022460938 .45700074 .07156372 .45700074 .2036438 .45700074 .33070375 .36799623 .4267578 .25698854 .4267578 .18899536 .4267578 .1519928 .37573243 .13198853 .327713M.25099183 .0055389406C.18798828 .0055389406 .1579895 .06556702 .1519928 .080566409 .13398743 .127594 .13398743 .2076416 .13398743 .22564698 .13398743 .30369569 .1659851 .40374757 .2559967 .40374757 .27198792 .40374757 .31799317 .40374757 .34899903 .34172059 .36698915 .30470277 .36698915 .2536621 .36698915 .20463562 .36698915 .15661621 .36698915 .10658264 .34999085 .0705719 .31999208 .010528564 .27398683 .0055389406 .25099183 .0055389406Z"/>
<path id="font_2_2" d="M.16299439 .4569702C.116989139 .486969 .11299133 .52098086 .11299133 .5379791 .11299133 .598999 .17799378 .64100649 .24899292 .64100649 .32199098 .64100649 .38598634 .58898928 .38598634 .51698306 .38598634 .45996095 .34700013 .4119568 .2869873 .37695313L.16299439 .4569702M.30899049 .36193849C.3809967 .3989563 .42999269 .45095826 .42999269 .51698306 .42999269 .6090088 .34098817 .6660156 .25 .6660156 .1499939 .6660156 .068984989 .59199526 .068984989 .49897767 .068984989 .4809723 .070999149 .43595887 .11299133 .38894654 .12399292 .37695313 .16099549 .35194398 .18598938 .33494569 .12799073 .30592347 .041992189 .24984741 .041992189 .15072632 .041992189 .04458618 .14399719-.022460938 .24899292-.022460938 .3619995-.022460938 .45700074 .06060791 .45700074 .16773987 .45700074 .20379639 .44599916 .24885559 .4079895 .2909088 .3889923 .31193543 .37298585 .3219452 .30899049 .36193849M.20899964 .3199463 .33198548 .24183655C.3600006 .2228241 .40699769 .19277954 .40699769 .13169861 .40699769 .05760193 .33198548 .0055389406 .25 .0055389406 .1639862 .0055389406 .09199524 .067611698 .09199524 .15072632 .09199524 .20880127 .12399292 .27288819 .20899964 .3199463Z"/>
</defs>
<path transform="matrix(1.00002,0,0,-1.00008,30.115624,313.03355)" stroke-width=".3985" stroke-linecap="butt" stroke-miterlimit="10" stroke-linejoin="miter" fill="none" stroke="#000000" d="M-27.88852 0H311.35664"/>
<path transform="matrix(-1.00002,-0,0,1.00008,2.2265454,313.03355)" stroke-width=".31879" stroke-linecap="round" stroke-linejoin="round" fill="none" stroke="#000000" d="M-1.19551 1.59401C-1.09587 .99626 0 .09961 .29886 0 0-.09961-1.09587-.99626-1.19551-1.59401"/>
<path transform="matrix(1.00002,0,0,-1.00008,341.4785,313.03355)" stroke-width=".31879" stroke-linecap="round" stroke-linejoin="round" fill="none" stroke="#000000" d="M-1.19551 1.59401C-1.09587 .99626 0 .09961 .29886 0 0-.09961-1.09587-.99626-1.19551-1.59401"/>
<use data-text="x" xlink:href="#font_1_1" transform="matrix(10.909318,0,0,-10.909972,324.6455,304.04283)"/>
<path transform="matrix(1.00002,0,0,-1.00008,30.115624,313.03355)" stroke-width=".3985" stroke-linecap="butt" stroke-miterlimit="10" stroke-linejoin="miter" fill="none" stroke="#000000" d="M0-27.88852V311.35664"/>
<path transform="matrix(0,1.00008,1.00002,0,30.115624,340.9243)" stroke-width=".31879" stroke-linecap="round" stroke-linejoin="round" fill="none" stroke="#000000" d="M-1.19551 1.59401C-1.09587 .99626 0 .09961 .29886 0 0-.09961-1.09587-.99626-1.19551-1.59401"/>
<path transform="matrix(0,-1.00008,-1.00002,-0,30.115624,1.652008)" stroke-width=".31879" stroke-linecap="round" stroke-linejoin="round" fill="none" stroke="#000000" d="M-1.19551 1.59401C-1.09587 .99626 0 .09961 .29886 0 0-.09961-1.09587-.99626-1.19551-1.59401"/>
<use data-text="y" xlink:href="#font_1_2" transform="matrix(10.909318,0,0,-10.909972,38.584794,16.655823)"/>
<path transform="matrix(1.00002,0,0,-1.00008,30.115624,313.03355)" stroke-width=".3985" stroke-linecap="butt" stroke-miterlimit="10" stroke-linejoin="miter" fill="none" stroke="#000000" d="M170.08086-2.83484V2.83484"/>
<use data-text="6" xlink:href="#font_2_1" transform="matrix(10.909318,0,0,-10.909972,197.47299,327.88874)"/>
<path transform="matrix(1.00002,0,0,-1.00008,30.115624,313.03355)" stroke-width=".3985" stroke-linecap="butt" stroke-miterlimit="10" stroke-linejoin="miter" fill="none" stroke="#000000" d="M226.77448-2.83484V2.83484"/>
<use data-text="8" xlink:href="#font_2_2" transform="matrix(10.909318,0,0,-10.909972,254.16712,327.88874)"/>
<path transform="matrix(1.00002,0,0,-1.00008,30.115624,313.03355)" stroke-width="1.59404" stroke-linecap="butt" stroke-miterlimit="10" stroke-linejoin="miter" fill="none" stroke="#0000ff" d="M127.79811 147.63893C128.38785 144.70488 128.38785 144.70488 128.70555 143.14194 129.02326 141.57901 129.53278 139.09334 129.8505 137.55614 130.1682 136.01895 130.6777 133.5745 130.9954 132.06293 131.31311 130.55136 131.82265 128.14775 132.14035 126.66182 132.45806 125.17587 132.96756 122.81354 133.28527 121.35329 133.60298 119.89302 134.11249 117.57187 134.43019 116.1373 134.7479 114.70273 135.25742 112.42276 135.57514 111.01389 135.89284 109.60501 136.40235 107.36629 136.72005 105.98303 137.03775 104.59978 137.54729 102.40189 137.86499 101.04433 138.1827 99.68675 138.6922 97.53047 139.0099 96.1986 139.32762 94.86673 139.83715 92.75127 140.15485 91.445 140.47255 90.13873 140.98206 88.06454 141.29978 86.78398 141.61748 85.50342 142.12699 83.47046 142.44469 82.21552 142.76239 80.96057 143.27193 78.96843 143.58963 77.73917 143.90734 76.5099 144.41684 74.5594 144.73455 73.35583 145.05225 72.15227 145.56179 70.24255 145.87949 69.06462 146.19719 67.88667 146.7067 66.01825 147.0244 64.86598 147.34212 63.71371 147.85163 61.88647 148.16933 60.7599 148.48703 59.63333 148.99655 57.84732 149.31427 56.74638 149.63198 55.64543 150.14148 53.90025 150.45919 52.82498 150.77689 51.74971 151.28643 50.04617 151.60413 48.9966 151.92183 47.94702 152.43134 46.28427 152.74904 45.26033 153.06676 44.23637 153.57627 42.6149 153.89397 41.61662 154.21167 40.61836 154.72119 39.03807 155.03891 38.06549 155.35662 37.09291 155.86612 35.55386 156.18383 34.60692 156.50153 33.65997 157.01107 32.16174 157.32877 31.24046 157.64647 30.3192 158.15598 28.86261 158.47368 27.96703 158.7914 27.07144 159.30092 25.65565 159.61862 24.7857 159.93633 23.91576 160.44583 22.54123 160.76355 21.69696 161.08126 20.85268 161.59076 19.51941 161.90847 18.70076 162.22617 17.88213 162.7357 16.58965 163.0534 15.7967 163.37111 15.00375 163.88062 13.75291 164.19832 12.98564 164.51604 12.21837 165.02556 11.00835 165.34326 10.26671 165.66097 9.52507 166.17047 8.3563 166.48819 7.64034 166.8059 6.9244 167.3154 5.79681 167.6331 5.10654 167.9508 4.41626 168.46035 3.32986 168.77805 2.66528 169.09575 2.0007 169.60526 .95549 169.92296 .3166 170.24068-.32228 170.7502-1.32622 171.0679-1.93948 171.3856-2.55276 171.89511-3.51582 172.21283-4.10349 172.53054-4.69113 173.04004-5.61295 173.35774-6.1749 173.67545-6.73686 174.18498-7.61748 174.50269-8.15376 174.82039-8.69003 175.3299-9.52942 175.6476-10.04007 175.96532-10.55072 176.47484-11.34927 176.79254-11.83423 177.11025-12.31918 177.61975-13.07611 177.93747-13.5354 178.25518-13.99467 178.7647-14.71078 179.0824-15.14442 179.4001-15.57808 179.90962-16.25296 180.22733-16.66092 180.54503-17.06888 181.05454-17.70255 181.37224-18.08482 181.68994-18.46712 182.19948-19.05954 182.51718-19.41618 182.83489-19.77284 183.34439-20.32439 183.6621-20.65541 183.97982-20.98643 184.48934-21.49678 184.80704-21.80206 185.12474-22.10735 185.63425-22.57613 185.95197-22.85573 186.26967-23.13531 186.77918-23.56323 187.09688-23.81725 187.41458-24.07127 187.92412-24.4583 188.24182-24.68665 188.55953-24.91501 189.06903-25.2604 189.38674-25.46306 189.70446-25.66573 190.21398-25.97037 190.53168-26.14734 190.84938-26.3243 191.35889-26.58733 191.6766-26.73862 191.99431-26.88991 192.50382-27.1121 192.82152-27.23778 193.13922-27.36343 193.64876-27.54433 193.96646-27.64435 194.28417-27.74438 194.79367-27.88445 195.11138-27.9588 195.4291-28.03316 195.93862-28.1316 196.25632-28.18027 196.57402-28.22893 197.08353-28.28662 197.40125-28.3096 197.71895-28.3326 198.22847-28.34863 198.54618-28.34593 198.86388-28.34325 199.3734-28.31845 199.6911-28.29013 200.0088-28.26181 200.51831-28.19572 200.83602-28.14177 201.15373-28.08781 201.66326-27.98091 201.98096-27.90128 202.29866-27.82166 202.80817-27.67311 203.12589-27.5678 203.44359-27.46248 203.95311-27.27313 204.27082-27.14218 204.58852-27.01123 205.09804-26.78062 205.41574-26.624 205.73345-26.46736 206.24295-26.19557 206.56066-26.01326 206.87837-25.83093 207.3879-25.51794 207.7056-25.30995 208.0233-25.10196 208.5328-24.7477 208.85053-24.51408 209.16823-24.28046 209.67775-23.88539 209.99546-23.62607 210.31316-23.36676 210.82268-22.93007 211.14038-22.64507 211.45809-22.36008 211.96759-21.88257 212.2853-21.57195 212.60301-21.26132 213.11254-20.74251 213.43024-20.40627 213.74794-20.07 214.25745-19.51036 214.57517-19.14844 214.89287-18.7865 215.40239-18.18526 215.7201-17.79764 216.0378-17.41002 216.5473-16.76799 216.86502-16.35468 217.18273-15.94136 217.69225-15.25772 218.00995-14.81873 218.32765-14.37975 218.83718-13.65527 219.15488-13.19066 219.47258-12.72604 219.98209-11.96027 220.29979-11.47002 220.61751-10.97977 221.12703-10.17319 221.44474-9.65726 221.76244-9.14134 222.27194-8.2931 222.58966-7.7515 222.90737-7.20988 223.41689-6.32085 223.73459-5.7536 224.05229-5.18636 224.56182-4.25607 224.87952-3.66315 225.19722-3.07024 225.70673-2.0987 226.02443-1.48013 226.34215-.86157 226.85167 .15076 227.16938 .795 227.48708 1.43924 227.99658 2.49321 228.3143 3.16313 228.632 3.83305 229.14153 4.92781 229.45923 5.62341 229.77693 6.31903 230.28646 7.45538 230.60416 8.17668 230.92186 8.89798 231.43138 10.07516 231.74909 10.82208 232.0668 11.569 232.57631 12.78745 232.89402 13.56004 233.21172 14.33266 233.72122 15.59235 234.03894 16.39058 234.35665 17.18883 234.86617 18.48932 235.18387 19.31323 235.50157 20.13716 236.0111 21.47928 236.3288 22.32889 236.6465 23.1785 237.15602 24.56143 237.47373 25.43668 237.79145 26.3119 238.30095 27.73611 238.61865 28.63702 238.93636 29.53793 239.44586 31.00333 239.76358 31.92993 240.08129 32.85655 240.90851 35.31541 240.52414 34.17291"/>
<path transform="matrix(-.19700395,-.98042848,-.9803696,.19701575,157.91629,165.3828)" stroke-width="1.27522" stroke-linecap="round" stroke-linejoin="round" fill="none" stroke="#0000ff" d="M-2.27148 3.02866C-2.0822 1.8929 0 .18927 .56786 0 0-.18927-2.0822-1.8929-2.27148-3.02866"/>
<path transform="matrix(.3188564,-.9478258,-.9477689,-.31887553,270.6446,278.8579)" stroke-width="1.27522" stroke-linecap="round" stroke-linejoin="round" fill="none" stroke="#0000ff" d="M-2.27148 3.02866C-2.0822 1.8929 0 .18927 .56786 0 0-.18927-2.0822-1.8929-2.27148-3.02866"/>
</svg>
