<svg xmlns="http://www.w3.org/2000/svg" xmlns:xlink="http://www.w3.org/1999/xlink" xmlns:inkscape="http://www.inkscape.org/namespaces/inkscape" version="1.1" width="343" height="343" viewBox="0 0 343 343">
<defs>
<path id="font_1_1" d="M.33399964 .30233766C.33999635 .32835389 .36299134 .42037965 .43299867 .42037965 .43798829 .42037965 .46199037 .42037965 .48298646 .40734864 .45498658 .402359 .43499757 .37734986 .43499757 .35334779 .43499757 .33735658 .44599916 .31835938 .47299195 .31835938 .49499513 .31835938 .5269928 .3363495 .5269928 .37635804 .5269928 .42837525 .46798707 .4423828 .43399049 .4423828 .37599183 .4423828 .34098817 .38935853 .32899476 .36634828 .3039856 .43237306 .25 .4423828 .22099304 .4423828 .116989139 .4423828 .05999756 .3133545 .05999756 .28834535 .05999756 .27833558 .069992069 .27833558 .07199097 .27833558 .07998657 .27833558 .08299255 .28033448 .084991458 .28933717 .11898804 .39535523 .18499756 .42037965 .21899414 .42037965 .23799134 .42037965 .272995 .4113617 .272995 .35334779 .272995 .32235719 .2559967 .25532533 .21899414 .11528015 .20298767 .053268434 .16799927 .011245728 .12399292 .011245728 .117996219 .011245728 .09498596 .011245728 .07398987 .024276734 .09899902 .029266358 .12098694 .05027771 .12098694 .07827759 .12098694 .105270389 .09899902 .11328125 .083999637 .11328125 .053985597 .11328125 .0289917 .08728027 .0289917 .055267335 .0289917 .009246826 .07899475-.0107421879 .12298584-.0107421879 .18899536-.0107421879 .22499085 .059280397 .22799683 .0652771 .23999024 .028274537 .27598573-.0107421879 .33599855-.0107421879 .43899537-.0107421879 .49598695 .118270877 .49598695 .14328003 .49598695 .1532898 .4869995 .1532898 .48399354 .1532898 .47499085 .1532898 .47299195 .14929199 .47099305 .14228821 .43798829 .03527832 .36999513 .011245728 .33799745 .011245728 .29899598 .011245728 .2829895 .043273927 .2829895 .07727051 .2829895 .09927368 .2889862 .121276859 .2999878 .16529846L.33399964 .30233766Z"/>
<path id="font_1_2" d="M.48599244 .38136292C.48999024 .39537049 .48999024 .39736939 .48999024 .40437318 .48999024 .42237855 .47599793 .43138124 .46099855 .43138124 .45098878 .43138124 .43499757 .42536927 .42599488 .41036988 .42399598 .405365 .41600038 .37435914 .4119873 .35635377 .40499879 .33035279 .397995 .30334474 .3919983 .27633668L.34700013 .09628296C.34298707 .08126831 .2999878 .011245728 .23399353 .011245728 .18299866 .011245728 .17199707 .055267335 .17199707 .0922699 .17199707 .1382904 .18899536 .20030213 .22299195 .28833009 .23899842 .3293457 .24299622 .3403473 .24299622 .36035157 .24299622 .405365 .21099854 .4423828 .16099549 .4423828 .06599426 .4423828 .0289917 .29733277 .0289917 .28833009 .0289917 .27833558 .038986207 .27833558 .040985109 .27833558 .050994874 .27833558 .051986696 .28033448 .056991579 .29634095 .083999637 .3903656 .12399292 .42037965 .1579895 .42037965 .1659851 .42037965 .18299866 .42037965 .18299866 .3883667 .18299866 .36335755 .17298889 .3373413 .1659851 .31834413 .12599182 .21231079 .10798645 .1552887 .10798645 .10827637 .10798645 .019256592 .17098999-.0107421879 .22999573-.0107421879 .2689972-.0107421879 .30299378 .0062561037 .33099366 .03425598 .31799317-.017745972 .30599977-.06674194 .2659912-.11973572 .23999024-.15385437 .20199585-.18309021 .1559906-.18309021 .14199829-.18309021 .09700012-.18005371 .07998657-.14074707 .09599304-.14074707 .10899353-.14074707 .12298584-.1287384 .1329956-.11973572 .14299011-.10673523 .14299011-.08773804 .14299011-.056747438 .115997318-.052734376 .10598755-.052734376 .08299255-.052734376 .049987794-.068740848 .049987794-.11773682 .049987794-.16796875 .09399414-.20507813 .1559906-.20507813 .25898744-.20507813 .3619995-.11373901 .3899994-.00074768069L.48599244 .38136292Z"/>
<path id="font_2_1" d="M.13198853 .327713V.35173036C.13198853 .6047821 .2559967 .64100649 .30699159 .64100649 .33099366 .64100649 .37298585 .634964 .394989 .6007538 .37998963 .6007538 .33999635 .6007538 .33999635 .5557556 .33999635 .524765 .3639984 .5097656 .38598634 .5097656 .4019928 .5097656 .43199159 .51875308 .43199159 .5577545 .43199159 .6178589 .3880005 .6660156 .30499269 .6660156 .1769867 .6660156 .041992189 .5367584 .041992189 .31570436 .041992189 .048553468 .1579895-.022460938 .25099183-.022460938 .3619995-.022460938 .45700074 .07156372 .45700074 .2036438 .45700074 .33070375 .36799623 .4267578 .25698854 .4267578 .18899536 .4267578 .1519928 .37573243 .13198853 .327713M.25099183 .0055389406C.18798828 .0055389406 .1579895 .06556702 .1519928 .080566409 .13398743 .127594 .13398743 .2076416 .13398743 .22564698 .13398743 .30369569 .1659851 .40374757 .2559967 .40374757 .27198792 .40374757 .31799317 .40374757 .34899903 .34172059 .36698915 .30470277 .36698915 .2536621 .36698915 .20463562 .36698915 .15661621 .36698915 .10658264 .34999085 .0705719 .31999208 .010528564 .27398683 .0055389406 .25099183 .0055389406Z"/>
</defs>
<path transform="matrix(1.00002,0,0,-1.00005,30.115624,313.0247)" stroke-width=".3985" stroke-linecap="butt" stroke-miterlimit="10" stroke-linejoin="miter" fill="none" stroke="#000000" d="M-27.88852 0H311.35664"/>
<path transform="matrix(-1.00002,-0,0,1.00005,2.2265454,313.0247)" stroke-width=".31879" stroke-linecap="round" stroke-linejoin="round" fill="none" stroke="#000000" d="M-1.19551 1.59401C-1.09587 .99626 0 .09961 .29886 0 0-.09961-1.09587-.99626-1.19551-1.59401"/>
<path transform="matrix(1.00002,0,0,-1.00005,341.4785,313.0247)" stroke-width=".31879" stroke-linecap="round" stroke-linejoin="round" fill="none" stroke="#000000" d="M-1.19551 1.59401C-1.09587 .99626 0 .09961 .29886 0 0-.09961-1.09587-.99626-1.19551-1.59401"/>
<use data-text="x" xlink:href="#font_1_1" transform="matrix(10.909318,0,0,-10.909644,324.6455,304.03425)"/>
<path transform="matrix(1.00002,0,0,-1.00005,30.115624,313.0247)" stroke-width=".3985" stroke-linecap="butt" stroke-miterlimit="10" stroke-linejoin="miter" fill="none" stroke="#000000" d="M0-27.88852V311.35664"/>
<path transform="matrix(0,1.00005,1.00002,0,30.115624,340.9146)" stroke-width=".31879" stroke-linecap="round" stroke-linejoin="round" fill="none" stroke="#000000" d="M-1.19551 1.59401C-1.09587 .99626 0 .09961 .29886 0 0-.09961-1.09587-.99626-1.19551-1.59401"/>
<path transform="matrix(0,-1.00005,-1.00002,-0,30.115624,1.6524963)" stroke-width=".31879" stroke-linecap="round" stroke-linejoin="round" fill="none" stroke="#000000" d="M-1.19551 1.59401C-1.09587 .99626 0 .09961 .29886 0 0-.09961-1.09587-.99626-1.19551-1.59401"/>
<use data-text="y" xlink:href="#font_1_2" transform="matrix(10.909318,0,0,-10.909644,38.584794,16.655884)"/>
<path transform="matrix(1.00002,0,0,-1.00005,30.115624,313.0247)" stroke-width=".3985" stroke-linecap="butt" stroke-miterlimit="10" stroke-linejoin="miter" fill="none" stroke="#000000" d="M170.08086-2.83484V2.83484"/>
<use data-text="6" xlink:href="#font_2_1" transform="matrix(10.909318,0,0,-10.909644,197.47299,327.87944)"/>
<path transform="matrix(1.00002,0,0,-1.00005,30.115624,313.0247)" stroke-width="1.59404" stroke-linecap="butt" stroke-miterlimit="10" stroke-linejoin="miter" fill="none" stroke="#0000ff" d="M142.03144 27.17863C142.14749 26.72313 142.14749 26.72313 142.30628 26.12527 142.46506 25.52744 142.71974 24.59933 142.87853 24.03784 143.03731 23.47636 143.29199 22.60524 143.45078 22.07845 143.60956 21.55165 143.86423 20.7347 144.02303 20.24103 144.18181 19.74736 144.43648 18.98225 144.59526 18.5204 144.75406 18.05855 145.00873 17.34366 145.16751 16.91222 145.3263 16.48079 145.58098 15.81326 145.73976 15.41087 145.89855 15.0085 146.15323 14.3867 146.31201 14.01205 146.4708 13.6374 146.72548 13.05885 146.88426 12.71056 147.04305 12.36224 147.29773 11.82475 147.45652 11.5016 147.6153 11.17844 147.86997 10.68056 148.02877 10.38133 148.18755 10.0821 148.44222 9.6215 148.601 9.34497 148.75978 9.06844 149.01447 8.6432 149.17325 8.3882 149.33203 8.13321 149.58672 7.74174 149.7455 7.50711 149.90428 7.27246 150.15897 6.91241 150.31775 6.69696 150.47653 6.48152 150.73122 6.15157 150.89 5.9543 151.04878 5.75705 151.30345 5.45537 151.46225 5.27522 151.62104 5.09506 151.8757 4.8199 152.03449 4.65582 152.19329 4.49174 152.44795 4.24155 152.60674 4.09265 152.76552 3.94377 153.0202 3.71742 153.17899 3.5827 153.33777 3.44798 153.59246 3.2432 153.75124 3.12161 153.91002 3.00003 154.1647 2.81564 154.32349 2.70638 154.48227 2.59709 154.73696 2.43178 154.89574 2.33397 155.05452 2.23616 155.30919 2.08847 155.46799 2.00133 155.62677 1.9142 155.88144 1.7832 156.04022 1.70592 156.19902 1.62863 156.45369 1.51245 156.61248 1.44423 156.77126 1.37599 157.02594 1.27405 157.18473 1.21411 157.3435 1.15417 157.59819 1.06445 157.75698 1.01213 157.91576 .9598 158.17044 .88225 158.32923 .83696 158.488 .79166 158.74269 .72462 158.90148 .68556 159.06026 .64648 159.31493 .58871 159.47371 .55536 159.6325 .52202 159.88718 .47333 160.04596 .44505 160.20475 .4168 160.45943 .37535 160.61821 .35164 160.777 .32794 161.03168 .2939 161.19046 .27422 161.34925 .25455 161.60393 .22589 161.76271 .20976 161.9215 .19363 162.17618 .17088 162.33496 .15787 162.49375 .14485 162.74842 .1263 162.90721 .1159 163.066 .10553 163.32067 .09106 163.47945 .08302 163.63825 .07498 163.89292 .06412 164.0517 .05794 164.21048 .05177 164.46517 .04309 164.62395 .03848 164.78273 .03387 165.03742 .02788 165.1962 .02463 165.35498 .0214 165.60967 .01738 165.76845 .01512 165.92723 .01285 166.18192 .00969 166.3407 .0082 166.49948 .00671 166.75415 .0052 166.91295 .0043 167.07173 .00342 167.3264 .00224 167.48519 .00171 167.64398 .00117 167.89865 .00064 168.05744 .00041 168.21622 .00018 168.4709 .00003 168.62969 0 168.78847-.00003 169.04315 0 169.20194 0 169.36072 0 169.6154 0 169.77419 0 169.93297 0 170.18764 0 170.34642 0 170.5052 0 170.75988 0 170.91866 0 171.07746 0 171.33213-.00003 171.4909 0 171.64969 .00003 171.90438 .00018 172.06316 .00041 172.22194 .00064 172.47663 .00124 172.6354 .00171 172.79419 .00218 173.04888 .00305 173.20766 .00389 173.36644 .00471 173.62113 .00635 173.7799 .00778 173.93869 .0092 174.19336 .01205 174.35216 .01425 174.51094 .01645 174.76561 .02052 174.9244 .02377 175.08319 .02701 175.33786 .03311 175.49665 .03761 175.65543 .04211 175.91011 .05022 176.0689 .05621 176.22768 .0622 176.48236 .07295 176.64115 .08087 176.79993 .08879 177.05461 .1031 177.2134 .11331 177.37218 .1235 177.62686 .14157 177.78565 .1544 177.94443 .16724 178.1991 .18997 178.3579 .20587 178.51668 .22177 178.77135 .24963 178.93013 .26903 179.08893 .2884 179.3436 .32219 179.50238 .34558 179.66117 .36897 179.91585 .40982 180.07463 .43771 180.23342 .4656 180.4881 .51372 180.64688 .54672 180.80567 .57973 181.06035 .63696 181.21913 .67561 181.37792 .71426 181.6326 .78038 181.79138 .82526 181.95017 .87013 182.20484 .94736 182.36362 .99915 182.52242 1.05092 182.77709 1.13919 182.93587 1.19855 183.09465 1.25789 183.34934 1.3593 183.50812 1.42693 183.6669 1.49455 183.92159 1.60944 184.08037 1.68602 184.23915 1.76259 184.49384 1.89244 184.65262 1.97885 184.8114 2.06526 185.06609 2.21184 185.22487 2.30887 185.38365 2.4059 185.63832 2.56989 185.79712 2.67827 185.9559 2.78664 186.21057 2.9694 186.36936 3.09004 186.52816 3.21066 186.78282 3.41383 186.9416 3.54767 187.10039 3.68149 187.35507 3.90668 187.51386 4.0546 187.67264 4.20253 187.92733 4.45099 188.0861 4.61388 188.24489 4.77675 188.49958 5.0496 188.65836 5.2285 188.81714 5.4074 189.07183 5.70728 189.2306 5.90327 189.38939 6.09927 189.64406 6.42705 189.80286 6.64117 189.96164 6.8553 190.21631 7.2133 190.37509 7.44656 190.53388 7.67982 190.78856 8.0689 190.94734 8.32245 191.10613 8.576 191.36081 8.99907 191.51959 9.27403 191.67838 9.54901 191.93306 10.0068 192.09185 10.30434 192.25063 10.60187 192.50531 11.09718 192.6641 11.41855 192.82288 11.73991 193.07756 12.27412 193.23635 12.62059 193.39513 12.96704 193.6498 13.54286 193.80858 13.91559 193.96738 14.28833 194.22205 14.9068 194.38083 15.30708 194.53961 15.70737 194.7943 16.37129 194.95308 16.80063 195.11186 17.22997 195.36655 17.94188 195.52533 18.40146 195.68412 18.86102 195.9388 19.62167 196.09758 20.113 196.25637 20.60432 196.51105 21.41818 196.66983 21.94263 196.82862 22.46709 197.08329 23.334 197.24208 23.89296 197.40087 24.45192 197.65554 25.37616 197.81432 25.9713 197.97312 26.56644 198.38655 28.18242 198.08785 27.01457"/>
<path transform="matrix(-.24670495,-.9690884,-.9690594,.24671233,172.1499,285.84474)" stroke-width="1.27522" stroke-linecap="round" stroke-linejoin="round" fill="none" stroke="#0000ff" d="M-2.27148 3.02866C-2.0822 1.8929 0 .18927 .56786 0 0-.18927-2.0822-1.8929-2.27148-3.02866"/>
<path transform="matrix(.24779496,-.9688184,-.96878948,-.24780238,228.20743,286.00877)" stroke-width="1.27522" stroke-linecap="round" stroke-linejoin="round" fill="none" stroke="#0000ff" d="M-2.27148 3.02866C-2.0822 1.8929 0 .18927 .56786 0 0-.18927-2.0822-1.8929-2.27148-3.02866"/>
</svg>
