<svg xmlns="http://www.w3.org/2000/svg" xmlns:xlink="http://www.w3.org/1999/xlink" xmlns:inkscape="http://www.inkscape.org/namespaces/inkscape" version="1.1" width="343" height="343" viewBox="0 0 343 343">
<defs>
<path id="font_1_1" d="M.33399964 .30233766C.33999635 .32835389 .36299134 .42037965 .43299867 .42037965 .43798829 .42037965 .46199037 .42037965 .48298646 .40734864 .45498658 .402359 .43499757 .37734986 .43499757 .35334779 .43499757 .33735658 .44599916 .31835938 .47299195 .31835938 .49499513 .31835938 .5269928 .3363495 .5269928 .37635804 .5269928 .42837525 .46798707 .4423828 .43399049 .4423828 .37599183 .4423828 .34098817 .38935853 .32899476 .36634828 .3039856 .43237306 .25 .4423828 .22099304 .4423828 .116989139 .4423828 .05999756 .3133545 .05999756 .28834535 .05999756 .27833558 .069992069 .27833558 .07199097 .27833558 .07998657 .27833558 .08299255 .28033448 .084991458 .28933717 .11898804 .39535523 .18499756 .42037965 .21899414 .42037965 .23799134 .42037965 .272995 .4113617 .272995 .35334779 .272995 .32235719 .2559967 .25532533 .21899414 .11528015 .20298767 .053268434 .16799927 .011245728 .12399292 .011245728 .117996219 .011245728 .09498596 .011245728 .07398987 .024276734 .09899902 .029266358 .12098694 .05027771 .12098694 .07827759 .12098694 .105270389 .09899902 .11328125 .083999637 .11328125 .053985597 .11328125 .0289917 .08728027 .0289917 .055267335 .0289917 .009246826 .07899475-.0107421879 .12298584-.0107421879 .18899536-.0107421879 .22499085 .059280397 .22799683 .0652771 .23999024 .028274537 .27598573-.0107421879 .33599855-.0107421879 .43899537-.0107421879 .49598695 .118270877 .49598695 .14328003 .49598695 .1532898 .4869995 .1532898 .48399354 .1532898 .47499085 .1532898 .47299195 .14929199 .47099305 .14228821 .43798829 .03527832 .36999513 .011245728 .33799745 .011245728 .29899598 .011245728 .2829895 .043273927 .2829895 .07727051 .2829895 .09927368 .2889862 .121276859 .2999878 .16529846L.33399964 .30233766Z"/>
<path id="font_1_2" d="M.48599244 .38136292C.48999024 .39537049 .48999024 .39736939 .48999024 .40437318 .48999024 .42237855 .47599793 .43138124 .46099855 .43138124 .45098878 .43138124 .43499757 .42536927 .42599488 .41036988 .42399598 .405365 .41600038 .37435914 .4119873 .35635377 .40499879 .33035279 .397995 .30334474 .3919983 .27633668L.34700013 .09628296C.34298707 .08126831 .2999878 .011245728 .23399353 .011245728 .18299866 .011245728 .17199707 .055267335 .17199707 .0922699 .17199707 .1382904 .18899536 .20030213 .22299195 .28833009 .23899842 .3293457 .24299622 .3403473 .24299622 .36035157 .24299622 .405365 .21099854 .4423828 .16099549 .4423828 .06599426 .4423828 .0289917 .29733277 .0289917 .28833009 .0289917 .27833558 .038986207 .27833558 .040985109 .27833558 .050994874 .27833558 .051986696 .28033448 .056991579 .29634095 .083999637 .3903656 .12399292 .42037965 .1579895 .42037965 .1659851 .42037965 .18299866 .42037965 .18299866 .3883667 .18299866 .36335755 .17298889 .3373413 .1659851 .31834413 .12599182 .21231079 .10798645 .1552887 .10798645 .10827637 .10798645 .019256592 .17098999-.0107421879 .22999573-.0107421879 .2689972-.0107421879 .30299378 .0062561037 .33099366 .03425598 .31799317-.017745972 .30599977-.06674194 .2659912-.11973572 .23999024-.15385437 .20199585-.18309021 .1559906-.18309021 .14199829-.18309021 .09700012-.18005371 .07998657-.14074707 .09599304-.14074707 .10899353-.14074707 .12298584-.1287384 .1329956-.11973572 .14299011-.10673523 .14299011-.08773804 .14299011-.056747438 .115997318-.052734376 .10598755-.052734376 .08299255-.052734376 .049987794-.068740848 .049987794-.11773682 .049987794-.16796875 .09399414-.20507813 .1559906-.20507813 .25898744-.20507813 .3619995-.11373901 .3899994-.00074768069L.48599244 .38136292Z"/>
<path id="font_2_1" d="M.13198853 .327713V.35173036C.13198853 .6047821 .2559967 .64100649 .30699159 .64100649 .33099366 .64100649 .37298585 .634964 .394989 .6007538 .37998963 .6007538 .33999635 .6007538 .33999635 .5557556 .33999635 .524765 .3639984 .5097656 .38598634 .5097656 .4019928 .5097656 .43199159 .51875308 .43199159 .5577545 .43199159 .6178589 .3880005 .6660156 .30499269 .6660156 .1769867 .6660156 .041992189 .5367584 .041992189 .31570436 .041992189 .048553468 .1579895-.022460938 .25099183-.022460938 .3619995-.022460938 .45700074 .07156372 .45700074 .2036438 .45700074 .33070375 .36799623 .4267578 .25698854 .4267578 .18899536 .4267578 .1519928 .37573243 .13198853 .327713M.25099183 .0055389406C.18798828 .0055389406 .1579895 .06556702 .1519928 .080566409 .13398743 .127594 .13398743 .2076416 .13398743 .22564698 .13398743 .30369569 .1659851 .40374757 .2559967 .40374757 .27198792 .40374757 .31799317 .40374757 .34899903 .34172059 .36698915 .30470277 .36698915 .2536621 .36698915 .20463562 .36698915 .15661621 .36698915 .10658264 .34999085 .0705719 .31999208 .010528564 .27398683 .0055389406 .25099183 .0055389406Z"/>
</defs>
<path transform="matrix(1.00002,0,0,-1.00005,30.115624,313.0247)" stroke-width=".3985" stroke-linecap="butt" stroke-miterlimit="10" stroke-linejoin="miter" fill="none" stroke="#000000" d="M-27.88852 0H311.35664"/>
<path transform="matrix(-1.00002,-0,0,1.00005,2.2265454,313.0247)" stroke-width=".31879" stroke-linecap="round" stroke-linejoin="round" fill="none" stroke="#000000" d="M-1.19551 1.59401C-1.09587 .99626 0 .09961 .29886 0 0-.09961-1.09587-.99626-1.19551-1.59401"/>
<path transform="matrix(1.00002,0,0,-1.00005,341.4785,313.0247)" stroke-width=".31879" stroke-linecap="round" stroke-linejoin="round" fill="none" stroke="#000000" d="M-1.19551 1.59401C-1.09587 .99626 0 .09961 .29886 0 0-.09961-1.09587-.99626-1.19551-1.59401"/>
<use data-text="x" xlink:href="#font_1_1" transform="matrix(10.909318,0,0,-10.909644,324.6455,304.03425)"/>
<path transform="matrix(1.00002,0,0,-1.00005,30.115624,313.0247)" stroke-width=".3985" stroke-linecap="butt" stroke-miterlimit="10" stroke-linejoin="miter" fill="none" stroke="#000000" d="M0-27.88852V311.35664"/>
<path transform="matrix(0,1.00005,1.00002,0,30.115624,340.9146)" stroke-width=".31879" stroke-linecap="round" stroke-linejoin="round" fill="none" stroke="#000000" d="M-1.19551 1.59401C-1.09587 .99626 0 .09961 .29886 0 0-.09961-1.09587-.99626-1.19551-1.59401"/>
<path transform="matrix(0,-1.00005,-1.00002,-0,30.115624,1.6524963)" stroke-width=".31879" stroke-linecap="round" stroke-linejoin="round" fill="none" stroke="#000000" d="M-1.19551 1.59401C-1.09587 .99626 0 .09961 .29886 0 0-.09961-1.09587-.99626-1.19551-1.59401"/>
<use data-text="y" xlink:href="#font_1_2" transform="matrix(10.909318,0,0,-10.909644,38.584794,16.655884)"/>
<path transform="matrix(1.00002,0,0,-1.00005,30.115624,313.0247)" stroke-width=".3985" stroke-linecap="butt" stroke-miterlimit="10" stroke-linejoin="miter" fill="none" stroke="#000000" d="M170.08086-2.83484V2.83484"/>
<use data-text="6" xlink:href="#font_2_1" transform="matrix(10.909318,0,0,-10.909644,197.47299,327.87944)"/>
<path transform="matrix(1.00002,0,0,-1.00005,30.115624,313.0247)" stroke-width="1.59404" stroke-linecap="butt" stroke-miterlimit="10" stroke-linejoin="miter" fill="none" stroke="#0000ff" d="M127.94395 62.63742C128.18097 61.93085 128.18097 61.93085 128.41922 61.23048 128.65747 60.53014 129.03955 59.41847 129.2778 58.73259 129.51604 58.0467 129.89815 56.95851 130.1364 56.28702 130.37464 55.61554 130.75675 54.54996 130.99498 53.89291 131.23323 53.23589 131.61531 52.19415 131.85356 51.55159 132.09181 50.90903 132.4739 49.8899 132.71216 49.26173 132.9504 48.63358 133.3325 47.63795 133.57074 47.02422 133.80899 46.41046 134.1911 45.43752 134.42934 44.83817 134.66759 44.23882 135.04967 43.28928 135.28792 42.70447 135.52617 42.11964 135.90827 41.19351 136.14652 40.62308 136.38475 40.05266 136.76686 39.1492 137.0051 38.5932 137.24335 38.03719 137.62543 37.15718 137.86368 36.61563 138.10193 36.07408 138.48403 35.21706 138.72228 34.68997 138.96051 34.16287 139.34262 33.32933 139.58086 32.81664 139.8191 32.30396 140.2012 31.49307 140.43944 30.9948 140.67769 30.4965 141.05979 29.70909 141.29804 29.22528 141.53629 28.74146 141.91838 27.9771 142.15663 27.50768 142.39487 27.03825 142.77698 26.29692 143.01522 25.84196 143.25347 25.38702 143.63555 24.6691 143.8738 24.2286 144.11205 23.78812 144.49414 23.09325 144.73239 22.66714 144.97063 22.24104 145.35274 21.56926 145.59099 21.15758 145.82923 20.7459 146.21132 20.09715 146.44956 19.69994 146.6878 19.3027 147.0699 18.67743 147.30815 18.29462 147.5464 17.9118 147.9285 17.30919 148.16675 16.94078 148.40499 16.57236 148.78708 15.99316 149.02532 15.63925 149.26357 15.28535 149.64568 14.72958 149.88391 14.39009 150.12216 14.0506 150.50426 13.51749 150.74251 13.1924 150.98076 12.8673 151.36284 12.35765 151.60109 12.04703 151.83933 11.7364 152.22144 11.2498 152.45967 10.95358 152.69792 10.65735 153.08002 10.19379 153.31827 9.91203 153.55652 9.63028 153.93862 9.19011 154.17687 8.9228 154.4151 8.65552 154.7972 8.23839 155.03543 7.9855 155.27368 7.73262 155.65579 7.33858 155.89403 7.1001 156.13228 6.8616 156.51438 6.49068 156.75263 6.2666 156.99088 6.04253 157.37296 5.69463 157.6112 5.485 157.84944 5.27538 158.23155 4.9509 158.46979 4.75574 158.70804 4.56058 159.09014 4.25912 159.32839 4.07838 159.56664 3.89763 159.94872 3.61923 160.18697 3.45294 160.4252 3.28665 160.80731 3.03171 161.04557 2.87982 161.2838 2.72794 161.66591 2.49567 161.90415 2.35818 162.1424 2.2207 162.52449 2.01186 162.76274 1.88889 163.00099 1.76591 163.38307 1.58046 163.62133 1.47191 163.85956 1.36336 164.24167 1.20056 164.4799 1.10643 164.71816 1.01228 165.10025 .87296 165.3385 .79326 165.57675 .71358 165.95883 .59729 166.19709 .532 166.43534 .4667 166.81743 .37354 167.05568 .32265 167.29392 .27177 167.67603 .20163 167.91426 .1652 168.15251 .12878 168.53459 .08205 168.77285 .0601 169.0111 .03815 169.39319 .01447 169.63144 .00691 169.86968-.00063 170.25179-.00127 170.49002 .0056 170.72827 .01248 171.11037 .03535 171.3486 .05666 171.58686 .07794 171.96895 .12346 172.2072 .15916 172.44545 .19485 172.82755 .26384 173.0658 .31401 173.30403 .36417 173.68614 .45615 173.92438 .52077 174.16263 .58539 174.54471 .70082 174.78296 .77986 175.02121 .85889 175.4033 .99698 175.64156 1.09041 175.87979 1.18385 176.2619 1.34541 176.50016 1.45332 176.73839 1.56122 177.12049 1.74576 177.35872 1.86812 177.59697 1.99048 177.97907 2.19844 178.21732 2.33527 178.45557 2.47208 178.83766 2.70313 179.07592 2.8543 179.31415 3.00546 179.69625 3.25919 179.93448 3.42482 180.17273 3.59044 180.55483 3.86801 180.79308 4.04811 181.03133 4.22821 181.41342 4.52837 181.65167 4.72287 181.88993 4.91736 182.27202 5.24106 182.51027 5.44997 182.7485 5.65887 183.1306 6.00517 183.36884 6.22853 183.60709 6.45189 183.98918 6.82205 184.22743 7.05986 184.46569 7.29768 184.84778 7.69044 185.08603 7.94267 185.32427 8.1949 185.70636 8.6112 185.9446 8.87782 186.18285 9.14445 186.56496 9.58334 186.80319 9.86446 187.04145 10.14555 187.42354 10.60828 187.66179 10.90384 187.90004 11.1994 188.28212 11.6848 188.52037 11.9947 188.7586 12.30461 189.14072 12.8131 189.37895 13.13747 189.6172 13.46184 189.9993 13.99373 190.23755 14.33257 190.4758 14.6714 190.85788 15.22627 191.09613 15.57957 191.33437 15.93286 191.71648 16.51123 191.95473 16.87892 192.19297 17.24661 192.57508 17.84763 192.81331 18.22974 193.05156 18.61183 193.43366 19.23633 193.6719 19.63289 193.91016 20.02945 194.29224 20.67691 194.53049 21.08795 194.76873 21.49898 195.15084 22.1699 195.38907 22.59534 195.62732 23.02075 196.00942 23.71437 196.24767 24.1542 196.48592 24.59404 196.868 25.31113 197.10625 25.76541 197.34449 26.21971 197.7266 26.95982 197.96485 27.42851 198.20308 27.8972 198.58519 28.66035 198.82343 29.14352 199.06168 29.6267 199.44376 30.41325 199.682 30.91087 199.92026 31.4085 200.30236 32.21811 200.5406 32.73013 200.77884 33.24217 201.16095 34.07486 201.39919 34.60129 201.63744 35.12772 202.01955 35.98352 202.25778 36.52435 202.49604 37.0652 202.87812 37.94403 203.11637 38.49933 203.35462 39.05463 203.73671 39.95686 203.97496 40.52663 204.2132 41.0964 204.5953 42.02162 204.83354 42.60585 205.0718 43.19008 205.45388 44.13876 205.69213 44.7374 205.93038 45.33601 206.31247 46.30737 206.55072 46.92041 206.78896 47.53345 207.17107 48.52827 207.40932 49.15578 207.64756 49.78326 208.02965 50.80113 208.26789 51.44302 208.50614 52.08493 208.88823 53.12582 209.12648 53.7822 209.36473 54.43855 209.74683 55.50291 209.98508 56.17369 210.22332 56.84447 210.60543 57.93149 210.84366 58.61667 211.08191 59.30183 211.46399 60.41228 211.70224 61.11197 211.94049 61.81168 212.56084 63.65964 212.17733 62.51682"/>
<path transform="matrix(-.31798638,-.9481073,-.948079,.31799589,158.06217,250.38414)" stroke-width="1.27522" stroke-linecap="round" stroke-linejoin="round" fill="none" stroke="#0000ff" d="M-2.27148 3.02866C-2.0822 1.8929 0 .18927 .56786 0 0-.18927-2.0822-1.8929-2.27148-3.02866"/>
<path transform="matrix(.3181564,-.94804736,-.948019,-.3181659,242.29718,250.50475)" stroke-width="1.27522" stroke-linecap="round" stroke-linejoin="round" fill="none" stroke="#0000ff" d="M-2.27148 3.02866C-2.0822 1.8929 0 .18927 .56786 0 0-.18927-2.0822-1.8929-2.27148-3.02866"/>
</svg>
