<svg xmlns="http://www.w3.org/2000/svg" xmlns:xlink="http://www.w3.org/1999/xlink" xmlns:inkscape="http://www.inkscape.org/namespaces/inkscape" version="1.1" width="303" height="304" viewBox="0 0 303 304">
<defs>
<path id="font_1_2" d="M.33399964 .30233766C.33999635 .32835389 .36299134 .42037965 .43299867 .42037965 .43798829 .42037965 .46199037 .42037965 .48298646 .40734864 .45498658 .402359 .43499757 .37734986 .43499757 .35334779 .43499757 .33735658 .44599916 .31835938 .47299195 .31835938 .49499513 .31835938 .5269928 .3363495 .5269928 .37635804 .5269928 .42837525 .46798707 .4423828 .43399049 .4423828 .37599183 .4423828 .34098817 .38935853 .32899476 .36634828 .3039856 .43237306 .25 .4423828 .22099304 .4423828 .116989139 .4423828 .05999756 .3133545 .05999756 .28834535 .05999756 .27833558 .069992069 .27833558 .07199097 .27833558 .07998657 .27833558 .08299255 .28033448 .084991458 .28933717 .11898804 .39535523 .18499756 .42037965 .21899414 .42037965 .23799134 .42037965 .272995 .4113617 .272995 .35334779 .272995 .32235719 .2559967 .25532533 .21899414 .11528015 .20298767 .053268434 .16799927 .011245728 .12399292 .011245728 .117996219 .011245728 .09498596 .011245728 .07398987 .024276734 .09899902 .029266358 .12098694 .05027771 .12098694 .07827759 .12098694 .105270389 .09899902 .11328125 .083999637 .11328125 .053985597 .11328125 .0289917 .08728027 .0289917 .055267335 .0289917 .009246826 .07899475-.0107421879 .12298584-.0107421879 .18899536-.0107421879 .22499085 .059280397 .22799683 .0652771 .23999024 .028274537 .27598573-.0107421879 .33599855-.0107421879 .43899537-.0107421879 .49598695 .118270877 .49598695 .14328003 .49598695 .1532898 .4869995 .1532898 .48399354 .1532898 .47499085 .1532898 .47299195 .14929199 .47099305 .14228821 .43798829 .03527832 .36999513 .011245728 .33799745 .011245728 .29899598 .011245728 .2829895 .043273927 .2829895 .07727051 .2829895 .09927368 .2889862 .121276859 .2999878 .16529846L.33399964 .30233766Z"/>
<path id="font_1_3" d="M.48599244 .38136292C.48999024 .39537049 .48999024 .39736939 .48999024 .40437318 .48999024 .42237855 .47599793 .43138124 .46099855 .43138124 .45098878 .43138124 .43499757 .42536927 .42599488 .41036988 .42399598 .405365 .41600038 .37435914 .4119873 .35635377 .40499879 .33035279 .397995 .30334474 .3919983 .27633668L.34700013 .09628296C.34298707 .08126831 .2999878 .011245728 .23399353 .011245728 .18299866 .011245728 .17199707 .055267335 .17199707 .0922699 .17199707 .1382904 .18899536 .20030213 .22299195 .28833009 .23899842 .3293457 .24299622 .3403473 .24299622 .36035157 .24299622 .405365 .21099854 .4423828 .16099549 .4423828 .06599426 .4423828 .0289917 .29733277 .0289917 .28833009 .0289917 .27833558 .038986207 .27833558 .040985109 .27833558 .050994874 .27833558 .051986696 .28033448 .056991579 .29634095 .083999637 .3903656 .12399292 .42037965 .1579895 .42037965 .1659851 .42037965 .18299866 .42037965 .18299866 .3883667 .18299866 .36335755 .17298889 .3373413 .1659851 .31834413 .12599182 .21231079 .10798645 .1552887 .10798645 .10827637 .10798645 .019256592 .17098999-.0107421879 .22999573-.0107421879 .2689972-.0107421879 .30299378 .0062561037 .33099366 .03425598 .31799317-.017745972 .30599977-.06674194 .2659912-.11973572 .23999024-.15385437 .20199585-.18309021 .1559906-.18309021 .14199829-.18309021 .09700012-.18005371 .07998657-.14074707 .09599304-.14074707 .10899353-.14074707 .12298584-.1287384 .1329956-.11973572 .14299011-.10673523 .14299011-.08773804 .14299011-.056747438 .115997318-.052734376 .10598755-.052734376 .08299255-.052734376 .049987794-.068740848 .049987794-.11773682 .049987794-.16796875 .09399414-.20507813 .1559906-.20507813 .25898744-.20507813 .3619995-.11373901 .3899994-.00074768069L.48599244 .38136292Z"/>
<path id="font_2_1" d="M.6589966 .23046875C.6759949 .23046875 .69400027 .23046875 .69400027 .25045777 .69400027 .27046205 .6759949 .27046205 .6589966 .27046205H.117996219C.100997928 .27046205 .08299255 .27046205 .08299255 .25045777 .08299255 .23046875 .100997928 .23046875 .117996219 .23046875H.6589966Z"/>
<path id="font_3_1" d="M.2939911 .64004519C.2939911 .66400149 .2939911 .6660156 .2709961 .6660156 .20899964 .60227969 .12098694 .60227969 .08898926 .60227969V.57128909C.10899353 .57128909 .16799927 .57128909 .21998596 .5972748V.07902527C.21998596 .042999269 .21699524 .0309906 .1269989 .0309906H.09498596V0C.12998963 .0029907227 .21699524 .0029907227 .25698854 .0029907227 .29699708 .0029907227 .38398744 .0029907227 .4189911 0V.0309906H.3869934C.29699708 .0309906 .2939911 .041992189 .2939911 .07902527V.64004519Z"/>
<path id="font_1_1" d="M.19198609 .052993776C.19198609 .08198547 .16799927 .10598755 .13899231 .10598755 .10998535 .10598755 .085998538 .08198547 .085998538 .052993776 .085998538 .023986817 .10998535 0 .13899231 0 .16799927 0 .19198609 .023986817 .19198609 .052993776Z"/>
<path id="font_3_3" d="M.2939911 .16503906V.07800293C.2939911 .041992189 .2919922 .0309906 .21798706 .0309906H.19699097V0C.23799134 .0029907227 .2899933 .0029907227 .33198548 .0029907227 .37399293 .0029907227 .4269867 .0029907227 .46798707 0V.0309906H.44699098C.37298585 .0309906 .37098695 .041992189 .37098695 .07800293V.16503906H.47099305V.19602967H.37098695V.65075686C.37098695 .67074587 .37098695 .6767578 .35499574 .6767578 .34599305 .6767578 .34298707 .6767578 .33499146 .66474917L.027999878 .19602967V.16503906H.2939911M.2999878 .19602967H.055999757L.2999878 .5688019V.19602967Z"/>
<path id="font_3_2" d="M.1269989 .07699585 .23298645 .18003845C.3889923 .31811524 .44898988 .3721466 .44898988 .47216798 .44898988 .5860901 .35899354 .6660156 .23699951 .6660156 .12399292 .6660156 .049987794 .57411196 .049987794 .48516847 .049987794 .4291687 .099990848 .4291687 .102996829 .4291687 .11999512 .4291687 .15499878 .44117738 .15499878 .48217774 .15499878 .5081787 .13699341 .5341797 .101989749 .5341797 .09399414 .5341797 .09199524 .5341797 .08898926 .5331726 .11199951 .59806826 .1659851 .63500979 .22399903 .63500979 .31498719 .63500979 .35798646 .5541382 .35798646 .47216798 .35798646 .39215089 .30799867 .31311036 .25299073 .25108338L.06098938 .036987306C.049987794 .025985718 .049987794 .023986817 .049987794 0H.42099L.44898988 .17404175H.42399598C.4189911 .14402771 .4119873 .1000061 .4019928 .084991458 .394989 .07699585 .32899476 .07699585 .30699159 .07699585H.1269989Z"/>
</defs>
<path transform="matrix(1,0,0,-1.00008,143.501,160.9626)" stroke-width=".3985" stroke-linecap="butt" stroke-miterlimit="10" stroke-linejoin="miter" fill="none" stroke="#000000" d="M-141.27576 0H141.27576"/>
<path transform="matrix(-1,-0,0,1.00008,2.2252503,160.9626)" stroke-width=".31879" stroke-linecap="round" stroke-linejoin="round" fill="none" stroke="#000000" d="M-1.19551 1.59401C-1.09587 .99626 0 .09961 .29886 0 0-.09961-1.09587-.99626-1.19551-1.59401"/>
<path transform="matrix(1,0,0,-1.00008,284.77677,160.9626)" stroke-width=".31879" stroke-linecap="round" stroke-linejoin="round" fill="none" stroke="#000000" d="M-1.19551 1.59401C-1.09587 .99626 0 .09961 .29886 0 0-.09961-1.09587-.99626-1.19551-1.59401"/>
<use data-text="x" xlink:href="#font_1_2" transform="matrix(10.9091,0,0,-10.909972,296.29103,151.97188)"/>
<path transform="matrix(1,0,0,-1.00008,143.501,160.9626)" stroke-width=".3985" stroke-linecap="butt" stroke-miterlimit="10" stroke-linejoin="miter" fill="none" stroke="#000000" d="M0-141.27576V141.27576"/>
<path transform="matrix(0,1.00008,1,0,143.501,302.24967)" stroke-width=".31879" stroke-linecap="round" stroke-linejoin="round" fill="none" stroke="#000000" d="M-1.19551 1.59401C-1.09587 .99626 0 .09961 .29886 0 0-.09961-1.09587-.99626-1.19551-1.59401"/>
<path transform="matrix(0,-1.00008,-1,-0,143.501,19.675538)" stroke-width=".31879" stroke-linecap="round" stroke-linejoin="round" fill="none" stroke="#000000" d="M-1.19551 1.59401C-1.09587 .99626 0 .09961 .29886 0 0-.09961-1.09587-.99626-1.19551-1.59401"/>
<use data-text="y" xlink:href="#font_1_3" transform="matrix(10.9091,0,0,-10.909972,151.97,6.3302309)"/>
<path transform="matrix(1,0,0,-1.00008,143.501,160.9626)" stroke-width="1.59404" stroke-linecap="butt" stroke-miterlimit="10" stroke-linejoin="miter" fill="none" stroke="#0000ff" d="M-113.1879 140.54521C-112.14626 134.33423-112.14626 134.33423-111.66962 131.5322-111.193 128.73015-110.42863 124.28308-109.95201 121.53883-109.47539 118.79459-108.71103 114.44003-108.2344 111.75352-107.75777 109.06702-106.99342 104.80501-106.51678 102.17627-106.04016 99.54755-105.2758 95.37842-104.79918 92.8075-104.32256 90.23656-103.5582 86.15997-103.08157 83.64677-102.60493 81.13359-101.8406 77.14957-101.36397 74.6941-100.88734 72.23865-100.12299 68.34721-99.64636 65.9495-99.16974 63.55176-98.40538 59.75284-97.92876 57.4129-97.45212 55.07297-96.68777 51.36696-96.21114 49.08482-95.73451 46.80269-94.97015 43.1892-94.49353 40.9648-94.0169 38.7404-93.25255 35.21948-92.77592 33.0528-92.29929 30.88612-91.53496 27.45776-91.05832 25.34888-90.5817 23.24-89.81734 19.90451-89.34071 17.85342-88.86409 15.80234-88.09973 12.55939-87.62311 10.56602-87.14647 8.57266-86.38211 5.4223-85.90549 3.48668-85.42886 1.55106-84.6645-1.5067-84.18788-3.3846-83.71126-5.26248-82.9469-8.22775-82.47028-10.04785-81.99364-11.86794-81.22928-14.7403-80.75266-16.50261-80.27603-18.26491-79.51169-21.04475-79.03506-22.74933-78.55844-24.45389-77.79408-27.14114-77.31746-28.78798-76.84082-30.43481-76.07646-33.02956-75.59984-34.61859-75.12321-36.20763-74.35886-38.70947-73.88223-40.24072-73.40561-41.77197-72.64125-44.18129-72.16463-45.6548-71.68799-47.12831-70.92363-49.44505-70.447-50.86082-69.97038-52.2766-69.20604-54.50082-68.72942-55.85881-68.25279-57.2168-67.48843-59.34804-67.01181-60.6483-66.53517-61.94856-65.77081-63.98766-65.29419-65.23018-64.81757-66.4727-64.0532-68.41891-63.57658-69.60358-63.09996-70.78824-62.3356-72.64154-61.85898-73.76848-61.38234-74.89542-60.61798-76.65656-60.14136-77.72577-59.66473-78.79497-58.90038-80.46317-58.42375-81.47456-57.94713-82.48598-57.18279-84.06165-56.70615-85.01532-56.22952-85.96901-55.46516-87.45209-54.98854-88.34804-54.51192-89.24399-53.74756-90.63448-53.27094-91.47269-52.79431-92.31088-52.02995-93.60889-51.55331-94.38928-51.07669-95.1697-50.31233-96.37479-49.83571-97.09741-49.35909-97.82004-48.59473-98.93266-48.1181-99.59749-47.64148-100.26231-46.87714-101.28197-46.4005-101.88907-45.92387-102.49615-45.15952-103.42369-44.68289-103.97304-44.20627-104.5224-43.44191-105.35695-42.96529-105.84853-42.48866-106.3401-41.7243-107.08212-41.24767-107.51596-40.77104-107.94978-40.00668-108.59924-39.53006-108.97534-39.05344-109.35144-38.28908-109.90837-37.81245-110.22667-37.33583-110.54497-36.57147-111.00894-36.09483-111.26952-35.61821-111.53009-34.85387-111.90196-34.37724-112.10475-33.90062-112.30753-33.13626-112.58609-32.65964-112.73106-32.183-112.87605-31.41866-113.06245-30.94202-113.14977-30.4654-113.23706-29.70103-113.33087-29.22441-113.3604-28.74779-113.38992-27.98343-113.39084-27.5068-113.36258-27.03017-113.33432-26.26582-113.24268-25.78918-113.15668-25.31256-113.07068-24.54822-112.88652-24.0716-112.74274-23.59497-112.59897-22.83061-112.32184-22.35399-112.12032-21.87735-111.9188-21.113-111.54955-20.63637-111.29028-20.15974-111.03104-19.39539-110.56882-18.91876-110.25177-18.44214-109.93471-17.67778-109.37996-17.20116-109.00519-16.72452-108.63042-15.96017-107.98312-15.48354-107.55055-15.00691-107.11798-14.24257-106.3778-13.76595-105.88744-13.28932-105.39708-12.52496-104.56438-12.04834-104.0163-11.5717-103.4682-10.80736-102.54291-10.33072-101.93707-9.8541-101.33124-9.08974-100.31339-8.61311-99.64981-8.13649-98.98625-7.37213-97.87587-6.89551-97.1545-6.41887-96.43314-5.65453-95.22986-5.17789-94.4507-4.70126-93.67155-3.9369-92.37576-3.46028-91.53888-2.98366-90.702-2.21931-89.31366-1.74269-88.41898-1.26605-87.52429-.50171-86.04301-.02507-85.09059 .45154-84.13817 1.21588-82.56473 1.6925-81.5546 2.16913-80.54445 2.93349-78.87804 3.41011-77.8101 3.88675-76.74216 4.6511-74.98325 5.12773-73.85757 5.60435-72.7319 6.36871-70.88045 6.84534-69.69699 7.32196-68.51353 8.0863-66.56912 8.56293-65.32793 9.03957-64.08673 9.80391-62.05019 10.28055-60.75125 10.75717-59.45232 11.52153-57.32286 11.99815-55.96608 12.47478-54.60928 13.23914-52.38693 13.71576-50.97243 14.1924-49.5579 14.95674-47.24341 15.43338-45.77116 15.91-44.2989 16.67436-41.89139 17.15099-40.3614 17.62761-38.8314 18.39197-36.33182 18.86859-34.74403 19.34523-33.15625 20.10956-30.56331 20.5862-28.91774 21.06282-27.27217 21.82718-24.58708 22.3038-22.88383 22.78043-21.18059 23.54478-18.40292 24.02141-16.64189 24.49805-14.88084 25.26239-12.01027 25.73903-10.19144 26.21565-8.37262 26.98001-5.40953 27.45663-3.53296 27.93326-1.6564 28.69762 1.3992 29.17424 3.33356 29.65088 5.26791 30.4152 8.41647 30.89185 10.40857 31.36847 12.40067 32.13283 15.6414 32.60945 17.69122 33.08607 19.74104 33.85043 23.07472 34.32706 25.18234 34.8037 27.28996 35.56804 30.71611 36.04468 32.88152 36.5213 35.04694 37.28566 38.56604 37.76228 40.78918 38.2389 43.01231 39.00327 46.62358 39.47989 48.90445 39.95653 51.18533 40.72087 54.88954 41.19751 57.22823 41.67413 59.5669 42.43848 63.36362 42.9151 65.76003 43.39172 68.15643 44.15608 72.0457 44.6327 74.49991 45.10934 76.95412 45.87369 80.93625 46.35033 83.44824 46.82695 85.96024 47.59131 90.03491 48.06793 92.60464 48.54456 95.17436 49.30891 99.34163 49.78554 101.96909 50.26218 104.59656 51.02652 108.8564 51.50316 111.5416 51.97978 114.22678 52.74413 118.57915 53.22075 121.32213 53.69737 124.06511 54.46173 128.51039 54.93835 131.31118 55.415 134.11196 56.65598 141.50824 56.45653 140.31945"/>
<path transform="matrix(-.16536,-.98625889,-.98618,.16537324,30.31311,20.406159)" stroke-width="1.27522" stroke-linecap="round" stroke-linejoin="round" fill="none" stroke="#0000ff" d="M-2.27148 3.02866C-2.0822 1.8929 0 .18927 .56786 0 0-.18927-2.0822-1.8929-2.27148-3.02866"/>
<path transform="matrix(.16545,-.98623886,-.98616,-.16546324,199.95754,20.631943)" stroke-width="1.27522" stroke-linecap="round" stroke-linejoin="round" fill="none" stroke="#0000ff" d="M-2.27148 3.02866C-2.0822 1.8929 0 .18927 .56786 0 0-.18927-2.0822-1.8929-2.27148-3.02866"/>
<path transform="matrix(1,0,0,-1.00008,143.501,160.9626)" stroke-width=".3985" stroke-linecap="butt" stroke-miterlimit="10" stroke-linejoin="miter" fill="none" stroke="#000000" d="M-85.04042 8.50412V-8.50412"/>
<use data-text="&#x2212;" xlink:href="#font_2_1" transform="matrix(10.9091,0,0,-10.909972,44.521005,188.12078)"/>
<use data-text="1" xlink:href="#font_3_1" transform="matrix(10.9091,0,0,-10.909972,53.006006,188.12078)"/>
<use data-text="1" xlink:href="#font_3_1" transform="matrix(10.9091,0,0,-10.909972,58.46055,188.12078)"/>
<use data-text="." xlink:href="#font_1_1" transform="matrix(10.9091,0,0,-10.909972,63.915,188.12078)"/>
<use data-text="4" xlink:href="#font_3_3" transform="matrix(10.9091,0,0,-10.909972,66.945,188.12078)"/>
<path transform="matrix(1,0,0,-1.00008,143.501,160.9626)" stroke-width=".3985" stroke-linecap="butt" stroke-miterlimit="10" stroke-linejoin="miter" fill="none" stroke="#000000" d="M28.3468 8.50412V-8.50412"/>
<use data-text="1" xlink:href="#font_3_1" transform="matrix(10.9091,0,0,-10.909972,164.878,188.57482)"/>
<use data-text="." xlink:href="#font_1_1" transform="matrix(10.9091,0,0,-10.909972,170.332,188.57482)"/>
<use data-text="4" xlink:href="#font_3_3" transform="matrix(10.9091,0,0,-10.909972,173.363,188.57482)"/>
<path transform="matrix(1,0,0,-1.00008,143.501,160.9626)" stroke-width=".3985" stroke-linecap="butt" stroke-miterlimit="10" stroke-linejoin="miter" fill="none" stroke="#000000" d="M-8.50412-85.04042H8.50412"/>
<use data-text="&#x2212;" xlink:href="#font_2_1" transform="matrix(10.9091,0,0,-10.909972,109.70901,249.07065)"/>
<use data-text="1" xlink:href="#font_3_1" transform="matrix(10.9091,0,0,-10.909972,118.19401,249.07065)"/>
<use data-text="2" xlink:href="#font_3_2" transform="matrix(10.9091,0,0,-10.909972,123.64855,249.07065)"/>
</svg>
