<svg xmlns="http://www.w3.org/2000/svg" xmlns:xlink="http://www.w3.org/1999/xlink" xmlns:inkscape="http://www.inkscape.org/namespaces/inkscape" version="1.1" width="343" height="356" viewBox="0 0 343 356">
<defs>
<path id="font_1_1" d="M.33399964 .30233766C.33999635 .32835389 .36299134 .42037965 .43299867 .42037965 .43798829 .42037965 .46199037 .42037965 .48298646 .40734864 .45498658 .402359 .43499757 .37734986 .43499757 .35334779 .43499757 .33735658 .44599916 .31835938 .47299195 .31835938 .49499513 .31835938 .5269928 .3363495 .5269928 .37635804 .5269928 .42837525 .46798707 .4423828 .43399049 .4423828 .37599183 .4423828 .34098817 .38935853 .32899476 .36634828 .3039856 .43237306 .25 .4423828 .22099304 .4423828 .116989139 .4423828 .05999756 .3133545 .05999756 .28834535 .05999756 .27833558 .069992069 .27833558 .07199097 .27833558 .07998657 .27833558 .08299255 .28033448 .084991458 .28933717 .11898804 .39535523 .18499756 .42037965 .21899414 .42037965 .23799134 .42037965 .272995 .4113617 .272995 .35334779 .272995 .32235719 .2559967 .25532533 .21899414 .11528015 .20298767 .053268434 .16799927 .011245728 .12399292 .011245728 .117996219 .011245728 .09498596 .011245728 .07398987 .024276734 .09899902 .029266358 .12098694 .05027771 .12098694 .07827759 .12098694 .105270389 .09899902 .11328125 .083999637 .11328125 .053985597 .11328125 .0289917 .08728027 .0289917 .055267335 .0289917 .009246826 .07899475-.0107421879 .12298584-.0107421879 .18899536-.0107421879 .22499085 .059280397 .22799683 .0652771 .23999024 .028274537 .27598573-.0107421879 .33599855-.0107421879 .43899537-.0107421879 .49598695 .118270877 .49598695 .14328003 .49598695 .1532898 .4869995 .1532898 .48399354 .1532898 .47499085 .1532898 .47299195 .14929199 .47099305 .14228821 .43798829 .03527832 .36999513 .011245728 .33799745 .011245728 .29899598 .011245728 .2829895 .043273927 .2829895 .07727051 .2829895 .09927368 .2889862 .121276859 .2999878 .16529846L.33399964 .30233766Z"/>
<path id="font_1_2" d="M.48599244 .38136292C.48999024 .39537049 .48999024 .39736939 .48999024 .40437318 .48999024 .42237855 .47599793 .43138124 .46099855 .43138124 .45098878 .43138124 .43499757 .42536927 .42599488 .41036988 .42399598 .405365 .41600038 .37435914 .4119873 .35635377 .40499879 .33035279 .397995 .30334474 .3919983 .27633668L.34700013 .09628296C.34298707 .08126831 .2999878 .011245728 .23399353 .011245728 .18299866 .011245728 .17199707 .055267335 .17199707 .0922699 .17199707 .1382904 .18899536 .20030213 .22299195 .28833009 .23899842 .3293457 .24299622 .3403473 .24299622 .36035157 .24299622 .405365 .21099854 .4423828 .16099549 .4423828 .06599426 .4423828 .0289917 .29733277 .0289917 .28833009 .0289917 .27833558 .038986207 .27833558 .040985109 .27833558 .050994874 .27833558 .051986696 .28033448 .056991579 .29634095 .083999637 .3903656 .12399292 .42037965 .1579895 .42037965 .1659851 .42037965 .18299866 .42037965 .18299866 .3883667 .18299866 .36335755 .17298889 .3373413 .1659851 .31834413 .12599182 .21231079 .10798645 .1552887 .10798645 .10827637 .10798645 .019256592 .17098999-.0107421879 .22999573-.0107421879 .2689972-.0107421879 .30299378 .0062561037 .33099366 .03425598 .31799317-.017745972 .30599977-.06674194 .2659912-.11973572 .23999024-.15385437 .20199585-.18309021 .1559906-.18309021 .14199829-.18309021 .09700012-.18005371 .07998657-.14074707 .09599304-.14074707 .10899353-.14074707 .12298584-.1287384 .1329956-.11973572 .14299011-.10673523 .14299011-.08773804 .14299011-.056747438 .115997318-.052734376 .10598755-.052734376 .08299255-.052734376 .049987794-.068740848 .049987794-.11773682 .049987794-.16796875 .09399414-.20507813 .1559906-.20507813 .25898744-.20507813 .3619995-.11373901 .3899994-.00074768069L.48599244 .38136292Z"/>
<path id="font_2_1" d="M.13198853 .327713V.35173036C.13198853 .6047821 .2559967 .64100649 .30699159 .64100649 .33099366 .64100649 .37298585 .634964 .394989 .6007538 .37998963 .6007538 .33999635 .6007538 .33999635 .5557556 .33999635 .524765 .3639984 .5097656 .38598634 .5097656 .4019928 .5097656 .43199159 .51875308 .43199159 .5577545 .43199159 .6178589 .3880005 .6660156 .30499269 .6660156 .1769867 .6660156 .041992189 .5367584 .041992189 .31570436 .041992189 .048553468 .1579895-.022460938 .25099183-.022460938 .3619995-.022460938 .45700074 .07156372 .45700074 .2036438 .45700074 .33070375 .36799623 .4267578 .25698854 .4267578 .18899536 .4267578 .1519928 .37573243 .13198853 .327713M.25099183 .0055389406C.18798828 .0055389406 .1579895 .06556702 .1519928 .080566409 .13398743 .127594 .13398743 .2076416 .13398743 .22564698 .13398743 .30369569 .1659851 .40374757 .2559967 .40374757 .27198792 .40374757 .31799317 .40374757 .34899903 .34172059 .36698915 .30470277 .36698915 .2536621 .36698915 .20463562 .36698915 .15661621 .36698915 .10658264 .34999085 .0705719 .31999208 .010528564 .27398683 .0055389406 .25099183 .0055389406Z"/>
<path id="font_2_2" d="M.16299439 .4569702C.116989139 .486969 .11299133 .52098086 .11299133 .5379791 .11299133 .598999 .17799378 .64100649 .24899292 .64100649 .32199098 .64100649 .38598634 .58898928 .38598634 .51698306 .38598634 .45996095 .34700013 .4119568 .2869873 .37695313L.16299439 .4569702M.30899049 .36193849C.3809967 .3989563 .42999269 .45095826 .42999269 .51698306 .42999269 .6090088 .34098817 .6660156 .25 .6660156 .1499939 .6660156 .068984989 .59199526 .068984989 .49897767 .068984989 .4809723 .070999149 .43595887 .11299133 .38894654 .12399292 .37695313 .16099549 .35194398 .18598938 .33494569 .12799073 .30592347 .041992189 .24984741 .041992189 .15072632 .041992189 .04458618 .14399719-.022460938 .24899292-.022460938 .3619995-.022460938 .45700074 .06060791 .45700074 .16773987 .45700074 .20379639 .44599916 .24885559 .4079895 .2909088 .3889923 .31193543 .37298585 .3219452 .30899049 .36193849M.20899964 .3199463 .33198548 .24183655C.3600006 .2228241 .40699769 .19277954 .40699769 .13169861 .40699769 .05760193 .33198548 .0055389406 .25 .0055389406 .1639862 .0055389406 .09199524 .067611698 .09199524 .15072632 .09199524 .20880127 .12399292 .27288819 .20899964 .3199463Z"/>
</defs>
<path transform="matrix(1.00002,0,0,-1.00006,30.115624,313.02967)" stroke-width=".3985" stroke-linecap="butt" stroke-miterlimit="10" stroke-linejoin="miter" fill="none" stroke="#000000" d="M-27.88852 0H311.35664"/>
<path transform="matrix(-1.00002,-0,0,1.00006,2.2265454,313.02967)" stroke-width=".31879" stroke-linecap="round" stroke-linejoin="round" fill="none" stroke="#000000" d="M-1.19551 1.59401C-1.09587 .99626 0 .09961 .29886 0 0-.09961-1.09587-.99626-1.19551-1.59401"/>
<path transform="matrix(1.00002,0,0,-1.00006,341.4785,313.02967)" stroke-width=".31879" stroke-linecap="round" stroke-linejoin="round" fill="none" stroke="#000000" d="M-1.19551 1.59401C-1.09587 .99626 0 .09961 .29886 0 0-.09961-1.09587-.99626-1.19551-1.59401"/>
<use data-text="x" xlink:href="#font_1_1" transform="matrix(10.909318,0,0,-10.909754,324.6455,304.03913)"/>
<path transform="matrix(1.00002,0,0,-1.00006,30.115624,313.02967)" stroke-width=".3985" stroke-linecap="butt" stroke-miterlimit="10" stroke-linejoin="miter" fill="none" stroke="#000000" d="M0-27.88852V311.35664"/>
<path transform="matrix(0,1.00006,1.00002,0,30.115624,340.91987)" stroke-width=".31879" stroke-linecap="round" stroke-linejoin="round" fill="none" stroke="#000000" d="M-1.19551 1.59401C-1.09587 .99626 0 .09961 .29886 0 0-.09961-1.09587-.99626-1.19551-1.59401"/>
<path transform="matrix(0,-1.00006,-1.00002,-0,30.115624,1.6543579)" stroke-width=".31879" stroke-linecap="round" stroke-linejoin="round" fill="none" stroke="#000000" d="M-1.19551 1.59401C-1.09587 .99626 0 .09961 .29886 0 0-.09961-1.09587-.99626-1.19551-1.59401"/>
<use data-text="y" xlink:href="#font_1_2" transform="matrix(10.909318,0,0,-10.909754,38.584794,16.657898)"/>
<path transform="matrix(1.00002,0,0,-1.00006,30.115624,313.02967)" stroke-width=".3985" stroke-linecap="butt" stroke-miterlimit="10" stroke-linejoin="miter" fill="none" stroke="#000000" d="M170.08086-2.83484V2.83484"/>
<use data-text="6" xlink:href="#font_2_1" transform="matrix(10.909318,0,0,-10.909754,197.47299,327.88456)"/>
<path transform="matrix(1.00002,0,0,-1.00006,30.115624,313.02967)" stroke-width=".3985" stroke-linecap="butt" stroke-miterlimit="10" stroke-linejoin="miter" fill="none" stroke="#000000" d="M226.77448-2.83484V2.83484"/>
<use data-text="8" xlink:href="#font_2_2" transform="matrix(10.909318,0,0,-10.909754,254.16712,327.88456)"/>
<path transform="matrix(1.00002,0,0,-1.00006,30.115624,313.02967)" stroke-width="1.59404" stroke-linecap="butt" stroke-miterlimit="10" stroke-linejoin="miter" fill="none" stroke="#0000ff" d="M141.96543 27.16331C142.365 25.1205 142.365 25.1205 142.60733 23.99026 142.84967 22.86003 143.2383 21.18208 143.48062 20.20038 143.72296 19.21869 144.11159 17.76376 144.35393 16.91481 144.59626 16.06586 144.98488 14.81218 145.22722 14.0817 145.46955 13.35121 145.85817 12.27573 146.10051 11.64996 146.34284 11.02422 146.73146 10.1046 146.9738 9.57161 147.21614 9.03864 147.60475 8.25984 147.84709 7.8086 148.08943 7.35736 148.47805 6.69907 148.72039 6.31937 148.96273 5.93967 149.35135 5.38914 149.59368 5.07191 149.83602 4.7547 150.22464 4.29623 150.46697 4.03297 150.7093 3.7697 151.09793 3.39108 151.34026 3.17438 151.5826 2.95767 151.97124 2.64775 152.21358 2.47107 152.4559 2.2944 152.84453 2.04375 153.08687 1.90099 153.3292 1.75822 153.71782 1.55614 153.96016 1.44206 154.20249 1.32799 154.59111 1.16887 154.83345 1.07874 155.07579 .9886 155.4644 .86272 155.70674 .79239 155.94908 .72208 156.3377 .62569 156.58003 .5718 156.82238 .51791 157.211 .44466 157.45333 .40398 157.69567 .3633 158.08429 .30872 158.32662 .27853 158.56896 .24837 158.95758 .20825 159.19992 .18642 159.44225 .16457 159.83087 .1365 160.07321 .1211 160.31554 .10568 160.70417 .08585 160.9465 .07524 161.18883 .06464 161.57747 .0516 161.81981 .04454 162.06215 .03746 162.45076 .0287 162.6931 .02422 162.93544 .01971 163.32407 .01466 163.56639 .0121 163.80873 .00952 164.19736 .00703 164.43968 .0056 164.68202 .00417 165.07065 .00249 165.31298 .00171 165.55532 .00093 165.94394 .00021 166.18628 0 166.4286-.00021 166.81723 0 167.05957 0 167.3019 0 167.69052 0 167.93286 0 168.17519 0 168.56381 0 168.80615 0 169.0485 0 169.4371 0 169.67945 0 169.92179 0 170.3104 0 170.55274 0 170.79508 0 171.18372 0 171.42604 0 171.66838 0 172.057 0 172.29933 0 172.54167 0 172.9303 0 173.17263 0 173.41497 0 173.80359 .00015 174.04593 0 174.28826-.00015 174.67688-.00069 174.91922-.00128 175.16155-.00188 175.55017-.00307 175.79251-.0043 176.03484-.00555 176.42346-.0082 176.6658-.01036 176.90814-.01251 177.29676-.01651 177.5391-.01988 177.78144-.02324 178.17006-.02956 178.41239-.03459 178.65473-.03963 179.04335-.0489 179.28568-.05621 179.52802-.06352 179.91664-.0771 180.15897-.08736 180.4013-.09763 180.78995-.11621 181.03229-.13019 181.27462-.14415 181.66324-.16966 181.90558-.18813 182.1479-.2066 182.53653-.23952 182.77887-.2634 183.0212-.28728 183.40982-.32982 183.65216-.36029 183.8945-.39078 184.28311-.44504 184.52545-.48312 184.76779-.52122 185.15642-.5882 185.39875-.63495 185.64109-.6817 186.02971-.76344 186.27204-.82008 186.51438-.87672 186.903-.97536 187.14533-1.04327 187.38767-1.11119 187.77629-1.22911 188.01863-1.30971 188.26096-1.39029 188.64958-1.52966 188.89192-1.62418 189.13425-1.71869 189.52288-1.8812 189.76522-1.99095 190.00754-2.10071 190.39617-2.2889 190.6385-2.41528 190.88085-2.54167 191.26947-2.75743 191.51181-2.90189 191.75415-3.04633 192.14276-3.29268 192.3851-3.45639 192.62744-3.6201 193.01607-3.89774 193.25839-4.08185 193.50074-4.26596 193.88936-4.5777 194.13169-4.78342 194.37403-4.98914 194.76265-5.33636 195.00498-5.56459 195.24732-5.79282 195.63594-6.17674 195.87828-6.42836 196.1206-6.67998 196.50923-7.10251 196.75157-7.3782 196.9939-7.65392 197.38253-8.1152 197.62487-8.41544 197.86719-8.71568 198.25582-9.21704 198.49816-9.5422 198.7405-9.86736 199.1291-10.409 199.37145-10.75894 199.61379-11.10887 200.00241-11.69002 200.24474-12.06433 200.48708-12.43863 200.87572-13.05867 201.11804-13.45668 201.36038-13.85468 201.74901-14.51218 201.99134-14.93292 202.23368-15.35367 202.6223-16.0472 202.86464-16.4892 203.10697-16.9312 203.49559-17.65724 203.73793-18.11856 203.98026-18.57988 204.36888-19.33594 204.61122-19.81412 204.85355-20.2923 205.24217-21.07298 205.48451-21.56503 205.72686-22.05707 206.11547-22.85818 206.3578-23.36049 206.60015-23.8628 206.98876-24.67706 207.2311-25.18536 207.47344-25.69368 207.86206-26.51465 208.10439-27.0241 208.34673-27.53354 208.73535-28.35231 208.97768-28.8572 209.22002-29.36208 209.60865-30.16913 209.85099-30.66304 210.0933-31.15695 210.48195-31.94133 210.72429-32.41698 210.96662-32.89264 211.35524-33.64218 211.59758-34.09132 211.8399-34.54047 212.22853-35.24072 212.47087-35.65408 212.71321-36.06746 213.10182-36.70319 213.34416-37.07065 213.5865-37.43811 213.97512-37.99232 214.21746-38.30252 214.4598-38.61272 214.84842-39.06586 215.09075-39.30644 215.33309-39.54703 215.72171-39.87927 215.96404-40.03656 216.20638-40.19386 216.595-40.38109 216.83733-40.44012 217.07967-40.49918 217.46829-40.51756 217.71063-40.46219 217.95296-40.4068 218.34159-40.22849 218.58393-40.0409 218.82625-39.8533 219.21488-39.44902 219.45722-39.11008 219.69954-38.77113 220.08818-38.109 220.33052-37.59792 220.57286-37.08684 220.96147-36.1321 221.20381-35.42657 221.44615-34.72105 221.83478-33.43695 222.0771-32.513 222.31945-31.58904 222.70807-29.93552 222.9504-28.76723 223.19274-27.59894 223.58136-25.53317 223.82369-24.09279 224.06603-22.6524 224.45465-20.128 224.69699-18.38588 224.93932-16.64374 225.32794-13.61209 225.57028-11.53664 225.8126-9.46118 226.20124-5.8699 226.44358-3.42741 226.6859-.98492 227.07453 3.22153 227.31687 6.0672 227.5592 8.91287 228.19016 17.08221 228.09735 15.88037"/>
<path transform="matrix(-.19196385,-.9814388,-.98139968,.19197151,172.0839,285.86476)" stroke-width="1.27522" stroke-linecap="round" stroke-linejoin="round" fill="none" stroke="#0000ff" d="M-2.27148 3.02866C-2.0822 1.8929 0 .18927 .56786 0 0-.18927-2.0822-1.8929-2.27148-3.02866"/>
<path transform="matrix(.07700154,-.99701979,-.99697998,-.07700462,258.21754,297.14836)" stroke-width="1.27522" stroke-linecap="round" stroke-linejoin="round" fill="none" stroke="#0000ff" d="M-2.27148 3.02866C-2.0822 1.8929 0 .18927 .56786 0 0-.18927-2.0822-1.8929-2.27148-3.02866"/>
</svg>
