<svg xmlns="http://www.w3.org/2000/svg" xmlns:xlink="http://www.w3.org/1999/xlink" xmlns:inkscape="http://www.inkscape.org/namespaces/inkscape" version="1.1" width="201" height="33" viewBox="0 0 201 33">
<defs>
<path id="font_1_1" d="M.45999146 .31976319C.45999146 .39982606 .45498658 .47988893 .41999818 .5539398 .37399293 .65000918 .2919922 .6660156 .25 .6660156 .18998719 .6660156 .116989139 .64001467 .07598877 .54693606 .04399109 .47789 .038986207 .39982606 .038986207 .31976319 .038986207 .24472046 .042999269 .15464783 .083999637 .07859802 .1269989-.0024719239 .19999695-.022460938 .24899292-.022460938 .30299378-.022460938 .3789978-.0014648438 .4229889 .09359741 .45498658 .16265869 .45999146 .2407074 .45999146 .31976319M.24899292-.00047302247C.20999146-.00047302247 .15098572 .024551392 .1329956 .12062073 .12199402 .18066406 .12199402 .2727356 .12199402 .3317871 .12199402 .39582826 .12199402 .46188355 .12998963 .5159149 .14898682 .63500979 .22399903 .64401248 .24899292 .64401248 .28199769 .64401248 .34799195 .6259918 .36698915 .52693179 .3769989 .47088624 .3769989 .39482118 .3769989 .3317871 .3769989 .25672914 .3769989 .18867493 .3659973 .12461853 .35099793 .029556275 .2939911-.00047302247 .24899292-.00047302247Z"/>
<path id="font_2_3" d="M.28199769 .20405579C.2979889 .21907044 .33999635 .2520752 .35598756 .26608277 .41799928 .32312013 .47698976 .3781433 .47698976 .46917726 .47698976 .588089 .3769989 .66503909 .2519989 .66503909 .13198853 .66503909 .052993776 .57411196 .052993776 .48516847 .052993776 .4361725 .09199524 .4291687 .10598755 .4291687 .1269989 .4291687 .1579895 .4441681 .1579895 .48217774 .1579895 .5341797 .10798645 .5341797 .09599304 .5341797 .125 .6070709 .19198609 .6320343 .24099732 .6320343 .33399964 .6320343 .38198854 .55314639 .38198854 .46917726 .38198854 .36514283 .30899049 .28910829 .19099427 .16804505L.06498718 .037994386C.052993776 .026992798 .052993776 .024993897 .052993776 0H.44799806L.47698976 .17904663H.44599916C.44299317 .1590271 .43499757 .10900879 .4229889 .08999634 .4169922 .08198547 .34098817 .08198547 .32499696 .08198547H.14698792L.28199769 .20405579Z"/>
<path id="font_2_4" d="M.3919983 .29478456C.3919983 .050704957 .27598573 .008514404 .21798706 .008514404 .19699097 .008514404 .14498902 .011520386 .117996219 .04270935 .1619873 .046707155 .16499329 .079711917 .16499329 .08970642 .16499329 .1197052 .14199829 .13671875 .117996219 .13671875 .099990848 .13671875 .070999149 .12571717 .070999149 .08770752 .070999149 .019577027 .1269989-.021484375 .21899414-.021484375 .35598756-.021484375 .48599244 .114715579 .48599244 .3287964 .48599244 .58898928 .37098695 .66503909 .2679901 .66503909 .1499939 .66503909 .04399109 .5729828 .04399109 .44187928 .04399109 .31278993 .14099121 .21875 .2539978 .21875 .32499696 .21875 .36799623 .26374818 .3919983 .31478883V.29478456M.2579956 .24674988C.21199036 .24674988 .18299866 .26776124 .16099549 .30477906 .13798523 .34181214 .13798523 .3898468 .13798523 .44088746 .13798523 .4999237 .13798523 .54196169 .16499329 .58299258 .18998719 .61901858 .22200012 .6390381 .2689972 .6390381 .33599855 .6390381 .36499024 .5729828 .36799623 .5679779 .3889923 .51893618 .3899994 .44088746 .3899994 .42086793 .3899994 .34181214 .34700013 .24674988 .2579956 .24674988Z"/>
<path id="font_2_2" d="M.31399537 .63708499C.31399537 .664032 .31199647 .66503909 .2849884 .66503909 .24398804 .6251831 .19099427 .6013489 .09599304 .6013489V.5683594C.12298584 .5683594 .1769867 .5683594 .23498535 .5953522V.08203125C.23498535 .04499817 .23199463 .032989503 .13699341 .032989503H.101989749V0C.14299011 .0029907227 .22898865 .0029907227 .27398683 .0029907227 .31900025 .0029907227 .4059906 .0029907227 .44699098 0V.032989503H.4119873C.31698609 .032989503 .31399537 .04499817 .31399537 .08203125V.63708499Z"/>
<path id="font_2_1" d="M.4889984 .31877137C.4889984 .42585755 .47799684 .49090577 .44499208 .55496218 .40098573 .6430359 .31999208 .66503909 .2649994 .66503909 .13899231 .66503909 .09298706 .5709839 .07899475 .5429535 .042999269 .4698944 .040985109 .3708191 .040985109 .31877137 .040985109 .25271607 .04399109 .15162659 .09199524 .07156372 .13798523-.0024871827 .21199036-.021484375 .2649994-.021484375 .31298829-.021484375 .39898683-.0064849855 .44898988 .09257507 .48599244 .16464234 .4889984 .2537079 .4889984 .31877137M.2649994 .006515503C.23098755 .006515503 .1619873 .022521973 .14099121 .12760926 .12998963 .18466187 .12998963 .2787323 .12998963 .33078004 .12998963 .3998413 .12998963 .4698944 .14099121 .5249481 .1619873 .6270294 .23999024 .6370239 .2649994 .6370239 .29899598 .6370239 .36799623 .62002566 .3880005 .5289459 .3999939 .4738922 .3999939 .39883424 .3999939 .33078004 .3999939 .27172853 .3999939 .18165589 .3880005 .12561035 .36698915 .020523072 .2979889 .006515503 .2649994 .006515503Z"/>
</defs>
<path transform="matrix(1,0,0,-1.00003,100.579,15.970909)" stroke-width=".3985" stroke-linecap="butt" stroke-miterlimit="10" stroke-linejoin="miter" fill="none" stroke="#000000" d="M-98.75554 0H98.75554"/>
<path transform="matrix(-1,-0,0,1.00003,1.8234634,15.970909)" stroke-width=".31879" stroke-linecap="round" stroke-linejoin="round" fill="none" stroke="#000000" d="M-1.19551 1.59401C-1.09587 .99626 0 .09961 .29886 0 0-.09961-1.09587-.99626-1.19551-1.59401"/>
<path transform="matrix(1,0,0,-1.00003,199.33454,15.970909)" stroke-width=".31879" stroke-linecap="round" stroke-linejoin="round" fill="none" stroke="#000000" d="M-1.19551 1.59401C-1.09587 .99626 0 .09961 .29886 0 0-.09961-1.09587-.99626-1.19551-1.59401"/>
<path transform="matrix(1,0,0,-1.00003,100.579,15.970909)" stroke-width=".3985" stroke-linecap="butt" stroke-miterlimit="10" stroke-linejoin="miter" fill="none" stroke="#000000" d="M0-2.83484V2.83484"/>
<use data-text="0" xlink:href="#font_1_1" transform="matrix(10.9091,0,0,-10.909428,97.852008,27.99027)"/>
<path transform="matrix(1,0,0,-1.00003,100.579,15.970909)" stroke-width="1.59404" stroke-linecap="butt" stroke-miterlimit="10" stroke-linejoin="miter" fill="none" stroke="#0000ff" d="M-98.00832 11.33855H82.20555"/>
<path transform="matrix(-1,-0,0,1.00003,2.5706788,4.632019)" stroke-width="1.27522" stroke-linecap="round" stroke-linejoin="round" fill="none" stroke="#0000ff" d="M-2.27148 3.02866C-2.0822 1.8929 0 .18927 .56786 0 0-.18927-2.0822-1.8929-2.27148-3.02866"/>
<path transform="matrix(1,0,0,-1.00003,100.579,15.970909)" stroke-width=".3985" stroke-linecap="butt" stroke-miterlimit="10" stroke-linejoin="miter" fill="none" stroke="#000000" d="M82.20555-2.83484V2.83484"/>
<use data-text="2" xlink:href="#font_2_3" transform="matrix(7.9701,0,0,-7.9703395,178.55,23.015122)"/>
<use data-text="9" xlink:href="#font_2_4" transform="matrix(7.9701,0,0,-7.9703395,182.78214,23.015122)"/>
<path transform="matrix(1,0,0,-1.00003,74.776,30.33934)" stroke-width=".4364" stroke-linecap="butt" stroke-miterlimit="10" stroke-linejoin="miter" fill="none" stroke="#000000" d="M103.774 5.756H112.243"/>
<use data-text="1" xlink:href="#font_2_2" transform="matrix(7.9701,0,0,-7.9703395,178.55,31.072363)"/>
<use data-text="0" xlink:href="#font_2_1" transform="matrix(7.9701,0,0,-7.9703395,182.78214,31.072363)"/>
<path transform="matrix(1,0,0,-1.00003,100.579,15.970909)" d="M85.0404 11.33855C85.0404 12.90419 83.77121 14.17339 82.20555 14.17339 80.63991 14.17339 79.37071 12.90419 79.37071 11.33855 79.37071 9.77289 80.63991 8.5037 82.20555 8.5037 83.77121 8.5037 85.0404 9.77289 85.0404 11.33855ZM82.20555 11.33855" fill="#0000ff"/>
<path transform="matrix(1,0,0,-1.00003,100.579,15.970909)" stroke-width="1.59404" stroke-linecap="butt" stroke-miterlimit="10" stroke-linejoin="miter" fill="none" stroke="#0000ff" d="M85.0404 11.33855C85.0404 12.90419 83.77121 14.17339 82.20555 14.17339 80.63991 14.17339 79.37071 12.90419 79.37071 11.33855 79.37071 9.77289 80.63991 8.5037 82.20555 8.5037 83.77121 8.5037 85.0404 9.77289 85.0404 11.33855ZM82.20555 11.33855"/>
</svg>
