<svg xmlns="http://www.w3.org/2000/svg" xmlns:xlink="http://www.w3.org/1999/xlink" xmlns:inkscape="http://www.inkscape.org/namespaces/inkscape" version="1.1" width="343" height="343" viewBox="0 0 343 343">
<defs>
<path id="font_1_1" d="M.33399964 .30233766C.33999635 .32835389 .36299134 .42037965 .43299867 .42037965 .43798829 .42037965 .46199037 .42037965 .48298646 .40734864 .45498658 .402359 .43499757 .37734986 .43499757 .35334779 .43499757 .33735658 .44599916 .31835938 .47299195 .31835938 .49499513 .31835938 .5269928 .3363495 .5269928 .37635804 .5269928 .42837525 .46798707 .4423828 .43399049 .4423828 .37599183 .4423828 .34098817 .38935853 .32899476 .36634828 .3039856 .43237306 .25 .4423828 .22099304 .4423828 .116989139 .4423828 .05999756 .3133545 .05999756 .28834535 .05999756 .27833558 .069992069 .27833558 .07199097 .27833558 .07998657 .27833558 .08299255 .28033448 .084991458 .28933717 .11898804 .39535523 .18499756 .42037965 .21899414 .42037965 .23799134 .42037965 .272995 .4113617 .272995 .35334779 .272995 .32235719 .2559967 .25532533 .21899414 .11528015 .20298767 .053268434 .16799927 .011245728 .12399292 .011245728 .117996219 .011245728 .09498596 .011245728 .07398987 .024276734 .09899902 .029266358 .12098694 .05027771 .12098694 .07827759 .12098694 .105270389 .09899902 .11328125 .083999637 .11328125 .053985597 .11328125 .0289917 .08728027 .0289917 .055267335 .0289917 .009246826 .07899475-.0107421879 .12298584-.0107421879 .18899536-.0107421879 .22499085 .059280397 .22799683 .0652771 .23999024 .028274537 .27598573-.0107421879 .33599855-.0107421879 .43899537-.0107421879 .49598695 .118270877 .49598695 .14328003 .49598695 .1532898 .4869995 .1532898 .48399354 .1532898 .47499085 .1532898 .47299195 .14929199 .47099305 .14228821 .43798829 .03527832 .36999513 .011245728 .33799745 .011245728 .29899598 .011245728 .2829895 .043273927 .2829895 .07727051 .2829895 .09927368 .2889862 .121276859 .2999878 .16529846L.33399964 .30233766Z"/>
<path id="font_1_2" d="M.48599244 .38136292C.48999024 .39537049 .48999024 .39736939 .48999024 .40437318 .48999024 .42237855 .47599793 .43138124 .46099855 .43138124 .45098878 .43138124 .43499757 .42536927 .42599488 .41036988 .42399598 .405365 .41600038 .37435914 .4119873 .35635377 .40499879 .33035279 .397995 .30334474 .3919983 .27633668L.34700013 .09628296C.34298707 .08126831 .2999878 .011245728 .23399353 .011245728 .18299866 .011245728 .17199707 .055267335 .17199707 .0922699 .17199707 .1382904 .18899536 .20030213 .22299195 .28833009 .23899842 .3293457 .24299622 .3403473 .24299622 .36035157 .24299622 .405365 .21099854 .4423828 .16099549 .4423828 .06599426 .4423828 .0289917 .29733277 .0289917 .28833009 .0289917 .27833558 .038986207 .27833558 .040985109 .27833558 .050994874 .27833558 .051986696 .28033448 .056991579 .29634095 .083999637 .3903656 .12399292 .42037965 .1579895 .42037965 .1659851 .42037965 .18299866 .42037965 .18299866 .3883667 .18299866 .36335755 .17298889 .3373413 .1659851 .31834413 .12599182 .21231079 .10798645 .1552887 .10798645 .10827637 .10798645 .019256592 .17098999-.0107421879 .22999573-.0107421879 .2689972-.0107421879 .30299378 .0062561037 .33099366 .03425598 .31799317-.017745972 .30599977-.06674194 .2659912-.11973572 .23999024-.15385437 .20199585-.18309021 .1559906-.18309021 .14199829-.18309021 .09700012-.18005371 .07998657-.14074707 .09599304-.14074707 .10899353-.14074707 .12298584-.1287384 .1329956-.11973572 .14299011-.10673523 .14299011-.08773804 .14299011-.056747438 .115997318-.052734376 .10598755-.052734376 .08299255-.052734376 .049987794-.068740848 .049987794-.11773682 .049987794-.16796875 .09399414-.20507813 .1559906-.20507813 .25898744-.20507813 .3619995-.11373901 .3899994-.00074768069L.48599244 .38136292Z"/>
<path id="font_2_1" d="M.13198853 .327713V.35173036C.13198853 .6047821 .2559967 .64100649 .30699159 .64100649 .33099366 .64100649 .37298585 .634964 .394989 .6007538 .37998963 .6007538 .33999635 .6007538 .33999635 .5557556 .33999635 .524765 .3639984 .5097656 .38598634 .5097656 .4019928 .5097656 .43199159 .51875308 .43199159 .5577545 .43199159 .6178589 .3880005 .6660156 .30499269 .6660156 .1769867 .6660156 .041992189 .5367584 .041992189 .31570436 .041992189 .048553468 .1579895-.022460938 .25099183-.022460938 .3619995-.022460938 .45700074 .07156372 .45700074 .2036438 .45700074 .33070375 .36799623 .4267578 .25698854 .4267578 .18899536 .4267578 .1519928 .37573243 .13198853 .327713M.25099183 .0055389406C.18798828 .0055389406 .1579895 .06556702 .1519928 .080566409 .13398743 .127594 .13398743 .2076416 .13398743 .22564698 .13398743 .30369569 .1659851 .40374757 .2559967 .40374757 .27198792 .40374757 .31799317 .40374757 .34899903 .34172059 .36698915 .30470277 .36698915 .2536621 .36698915 .20463562 .36698915 .15661621 .36698915 .10658264 .34999085 .0705719 .31999208 .010528564 .27398683 .0055389406 .25099183 .0055389406Z"/>
</defs>
<path transform="matrix(1.00002,0,0,-1.00005,30.115624,313.0247)" stroke-width=".3985" stroke-linecap="butt" stroke-miterlimit="10" stroke-linejoin="miter" fill="none" stroke="#000000" d="M-27.88852 0H311.35664"/>
<path transform="matrix(-1.00002,-0,0,1.00005,2.2265454,313.0247)" stroke-width=".31879" stroke-linecap="round" stroke-linejoin="round" fill="none" stroke="#000000" d="M-1.19551 1.59401C-1.09587 .99626 0 .09961 .29886 0 0-.09961-1.09587-.99626-1.19551-1.59401"/>
<path transform="matrix(1.00002,0,0,-1.00005,341.4785,313.0247)" stroke-width=".31879" stroke-linecap="round" stroke-linejoin="round" fill="none" stroke="#000000" d="M-1.19551 1.59401C-1.09587 .99626 0 .09961 .29886 0 0-.09961-1.09587-.99626-1.19551-1.59401"/>
<use data-text="x" xlink:href="#font_1_1" transform="matrix(10.909318,0,0,-10.909644,324.6455,304.03425)"/>
<path transform="matrix(1.00002,0,0,-1.00005,30.115624,313.0247)" stroke-width=".3985" stroke-linecap="butt" stroke-miterlimit="10" stroke-linejoin="miter" fill="none" stroke="#000000" d="M0-27.88852V311.35664"/>
<path transform="matrix(0,1.00005,1.00002,0,30.115624,340.9146)" stroke-width=".31879" stroke-linecap="round" stroke-linejoin="round" fill="none" stroke="#000000" d="M-1.19551 1.59401C-1.09587 .99626 0 .09961 .29886 0 0-.09961-1.09587-.99626-1.19551-1.59401"/>
<path transform="matrix(0,-1.00005,-1.00002,-0,30.115624,1.6524963)" stroke-width=".31879" stroke-linecap="round" stroke-linejoin="round" fill="none" stroke="#000000" d="M-1.19551 1.59401C-1.09587 .99626 0 .09961 .29886 0 0-.09961-1.09587-.99626-1.19551-1.59401"/>
<use data-text="y" xlink:href="#font_1_2" transform="matrix(10.909318,0,0,-10.909644,38.584794,16.655884)"/>
<path transform="matrix(1.00002,0,0,-1.00005,30.115624,313.0247)" stroke-width=".3985" stroke-linecap="butt" stroke-miterlimit="10" stroke-linejoin="miter" fill="none" stroke="#000000" d="M170.08086-2.83484V2.83484"/>
<use data-text="6" xlink:href="#font_2_1" transform="matrix(10.909318,0,0,-10.909644,197.47299,327.87944)"/>
<path transform="matrix(1.00002,0,0,-1.00005,30.115624,313.0247)" stroke-width="1.59404" stroke-linecap="butt" stroke-miterlimit="10" stroke-linejoin="miter" fill="none" stroke="#0000ff" d="M141.93827 27.15878C142.14749 25.9425 142.14749 25.9425 142.30628 25.0807 142.46506 24.2189 142.71974 22.91194 142.87853 22.13554 143.03731 21.35915 143.29199 20.18309 143.45078 19.48495 143.60956 18.78682 143.86423 17.7303 144.02303 17.10384 144.18181 16.47736 144.43648 15.53033 144.59526 14.9697 144.75406 14.40907 145.00873 13.56352 145.16751 13.06306 145.3263 12.56262 145.58098 11.80835 145.73976 11.36276 145.89855 10.91716 146.15323 10.24713 146.31201 9.85147 146.4708 9.45581 146.72548 8.86139 146.88426 8.51103 147.04305 8.16068 147.29773 7.63554 147.45652 7.32631 147.6153 7.01707 147.86997 6.5542 148.02877 6.28217 148.18755 6.01013 148.44222 5.60417 148.601 5.36562 148.75978 5.12708 149.01447 4.7713 149.17325 4.56282 149.33203 4.35434 149.58672 4.04446 149.7455 3.86298 149.90428 3.6815 150.15897 3.41219 150.31775 3.25482 150.47653 3.09747 150.73122 2.86473 150.89 2.72887 151.04878 2.593 151.30345 2.39241 151.46225 2.27556 151.62104 2.15872 151.8757 1.98668 152.03449 1.8867 152.19329 1.78674 152.44795 1.64005 152.60674 1.55496 152.76552 1.46988 153.0202 1.34544 153.17899 1.27338 153.33777 1.2013 153.59246 1.09615 153.75124 1.03548 153.91002 .97481 154.1647 .88684 154.32349 .83609 154.48227 .78532 154.73696 .71179 154.89574 .66956 155.05452 .6273 155.30919 .56644 155.46799 .53157 155.62677 .49672 155.88144 .44681 156.04022 .41824 156.19902 .38968 156.45369 .34889 156.61248 .32568 156.77126 .30246 157.02594 .2695 157.18473 .25085 157.3435 .23221 157.59819 .20605 157.75698 .19118 157.91576 .17628 158.17044 .15533 158.32923 .14359 158.488 .13184 158.74269 .11555 158.90148 .10638 159.06026 .09723 159.31493 .08449 159.47371 .07742 159.6325 .07034 159.88718 .06068 160.04596 .05534 160.20475 .05 160.45943 .04286 160.61821 .03891 160.777 .03496 161.03168 .02974 161.19046 .02681 161.34925 .02388 161.60393 .01982 161.76271 .01772 161.9215 .01563 162.17618 .01309 162.33496 .01167 162.49375 .01024 162.74842 .00835 162.90721 .00734 163.066 .00632 163.32067 .00496 163.47945 .0043 163.63825 .00366 163.89292 .00299 164.0517 .00258 164.21048 .00217 164.46517 .00157 164.62395 .00128 164.78273 .00099 165.03742 .00058 165.1962 .00041 165.35498 .00024 165.60967 .00003 165.76845 0 165.92723-.00003 166.18192 0 166.3407 0 166.49948 0 166.75415 0 166.91295 0 167.07173 0 167.3264 0 167.48519 0 167.64398 0 167.89865 0 168.05744 0 168.21622 0 168.4709 0 168.62969 0 168.78847 0 169.04315 0 169.20194 0 169.36072 0 169.6154 0 169.77419 0 169.93297 0 170.18764 0 170.34642 0 170.5052 0 170.75988 0 170.91866 0 171.07746 0 171.33213 0 171.4909 0 171.64969 0 171.90438 0 172.06316 0 172.22194 0 172.47663 0 172.6354 0 172.79419 0 173.04888 0 173.20766 0 173.36644 0 173.62113 0 173.7799 0 173.93869 0 174.19336-.00003 174.35216 0 174.51094 .00003 174.76561 .00024 174.9244 .00041 175.08319 .00058 175.33786 .00105 175.49665 .00128 175.65543 .00151 175.91011 .00174 176.0689 .00215 176.22768 .00256 176.48236 .00366 176.64115 .0043 176.79993 .00496 177.05461 .00595 177.2134 .00691 177.37218 .00787 177.62686 .0098 177.78565 .01123 177.94443 .01265 178.1991 .01526 178.3579 .01729 178.51668 .01933 178.77135 .02307 178.93013 .02594 179.08893 .02881 179.3436 .03415 179.50238 .03804 179.66117 .04193 179.91585 .04884 180.07463 .05405 180.23342 .05927 180.4881 .06873 180.64688 .07568 180.80567 .08264 181.06035 .09523 181.21913 .10423 181.37792 .11324 181.6326 .12906 181.79138 .14056 181.95017 .15207 182.20484 .17264 182.36362 .18729 182.52242 .20192 182.77709 .22769 182.93587 .2461 183.09465 .26451 183.34934 .29721 183.50812 .32007 183.6669 .34294 183.92159 .38283 184.08037 .4109 184.23915 .43898 184.49384 .4881 184.65262 .52249 184.8114 .55687 185.06609 .61703 185.22487 .65874 185.38365 .70044 185.63832 .773 185.79712 .8231 185.9559 .87321 186.21057 .96002 186.36936 1.01991 186.52816 1.07979 186.78282 1.18356 186.9416 1.25478 187.10039 1.326 187.35507 1.4492 187.51386 1.53333 187.67264 1.61745 187.92733 1.76242 188.0861 1.8612 188.24489 1.95998 188.49958 2.12978 188.65836 2.2453 188.81714 2.36081 189.07183 2.55942 189.2306 2.69383 189.38939 2.82825 189.64406 3.05844 189.80286 3.21417 189.96164 3.3699 190.21631 3.6366 190.37509 3.81627 190.53388 3.99594 190.78856 4.30269 190.94734 4.50919 191.10613 4.7157 191.36081 5.0683 191.51959 5.30463 191.67838 5.54095 191.93306 5.94301 192.09185 6.21252 192.25063 6.48204 192.50531 6.94073 192.6641 7.24716 192.82288 7.55359 193.07756 8.07384 193.23635 8.42107 193.39513 8.7683 193.6498 9.35759 193.80858 9.74983 193.96738 10.14207 194.22205 10.80632 194.38083 11.24814 194.53961 11.68994 194.7943 12.43774 194.95308 12.93417 195.11186 13.43059 195.36655 14.27002 195.52533 14.82608 195.68412 15.38216 195.9388 16.32056 196.09758 16.94206 196.25637 17.56357 196.51105 18.61261 196.66983 19.30545 196.82862 19.9983 197.08329 21.16515 197.24208 21.93571 197.40087 22.70628 197.65554 24.00388 197.81432 24.85924 197.97312 25.71461 198.38655 28.10068 198.18083 26.9129"/>
<path transform="matrix(-.1694234,-.9855492,-.9855197,.16942847,172.05673,285.86457)" stroke-width="1.27522" stroke-linecap="round" stroke-linejoin="round" fill="none" stroke="#0000ff" d="M-2.27148 3.02866C-2.0822 1.8929 0 .18927 .56786 0 0-.18927-2.0822-1.8929-2.27148-3.02866"/>
<path transform="matrix(.17067342,-.98534926,-.98531976,-.17067853,228.30042,286.11045)" stroke-width="1.27522" stroke-linecap="round" stroke-linejoin="round" fill="none" stroke="#0000ff" d="M-2.27148 3.02866C-2.0822 1.8929 0 .18927 .56786 0 0-.18927-2.0822-1.8929-2.27148-3.02866"/>
</svg>
