<svg xmlns="http://www.w3.org/2000/svg" xmlns:xlink="http://www.w3.org/1999/xlink" xmlns:inkscape="http://www.inkscape.org/namespaces/inkscape" version="1.1" width="343" height="384" viewBox="0 0 343 384">
<defs>
<path id="font_1_1" d="M.33399964 .30233766C.33999635 .32835389 .36299134 .42037965 .43299867 .42037965 .43798829 .42037965 .46199037 .42037965 .48298646 .40734864 .45498658 .402359 .43499757 .37734986 .43499757 .35334779 .43499757 .33735658 .44599916 .31835938 .47299195 .31835938 .49499513 .31835938 .5269928 .3363495 .5269928 .37635804 .5269928 .42837525 .46798707 .4423828 .43399049 .4423828 .37599183 .4423828 .34098817 .38935853 .32899476 .36634828 .3039856 .43237306 .25 .4423828 .22099304 .4423828 .116989139 .4423828 .05999756 .3133545 .05999756 .28834535 .05999756 .27833558 .069992069 .27833558 .07199097 .27833558 .07998657 .27833558 .08299255 .28033448 .084991458 .28933717 .11898804 .39535523 .18499756 .42037965 .21899414 .42037965 .23799134 .42037965 .272995 .4113617 .272995 .35334779 .272995 .32235719 .2559967 .25532533 .21899414 .11528015 .20298767 .053268434 .16799927 .011245728 .12399292 .011245728 .117996219 .011245728 .09498596 .011245728 .07398987 .024276734 .09899902 .029266358 .12098694 .05027771 .12098694 .07827759 .12098694 .105270389 .09899902 .11328125 .083999637 .11328125 .053985597 .11328125 .0289917 .08728027 .0289917 .055267335 .0289917 .009246826 .07899475-.0107421879 .12298584-.0107421879 .18899536-.0107421879 .22499085 .059280397 .22799683 .0652771 .23999024 .028274537 .27598573-.0107421879 .33599855-.0107421879 .43899537-.0107421879 .49598695 .118270877 .49598695 .14328003 .49598695 .1532898 .4869995 .1532898 .48399354 .1532898 .47499085 .1532898 .47299195 .14929199 .47099305 .14228821 .43798829 .03527832 .36999513 .011245728 .33799745 .011245728 .29899598 .011245728 .2829895 .043273927 .2829895 .07727051 .2829895 .09927368 .2889862 .121276859 .2999878 .16529846L.33399964 .30233766Z"/>
<path id="font_1_2" d="M.48599244 .38136292C.48999024 .39537049 .48999024 .39736939 .48999024 .40437318 .48999024 .42237855 .47599793 .43138124 .46099855 .43138124 .45098878 .43138124 .43499757 .42536927 .42599488 .41036988 .42399598 .405365 .41600038 .37435914 .4119873 .35635377 .40499879 .33035279 .397995 .30334474 .3919983 .27633668L.34700013 .09628296C.34298707 .08126831 .2999878 .011245728 .23399353 .011245728 .18299866 .011245728 .17199707 .055267335 .17199707 .0922699 .17199707 .1382904 .18899536 .20030213 .22299195 .28833009 .23899842 .3293457 .24299622 .3403473 .24299622 .36035157 .24299622 .405365 .21099854 .4423828 .16099549 .4423828 .06599426 .4423828 .0289917 .29733277 .0289917 .28833009 .0289917 .27833558 .038986207 .27833558 .040985109 .27833558 .050994874 .27833558 .051986696 .28033448 .056991579 .29634095 .083999637 .3903656 .12399292 .42037965 .1579895 .42037965 .1659851 .42037965 .18299866 .42037965 .18299866 .3883667 .18299866 .36335755 .17298889 .3373413 .1659851 .31834413 .12599182 .21231079 .10798645 .1552887 .10798645 .10827637 .10798645 .019256592 .17098999-.0107421879 .22999573-.0107421879 .2689972-.0107421879 .30299378 .0062561037 .33099366 .03425598 .31799317-.017745972 .30599977-.06674194 .2659912-.11973572 .23999024-.15385437 .20199585-.18309021 .1559906-.18309021 .14199829-.18309021 .09700012-.18005371 .07998657-.14074707 .09599304-.14074707 .10899353-.14074707 .12298584-.1287384 .1329956-.11973572 .14299011-.10673523 .14299011-.08773804 .14299011-.056747438 .115997318-.052734376 .10598755-.052734376 .08299255-.052734376 .049987794-.068740848 .049987794-.11773682 .049987794-.16796875 .09399414-.20507813 .1559906-.20507813 .25898744-.20507813 .3619995-.11373901 .3899994-.00074768069L.48599244 .38136292Z"/>
<path id="font_2_1" d="M.13198853 .327713V.35173036C.13198853 .6047821 .2559967 .64100649 .30699159 .64100649 .33099366 .64100649 .37298585 .634964 .394989 .6007538 .37998963 .6007538 .33999635 .6007538 .33999635 .5557556 .33999635 .524765 .3639984 .5097656 .38598634 .5097656 .4019928 .5097656 .43199159 .51875308 .43199159 .5577545 .43199159 .6178589 .3880005 .6660156 .30499269 .6660156 .1769867 .6660156 .041992189 .5367584 .041992189 .31570436 .041992189 .048553468 .1579895-.022460938 .25099183-.022460938 .3619995-.022460938 .45700074 .07156372 .45700074 .2036438 .45700074 .33070375 .36799623 .4267578 .25698854 .4267578 .18899536 .4267578 .1519928 .37573243 .13198853 .327713M.25099183 .0055389406C.18798828 .0055389406 .1579895 .06556702 .1519928 .080566409 .13398743 .127594 .13398743 .2076416 .13398743 .22564698 .13398743 .30369569 .1659851 .40374757 .2559967 .40374757 .27198792 .40374757 .31799317 .40374757 .34899903 .34172059 .36698915 .30470277 .36698915 .2536621 .36698915 .20463562 .36698915 .15661621 .36698915 .10658264 .34999085 .0705719 .31999208 .010528564 .27398683 .0055389406 .25099183 .0055389406Z"/>
<path id="font_2_2" d="M.16299439 .4569702C.116989139 .486969 .11299133 .52098086 .11299133 .5379791 .11299133 .598999 .17799378 .64100649 .24899292 .64100649 .32199098 .64100649 .38598634 .58898928 .38598634 .51698306 .38598634 .45996095 .34700013 .4119568 .2869873 .37695313L.16299439 .4569702M.30899049 .36193849C.3809967 .3989563 .42999269 .45095826 .42999269 .51698306 .42999269 .6090088 .34098817 .6660156 .25 .6660156 .1499939 .6660156 .068984989 .59199526 .068984989 .49897767 .068984989 .4809723 .070999149 .43595887 .11299133 .38894654 .12399292 .37695313 .16099549 .35194398 .18598938 .33494569 .12799073 .30592347 .041992189 .24984741 .041992189 .15072632 .041992189 .04458618 .14399719-.022460938 .24899292-.022460938 .3619995-.022460938 .45700074 .06060791 .45700074 .16773987 .45700074 .20379639 .44599916 .24885559 .4079895 .2909088 .3889923 .31193543 .37298585 .3219452 .30899049 .36193849M.20899964 .3199463 .33198548 .24183655C.3600006 .2228241 .40699769 .19277954 .40699769 .13169861 .40699769 .05760193 .33198548 .0055389406 .25 .0055389406 .1639862 .0055389406 .09199524 .067611698 .09199524 .15072632 .09199524 .20880127 .12399292 .27288819 .20899964 .3199463Z"/>
</defs>
<path transform="matrix(1.00002,0,0,-1.00005,30.115624,313.0247)" stroke-width=".3985" stroke-linecap="butt" stroke-miterlimit="10" stroke-linejoin="miter" fill="none" stroke="#000000" d="M-27.88852 0H311.35664"/>
<path transform="matrix(-1.00002,-0,0,1.00005,2.2265454,313.0247)" stroke-width=".31879" stroke-linecap="round" stroke-linejoin="round" fill="none" stroke="#000000" d="M-1.19551 1.59401C-1.09587 .99626 0 .09961 .29886 0 0-.09961-1.09587-.99626-1.19551-1.59401"/>
<path transform="matrix(1.00002,0,0,-1.00005,341.4785,313.0247)" stroke-width=".31879" stroke-linecap="round" stroke-linejoin="round" fill="none" stroke="#000000" d="M-1.19551 1.59401C-1.09587 .99626 0 .09961 .29886 0 0-.09961-1.09587-.99626-1.19551-1.59401"/>
<use data-text="x" xlink:href="#font_1_1" transform="matrix(10.909318,0,0,-10.909644,324.6455,304.03425)"/>
<path transform="matrix(1.00002,0,0,-1.00005,30.115624,313.0247)" stroke-width=".3985" stroke-linecap="butt" stroke-miterlimit="10" stroke-linejoin="miter" fill="none" stroke="#000000" d="M0-27.88852V311.35664"/>
<path transform="matrix(0,1.00005,1.00002,0,30.115624,340.9146)" stroke-width=".31879" stroke-linecap="round" stroke-linejoin="round" fill="none" stroke="#000000" d="M-1.19551 1.59401C-1.09587 .99626 0 .09961 .29886 0 0-.09961-1.09587-.99626-1.19551-1.59401"/>
<path transform="matrix(0,-1.00005,-1.00002,-0,30.115624,1.6524963)" stroke-width=".31879" stroke-linecap="round" stroke-linejoin="round" fill="none" stroke="#000000" d="M-1.19551 1.59401C-1.09587 .99626 0 .09961 .29886 0 0-.09961-1.09587-.99626-1.19551-1.59401"/>
<use data-text="y" xlink:href="#font_1_2" transform="matrix(10.909318,0,0,-10.909644,38.584794,16.655884)"/>
<path transform="matrix(1.00002,0,0,-1.00005,30.115624,313.0247)" stroke-width=".3985" stroke-linecap="butt" stroke-miterlimit="10" stroke-linejoin="miter" fill="none" stroke="#000000" d="M170.08086-2.83484V2.83484"/>
<use data-text="6" xlink:href="#font_2_1" transform="matrix(10.909318,0,0,-10.909644,197.47299,327.87944)"/>
<path transform="matrix(1.00002,0,0,-1.00005,30.115624,313.0247)" stroke-width=".3985" stroke-linecap="butt" stroke-miterlimit="10" stroke-linejoin="miter" fill="none" stroke="#000000" d="M226.77448-2.83484V2.83484"/>
<use data-text="8" xlink:href="#font_2_2" transform="matrix(10.909318,0,0,-10.909644,254.16712,327.87944)"/>
<path transform="matrix(1.00002,0,0,-1.00005,30.115624,313.0247)" stroke-width="1.59404" stroke-linecap="butt" stroke-miterlimit="10" stroke-linejoin="miter" fill="none" stroke="#0000ff" d="M141.93192-27.15727C142.365-24.55495 142.365-24.55495 142.60733-23.25194 142.84967-21.94893 143.2383-20.05125 143.48062-18.9551 143.72296-17.85895 144.11159-16.26843 144.35393-15.35162 144.59626-14.4348 144.98488-13.10988 145.22722-12.34723 145.46955-11.58456 145.85817-10.48549 146.10051-9.85493 146.34284-9.22437 146.73146-8.32022 146.9738-7.80255 147.21614-7.28487 147.60475-6.54579 147.84709-6.12386 148.08943-5.7019 148.47805-5.10252 148.72039-4.76135 148.96273-4.4202 149.35135-3.93848 149.59368-3.66489 149.83602-3.3913 150.22464-3.00677 150.46697-2.78941 150.7093-2.57207 151.09793-2.26921 151.34026-2.09824 151.5826-1.92725 151.97124-1.69023 152.21358-1.55711 152.4559-1.42401 152.84453-1.24118 153.08687-1.13887 153.3292-1.03656 153.71782-.89723 153.96016-.81964 154.20249-.74205 154.59111-.63766 154.83345-.57959 155.07579-.5215 155.4644-.44366 155.70674-.40094 155.94908-.35823 156.3377-.30234 156.58003-.27162 156.82238-.24089 157.211-.20126 157.45333-.17949 157.69567-.1577 158.08429-.12965 158.32662-.1146 158.56896-.09955 158.95758-.08107 159.19992-.07092 159.44225-.06079 159.83087-.04805 160.07321-.0415 160.31554-.03497 160.70417-.02779 160.9465-.02377 161.18883-.01976 161.57747-.01505 161.81981-.01253 162.06215-.01003 162.45076-.0071 162.6931-.0056 162.93544-.0041 163.32407-.00237 163.56639-.00171 163.80873-.00105 164.19736-.00107 164.43968-.00084 164.68202-.00061 165.07065-.00009 165.31298 0 165.55532 .00009 165.94394 0 166.18628 0 166.4286 0 166.81723 0 167.05957 0 167.3019 0 167.69052 0 167.93286 0 168.17519 0 168.56381 0 168.80615 0 169.0485 0 169.4371 0 169.67945 0 169.92179 0 170.3104 0 170.55274 0 170.79508 0 171.18372 0 171.42604 0 171.66838 0 172.057 0 172.29933 0 172.54167 0 172.9303 0 173.17263 0 173.41497 0 173.80359 0 174.04593 0 174.28826 0 174.67688 .00003 174.91922 0 175.16155-.00003 175.55017-.00012 175.79251-.00041 176.03484-.0007 176.42346-.00162 176.6658-.00215 176.90814-.00269 177.29676-.0033 177.5391-.0043 177.78144-.00533 178.17006-.00764 178.41239-.00949 178.65473-.01135 179.04335-.01485 179.28568-.01772 179.52802-.02058 179.91664-.02576 180.15897-.03026 180.4013-.03476 180.78995-.04356 181.03229-.05016 181.27462-.05676 181.66324-.06844 181.90558-.07784 182.1479-.08725 182.53653-.105 182.77887-.11807 183.0212-.13113 183.40982-.15439 183.65216-.17213 183.8945-.1899 184.28311-.22246 184.52545-.2461 184.76779-.26973 185.15642-.3117 185.39875-.34256 185.64109-.3734 186.02971-.42882 186.27204-.46843 186.51438-.50803 186.903-.57805 187.14533-.62804 187.38767-.67801 187.77629-.76633 188.01863-.82874 188.26096-.89113 188.64958-1.00105 188.89192-1.07788 189.13425-1.1547 189.52288-1.28894 189.76522-1.38237 190.00754-1.4758 190.39617-1.63875 190.6385-1.75134 190.88085-1.86392 191.26947-2.05951 191.51181-2.19382 191.75415-2.32813 192.14276-2.56068 192.3851-2.71935 192.62744-2.87802 193.01607-3.15172 193.25839-3.33745 193.50074-3.5232 193.88936-3.8423 194.13169-4.05806 194.37403-4.2738 194.76265-4.64378 195.00498-4.89241 195.24732-5.14104 195.63594-5.56566 195.87828-5.85007 196.1206-6.13446 196.50923-6.61934 196.75157-6.94221 196.9939-7.26509 197.38253-7.81308 197.62487-8.17712 197.86719-8.54117 198.25582-9.15816 198.49816-9.566 198.7405-9.97383 199.1291-10.6627 199.37145-11.11664 199.61379-11.57057 200.00241-12.33588 200.24474-12.8377 200.48708-13.33954 200.87572-14.18236 201.11804-14.73352 201.36038-15.28468 201.74901-16.20845 201.99134-16.81013 202.23368-17.41183 202.6223-18.4177 202.86464-19.07016 203.10697-19.72263 203.49559-20.80975 203.73793-21.5127 203.98026-22.21564 204.36888-23.38431 204.61122-24.13646 204.85355-24.88861 205.24217-26.13461 205.48451-26.93369 205.72686-27.73276 206.11547-29.05313 206.3578-29.89572 206.60015-30.7383 206.98876-32.125 207.2311-33.00653 207.47344-33.88806 207.86206-35.3349 208.10439-36.24927 208.34673-37.16364 208.73535-38.65729 208.97768-39.59668 209.22002-40.53607 209.60865-42.06479 209.85099-43.01978 210.0933-43.97478 210.48195-45.52081 210.72429-46.47964 210.96662-47.43848 211.35524-48.98174 211.59758-49.93044 211.8399-50.87914 212.22853-52.39485 212.47087-53.3172 212.71321-54.23956 213.10182-55.70116 213.34416-56.57813 213.5865-57.4551 213.97512-58.82843 214.21746-59.63788 214.4598-60.44734 214.84842-61.69533 215.09075-62.41219 215.33309-63.12904 215.72171-64.2091 215.96404-64.80455 216.20638-65.4 216.595-66.26225 216.83733-66.70383 217.07967-67.1454 217.46829-67.7362 217.71063-67.98718 217.95296-68.23814 218.34159-68.4937 218.58393-68.51271 218.82625-68.53172 219.21488-68.38287 219.45722-68.12428 219.69954-67.86569 220.08818-67.23625 220.33052-66.6489 220.57286-66.06155 220.96147-64.86368 221.20381-63.89104 221.44615-62.9184 221.83478-61.05914 222.0771-59.63875 222.31945-58.21835 222.70807-55.5908 222.9504-53.65373 223.19274-51.71666 223.58136-48.20694 223.82369-45.67772 224.06603-43.14851 224.45465-38.6291 224.69699-35.42485 224.93932-32.22058 225.32794-26.5532 225.57028-22.58365 225.8126-18.6141 226.20124-11.64833 226.44358-6.81505 226.6859-1.98178 227.07453 6.44702 227.31687 12.25119 227.5592 18.05537 228.19016 35.0174 228.14537 33.81276"/>
<path transform="matrix(-.1641433,.9864393,.9864097,.1641482,172.05039,340.18333)" stroke-width="1.27522" stroke-linecap="round" stroke-linejoin="round" fill="none" stroke="#0000ff" d="M-2.27148 3.02866C-2.0822 1.8929 0 .18927 .56786 0 0-.18927-2.0822-1.8929-2.27148-3.02866"/>
<path transform="matrix(.037160748,-.99932989,-.9993,-.037161858,258.26557,279.21025)" stroke-width="1.27522" stroke-linecap="round" stroke-linejoin="round" fill="none" stroke="#0000ff" d="M-2.27148 3.02866C-2.0822 1.8929 0 .18927 .56786 0 0-.18927-2.0822-1.8929-2.27148-3.02866"/>
</svg>
