<svg xmlns="http://www.w3.org/2000/svg" xmlns:xlink="http://www.w3.org/1999/xlink" xmlns:inkscape="http://www.inkscape.org/namespaces/inkscape" version="1.1" width="343" height="343" viewBox="0 0 343 343">
<defs>
<path id="font_1_1" d="M.33399964 .30233766C.33999635 .32835389 .36299134 .42037965 .43299867 .42037965 .43798829 .42037965 .46199037 .42037965 .48298646 .40734864 .45498658 .402359 .43499757 .37734986 .43499757 .35334779 .43499757 .33735658 .44599916 .31835938 .47299195 .31835938 .49499513 .31835938 .5269928 .3363495 .5269928 .37635804 .5269928 .42837525 .46798707 .4423828 .43399049 .4423828 .37599183 .4423828 .34098817 .38935853 .32899476 .36634828 .3039856 .43237306 .25 .4423828 .22099304 .4423828 .116989139 .4423828 .05999756 .3133545 .05999756 .28834535 .05999756 .27833558 .069992069 .27833558 .07199097 .27833558 .07998657 .27833558 .08299255 .28033448 .084991458 .28933717 .11898804 .39535523 .18499756 .42037965 .21899414 .42037965 .23799134 .42037965 .272995 .4113617 .272995 .35334779 .272995 .32235719 .2559967 .25532533 .21899414 .11528015 .20298767 .053268434 .16799927 .011245728 .12399292 .011245728 .117996219 .011245728 .09498596 .011245728 .07398987 .024276734 .09899902 .029266358 .12098694 .05027771 .12098694 .07827759 .12098694 .105270389 .09899902 .11328125 .083999637 .11328125 .053985597 .11328125 .0289917 .08728027 .0289917 .055267335 .0289917 .009246826 .07899475-.0107421879 .12298584-.0107421879 .18899536-.0107421879 .22499085 .059280397 .22799683 .0652771 .23999024 .028274537 .27598573-.0107421879 .33599855-.0107421879 .43899537-.0107421879 .49598695 .118270877 .49598695 .14328003 .49598695 .1532898 .4869995 .1532898 .48399354 .1532898 .47499085 .1532898 .47299195 .14929199 .47099305 .14228821 .43798829 .03527832 .36999513 .011245728 .33799745 .011245728 .29899598 .011245728 .2829895 .043273927 .2829895 .07727051 .2829895 .09927368 .2889862 .121276859 .2999878 .16529846L.33399964 .30233766Z"/>
<path id="font_1_2" d="M.48599244 .38136292C.48999024 .39537049 .48999024 .39736939 .48999024 .40437318 .48999024 .42237855 .47599793 .43138124 .46099855 .43138124 .45098878 .43138124 .43499757 .42536927 .42599488 .41036988 .42399598 .405365 .41600038 .37435914 .4119873 .35635377 .40499879 .33035279 .397995 .30334474 .3919983 .27633668L.34700013 .09628296C.34298707 .08126831 .2999878 .011245728 .23399353 .011245728 .18299866 .011245728 .17199707 .055267335 .17199707 .0922699 .17199707 .1382904 .18899536 .20030213 .22299195 .28833009 .23899842 .3293457 .24299622 .3403473 .24299622 .36035157 .24299622 .405365 .21099854 .4423828 .16099549 .4423828 .06599426 .4423828 .0289917 .29733277 .0289917 .28833009 .0289917 .27833558 .038986207 .27833558 .040985109 .27833558 .050994874 .27833558 .051986696 .28033448 .056991579 .29634095 .083999637 .3903656 .12399292 .42037965 .1579895 .42037965 .1659851 .42037965 .18299866 .42037965 .18299866 .3883667 .18299866 .36335755 .17298889 .3373413 .1659851 .31834413 .12599182 .21231079 .10798645 .1552887 .10798645 .10827637 .10798645 .019256592 .17098999-.0107421879 .22999573-.0107421879 .2689972-.0107421879 .30299378 .0062561037 .33099366 .03425598 .31799317-.017745972 .30599977-.06674194 .2659912-.11973572 .23999024-.15385437 .20199585-.18309021 .1559906-.18309021 .14199829-.18309021 .09700012-.18005371 .07998657-.14074707 .09599304-.14074707 .10899353-.14074707 .12298584-.1287384 .1329956-.11973572 .14299011-.10673523 .14299011-.08773804 .14299011-.056747438 .115997318-.052734376 .10598755-.052734376 .08299255-.052734376 .049987794-.068740848 .049987794-.11773682 .049987794-.16796875 .09399414-.20507813 .1559906-.20507813 .25898744-.20507813 .3619995-.11373901 .3899994-.00074768069L.48599244 .38136292Z"/>
<path id="font_2_1" d="M.13198853 .327713V.35173036C.13198853 .6047821 .2559967 .64100649 .30699159 .64100649 .33099366 .64100649 .37298585 .634964 .394989 .6007538 .37998963 .6007538 .33999635 .6007538 .33999635 .5557556 .33999635 .524765 .3639984 .5097656 .38598634 .5097656 .4019928 .5097656 .43199159 .51875308 .43199159 .5577545 .43199159 .6178589 .3880005 .6660156 .30499269 .6660156 .1769867 .6660156 .041992189 .5367584 .041992189 .31570436 .041992189 .048553468 .1579895-.022460938 .25099183-.022460938 .3619995-.022460938 .45700074 .07156372 .45700074 .2036438 .45700074 .33070375 .36799623 .4267578 .25698854 .4267578 .18899536 .4267578 .1519928 .37573243 .13198853 .327713M.25099183 .0055389406C.18798828 .0055389406 .1579895 .06556702 .1519928 .080566409 .13398743 .127594 .13398743 .2076416 .13398743 .22564698 .13398743 .30369569 .1659851 .40374757 .2559967 .40374757 .27198792 .40374757 .31799317 .40374757 .34899903 .34172059 .36698915 .30470277 .36698915 .2536621 .36698915 .20463562 .36698915 .15661621 .36698915 .10658264 .34999085 .0705719 .31999208 .010528564 .27398683 .0055389406 .25099183 .0055389406Z"/>
</defs>
<path transform="matrix(1.00002,0,0,-1.00008,30.115624,313.03355)" stroke-width=".3985" stroke-linecap="butt" stroke-miterlimit="10" stroke-linejoin="miter" fill="none" stroke="#000000" d="M-27.88852 0H311.35664"/>
<path transform="matrix(-1.00002,-0,0,1.00008,2.2265454,313.03355)" stroke-width=".31879" stroke-linecap="round" stroke-linejoin="round" fill="none" stroke="#000000" d="M-1.19551 1.59401C-1.09587 .99626 0 .09961 .29886 0 0-.09961-1.09587-.99626-1.19551-1.59401"/>
<path transform="matrix(1.00002,0,0,-1.00008,341.4785,313.03355)" stroke-width=".31879" stroke-linecap="round" stroke-linejoin="round" fill="none" stroke="#000000" d="M-1.19551 1.59401C-1.09587 .99626 0 .09961 .29886 0 0-.09961-1.09587-.99626-1.19551-1.59401"/>
<use data-text="x" xlink:href="#font_1_1" transform="matrix(10.909318,0,0,-10.909972,324.6455,304.04283)"/>
<path transform="matrix(1.00002,0,0,-1.00008,30.115624,313.03355)" stroke-width=".3985" stroke-linecap="butt" stroke-miterlimit="10" stroke-linejoin="miter" fill="none" stroke="#000000" d="M0-27.88852V311.35664"/>
<path transform="matrix(0,1.00008,1.00002,0,30.115624,340.9243)" stroke-width=".31879" stroke-linecap="round" stroke-linejoin="round" fill="none" stroke="#000000" d="M-1.19551 1.59401C-1.09587 .99626 0 .09961 .29886 0 0-.09961-1.09587-.99626-1.19551-1.59401"/>
<path transform="matrix(0,-1.00008,-1.00002,-0,30.115624,1.652008)" stroke-width=".31879" stroke-linecap="round" stroke-linejoin="round" fill="none" stroke="#000000" d="M-1.19551 1.59401C-1.09587 .99626 0 .09961 .29886 0 0-.09961-1.09587-.99626-1.19551-1.59401"/>
<use data-text="y" xlink:href="#font_1_2" transform="matrix(10.909318,0,0,-10.909972,38.584794,16.655823)"/>
<path transform="matrix(1.00002,0,0,-1.00008,30.115624,313.03355)" stroke-width=".3985" stroke-linecap="butt" stroke-miterlimit="10" stroke-linejoin="miter" fill="none" stroke="#000000" d="M170.08086-2.83484V2.83484"/>
<use data-text="6" xlink:href="#font_2_1" transform="matrix(10.909318,0,0,-10.909972,197.47299,327.88874)"/>
<path transform="matrix(1.00002,0,0,-1.00008,30.115624,313.03355)" stroke-width="1.59404" stroke-linecap="butt" stroke-miterlimit="10" stroke-linejoin="miter" fill="none" stroke="#0000ff" d="M142.11931-27.20459C142.14749-27.12126 142.14749-27.12126 142.30628-26.66379 142.46506-26.20631 142.71974-25.48825 142.87853-25.04956 143.03731-24.61086 143.29199-23.9224 143.45078-23.50194 143.60956-23.08148 143.86423-22.42181 144.02303-22.0192 144.18181-21.61656 144.43648-20.9852 144.59526-20.60004 144.75406-20.21489 145.00873-19.61122 145.16751-19.24318 145.3263-18.87512 145.58098-18.2986 145.73976-17.94728 145.89855-17.59596 146.15323-17.04608 146.31201-16.71109 146.4708-16.3761 146.72548-15.85194 146.88426-15.53285 147.04305-15.21376 147.29773-14.71483 147.45652-14.41129 147.6153-14.10774 147.86997-13.63344 148.02877-13.34508 148.18755-13.05673 148.44222-12.60654 148.601-12.33295 148.75978-12.05936 149.01447-11.63234 149.17325-11.37314 149.33203-11.11395 149.58672-10.71 149.7455-10.46481 149.90428-10.2196 150.15897-9.83737 150.31775-9.60579 150.47653-9.3742 150.73122-9.01402 150.89-8.79564 151.04878-8.57727 151.30345-8.23738 151.46225-8.03177 151.62104-7.82617 151.8757-7.50688 152.03449-7.31377 152.19329-7.12067 152.44795-6.82094 152.60674-6.63988 152.76552-6.45883 153.0202-6.1782 153.17899-6.0088 153.33777-5.83939 153.59246-5.57701 153.75124-5.41881 153.91002-5.26062 154.1647-5.0159 154.32349-4.86864 154.48227-4.72137 154.73696-4.49413 154.89574-4.35736 155.05452-4.22061 155.30919-4.00957 155.46799-3.88289 155.62677-3.75621 155.88144-3.56119 156.04022-3.44429 156.19902-3.3274 156.45369-3.1479 156.61248-3.0403 156.77126-2.9327 157.02594-2.76747 157.18473-2.66875 157.3435-2.57002 157.59819-2.41884 157.75698-2.32877 157.91576-2.2387 158.17044-2.10141 158.32923-2.0195 158.488-1.93759 158.74269-1.81253 158.90148-1.73836 159.06026-1.66418 159.31493-1.5516 159.47371-1.4849 159.6325-1.41817 159.88718-1.31714 160.04596-1.25739 160.20475-1.19762 160.45943-1.10724 160.61821-1.05408 160.777-1.00092 161.03168-.92107 161.19046-.87413 161.34925-.82721 161.60393-.75688 161.76271-.71584 161.9215-.67479 162.17618-.61388 162.33496-.5783 162.49375-.54271 162.74842-.48994 162.90721-.45934 163.066-.42873 163.32067-.38362 163.47945-.3577 163.63825-.33177 163.89292-.29408 164.0517-.27249 164.21048-.25089 164.46517-.21968 164.62395-.20198 164.78273-.18428 165.03742-.1591 165.1962-.14488 165.35498-.13066 165.60967-.11057 165.76845-.09947 165.92723-.08838 166.18192-.0732 166.3407-.06487 166.49948-.05653 166.75415-.04533 166.91295-.03935 167.07173-.03336 167.3264-.02568 167.48519-.0216 167.64398-.01753 167.89865-.01244 168.05744-.00993 168.21622-.00743 168.4709-.00475 168.62969-.00345 168.78847-.00214 169.04315-.00089 169.20194-.00041 169.36072 .00003 169.6154-.00003 169.77419 0 169.93297 .00003 170.18764-.00003 170.34642 0 170.5052 .00003 170.75988-.00003 170.91866 .00041 171.07746 .00089 171.33213 .0022 171.4909 .00345 171.64969 .00468 171.90438 .00716 172.06316 .00949 172.22194 .01184 172.47663 .01642 172.6354 .02032 172.79419 .02422 173.04888 .03175 173.20766 .03761 173.36644 .04349 173.62113 .05449 173.7799 .0627 173.93869 .0709 174.19336 .08601 174.35216 .09688 174.51094 .10773 174.76561 .12701 174.9244 .14099 175.08319 .15497 175.33786 .18019 175.49665 .19765 175.65543 .2151 175.91011 .24556 176.0689 .26686 176.22768 .28816 176.48236 .32565 176.64115 .3512 176.79993 .37675 177.05461 .42094 177.2134 .45113 177.37218 .48131 177.62686 .5335 177.78565 .56877 177.94443 .60406 178.1991 .66478 178.3579 .70546 178.51668 .74614 178.77135 .81554 178.93013 .86203 179.08893 .90854 179.3436 .98799 179.50238 1.04068 179.66117 1.09337 179.91585 1.18257 180.07463 1.24179 180.23342 1.30103 180.4881 1.40134 180.64688 1.46759 180.80567 1.53384 181.06035 1.64569 181.21913 1.71931 181.37792 1.79294 181.6326 1.91693 181.79138 1.9983 181.95017 2.07968 182.20484 2.21637 182.36362 2.30585 182.52242 2.39532 182.77709 2.54523 182.93587 2.64322 183.09465 2.74121 183.34934 2.90524 183.50812 3.01218 183.6669 3.11911 183.92159 3.29778 184.08037 3.414 184.23915 3.53024 184.49384 3.72403 184.65262 3.85 184.8114 3.97597 185.06609 4.18585 185.22487 4.3219 185.38365 4.45795 185.63832 4.68408 185.79712 4.83057 185.9559 4.97707 186.21057 5.22032 186.36936 5.37772 186.52816 5.53513 186.78282 5.79648 186.9416 5.96512 187.10039 6.13374 187.35507 6.41295 187.51386 6.59317 187.67264 6.77339 187.92733 7.07182 188.0861 7.26402 188.24489 7.45624 188.49958 7.77396 188.65836 7.97858 188.81714 8.18321 189.07183 8.5215 189.2306 8.73898 189.38939 8.95647 189.64406 9.31548 189.80286 9.54611 189.96164 9.77673 190.21631 10.15698 190.37509 10.40123 190.53388 10.64548 190.78856 11.0483 190.94734 11.30652 191.10613 11.56476 191.36081 11.98993 191.51959 12.26244 191.67838 12.53496 191.93306 12.98341 192.09185 13.27068 192.25063 13.55795 192.50531 14.0306 192.6641 14.333 192.82288 14.63539 193.07756 15.13228 193.23635 15.45024 193.39513 15.76819 193.6498 16.29074 193.80858 16.62459 193.96738 16.95844 194.22205 17.50633 194.38083 17.85645 194.53961 18.20656 194.7943 18.78116 194.95308 19.14801 195.11186 19.51486 195.36655 20.11667 195.52533 20.50056 195.68412 20.88446 195.9388 21.5136 196.09758 21.91495 196.25637 22.31631 196.51105 22.97418 196.66983 23.39337 196.82862 23.81258 197.08329 24.49886 197.24208 24.93623 197.40087 25.37361 197.65554 26.08961 197.81432 26.5457 197.97312 27.00179 198.38655 28.22351 198.00017 27.08168"/>
<path transform="matrix(-.3196064,.9475858,.94752898,.31962557,172.2378,340.2403)" stroke-width="1.27522" stroke-linecap="round" stroke-linejoin="round" fill="none" stroke="#0000ff" d="M-2.27148 3.02866C-2.0822 1.8929 0 .18927 .56786 0 0-.18927-2.0822-1.8929-2.27148-3.02866"/>
<path transform="matrix(.3205364,-.94726577,-.94720897,-.32055564,228.11975,285.9497)" stroke-width="1.27522" stroke-linecap="round" stroke-linejoin="round" fill="none" stroke="#0000ff" d="M-2.27148 3.02866C-2.0822 1.8929 0 .18927 .56786 0 0-.18927-2.0822-1.8929-2.27148-3.02866"/>
</svg>
