<svg xmlns="http://www.w3.org/2000/svg" xmlns:xlink="http://www.w3.org/1999/xlink" xmlns:inkscape="http://www.inkscape.org/namespaces/inkscape" version="1.1" width="343" height="343" viewBox="0 0 343 343">
<defs>
<path id="font_1_1" d="M.33399964 .30233766C.33999635 .32835389 .36299134 .42037965 .43299867 .42037965 .43798829 .42037965 .46199037 .42037965 .48298646 .40734864 .45498658 .402359 .43499757 .37734986 .43499757 .35334779 .43499757 .33735658 .44599916 .31835938 .47299195 .31835938 .49499513 .31835938 .5269928 .3363495 .5269928 .37635804 .5269928 .42837525 .46798707 .4423828 .43399049 .4423828 .37599183 .4423828 .34098817 .38935853 .32899476 .36634828 .3039856 .43237306 .25 .4423828 .22099304 .4423828 .116989139 .4423828 .05999756 .3133545 .05999756 .28834535 .05999756 .27833558 .069992069 .27833558 .07199097 .27833558 .07998657 .27833558 .08299255 .28033448 .084991458 .28933717 .11898804 .39535523 .18499756 .42037965 .21899414 .42037965 .23799134 .42037965 .272995 .4113617 .272995 .35334779 .272995 .32235719 .2559967 .25532533 .21899414 .11528015 .20298767 .053268434 .16799927 .011245728 .12399292 .011245728 .117996219 .011245728 .09498596 .011245728 .07398987 .024276734 .09899902 .029266358 .12098694 .05027771 .12098694 .07827759 .12098694 .105270389 .09899902 .11328125 .083999637 .11328125 .053985597 .11328125 .0289917 .08728027 .0289917 .055267335 .0289917 .009246826 .07899475-.0107421879 .12298584-.0107421879 .18899536-.0107421879 .22499085 .059280397 .22799683 .0652771 .23999024 .028274537 .27598573-.0107421879 .33599855-.0107421879 .43899537-.0107421879 .49598695 .118270877 .49598695 .14328003 .49598695 .1532898 .4869995 .1532898 .48399354 .1532898 .47499085 .1532898 .47299195 .14929199 .47099305 .14228821 .43798829 .03527832 .36999513 .011245728 .33799745 .011245728 .29899598 .011245728 .2829895 .043273927 .2829895 .07727051 .2829895 .09927368 .2889862 .121276859 .2999878 .16529846L.33399964 .30233766Z"/>
<path id="font_1_2" d="M.48599244 .38136292C.48999024 .39537049 .48999024 .39736939 .48999024 .40437318 .48999024 .42237855 .47599793 .43138124 .46099855 .43138124 .45098878 .43138124 .43499757 .42536927 .42599488 .41036988 .42399598 .405365 .41600038 .37435914 .4119873 .35635377 .40499879 .33035279 .397995 .30334474 .3919983 .27633668L.34700013 .09628296C.34298707 .08126831 .2999878 .011245728 .23399353 .011245728 .18299866 .011245728 .17199707 .055267335 .17199707 .0922699 .17199707 .1382904 .18899536 .20030213 .22299195 .28833009 .23899842 .3293457 .24299622 .3403473 .24299622 .36035157 .24299622 .405365 .21099854 .4423828 .16099549 .4423828 .06599426 .4423828 .0289917 .29733277 .0289917 .28833009 .0289917 .27833558 .038986207 .27833558 .040985109 .27833558 .050994874 .27833558 .051986696 .28033448 .056991579 .29634095 .083999637 .3903656 .12399292 .42037965 .1579895 .42037965 .1659851 .42037965 .18299866 .42037965 .18299866 .3883667 .18299866 .36335755 .17298889 .3373413 .1659851 .31834413 .12599182 .21231079 .10798645 .1552887 .10798645 .10827637 .10798645 .019256592 .17098999-.0107421879 .22999573-.0107421879 .2689972-.0107421879 .30299378 .0062561037 .33099366 .03425598 .31799317-.017745972 .30599977-.06674194 .2659912-.11973572 .23999024-.15385437 .20199585-.18309021 .1559906-.18309021 .14199829-.18309021 .09700012-.18005371 .07998657-.14074707 .09599304-.14074707 .10899353-.14074707 .12298584-.1287384 .1329956-.11973572 .14299011-.10673523 .14299011-.08773804 .14299011-.056747438 .115997318-.052734376 .10598755-.052734376 .08299255-.052734376 .049987794-.068740848 .049987794-.11773682 .049987794-.16796875 .09399414-.20507813 .1559906-.20507813 .25898744-.20507813 .3619995-.11373901 .3899994-.00074768069L.48599244 .38136292Z"/>
</defs>
<path transform="matrix(1.00002,0,0,-1.00005,30.115624,313.0247)" stroke-width=".3985" stroke-linecap="butt" stroke-miterlimit="10" stroke-linejoin="miter" fill="none" stroke="#000000" d="M-27.88852 0H311.35664"/>
<path transform="matrix(-1.00002,-0,0,1.00005,2.2265454,313.0247)" stroke-width=".31879" stroke-linecap="round" stroke-linejoin="round" fill="none" stroke="#000000" d="M-1.19551 1.59401C-1.09587 .99626 0 .09961 .29886 0 0-.09961-1.09587-.99626-1.19551-1.59401"/>
<path transform="matrix(1.00002,0,0,-1.00005,341.4785,313.0247)" stroke-width=".31879" stroke-linecap="round" stroke-linejoin="round" fill="none" stroke="#000000" d="M-1.19551 1.59401C-1.09587 .99626 0 .09961 .29886 0 0-.09961-1.09587-.99626-1.19551-1.59401"/>
<use data-text="x" xlink:href="#font_1_1" transform="matrix(10.909318,0,0,-10.909644,324.6455,304.03425)"/>
<path transform="matrix(1.00002,0,0,-1.00005,30.115624,313.0247)" stroke-width=".3985" stroke-linecap="butt" stroke-miterlimit="10" stroke-linejoin="miter" fill="none" stroke="#000000" d="M0-27.88852V311.35664"/>
<path transform="matrix(0,1.00005,1.00002,0,30.115624,340.9146)" stroke-width=".31879" stroke-linecap="round" stroke-linejoin="round" fill="none" stroke="#000000" d="M-1.19551 1.59401C-1.09587 .99626 0 .09961 .29886 0 0-.09961-1.09587-.99626-1.19551-1.59401"/>
<path transform="matrix(0,-1.00005,-1.00002,-0,30.115624,1.6524963)" stroke-width=".31879" stroke-linecap="round" stroke-linejoin="round" fill="none" stroke="#000000" d="M-1.19551 1.59401C-1.09587 .99626 0 .09961 .29886 0 0-.09961-1.09587-.99626-1.19551-1.59401"/>
<use data-text="y" xlink:href="#font_1_2" transform="matrix(10.909318,0,0,-10.909644,38.584794,16.655884)"/>
<path transform="matrix(1.00002,0,0,-1.00005,30.115624,313.0247)" stroke-width="1.59404" stroke-linecap="butt" stroke-miterlimit="10" stroke-linejoin="miter" fill="none" stroke="#0000ff" d="M42.75803 107.48227C43.5543 111.43887 43.5543 111.43887 43.95146 113.38463 44.34863 115.3304 44.98557 118.4186 45.38274 120.32428 45.77989 122.22995 46.41682 125.2539 46.814 127.11943 47.21117 128.98497 47.84811 131.94428 48.24529 133.76972 48.64244 135.59516 49.27937 138.4906 49.67654 140.27594 50.07372 142.0613 50.71065 144.89209 51.10782 146.63729 51.50497 148.38249 52.1419 151.14905 52.53908 152.85416 52.93625 154.55925 53.57318 157.2616 53.97035 158.92656 54.36751 160.5915 55.00444 163.2292 55.40161 164.85407 55.79878 166.47893 56.43571 169.05274 56.83287 170.63751 57.23004 172.22229 57.86697 174.7314 58.26414 176.27608 58.66132 177.82077 59.29826 180.266 59.69542 181.77062 60.09259 183.2752 60.72952 185.65579 61.1267 187.12026 61.52386 188.5847 62.1608 190.90111 62.55795 192.32541 62.95512 193.74971 63.59206 196.00145 63.98923 197.38567 64.3864 198.76988 65.02333 200.95774 65.42049 202.3019 65.81766 203.64608 66.45459 205.76963 66.85176 207.07366 67.24892 208.37767 67.88585 210.43663 68.28302 211.70052 68.68019 212.96439 69.31712 214.9591 69.7143 216.1829 70.11145 217.4067 70.7484 219.33713 71.14557 220.52083 71.54274 221.70453 72.17967 223.57067 72.57684 224.71428 72.974 225.8579 73.61093 227.6598 74.0081 228.76328 74.40527 229.86673 75.0422 231.60399 75.43938 232.66738 75.83653 233.73075 76.47346 235.40412 76.87064 236.42742 77.2678 237.4507 77.90474 239.05942 78.3019 240.04256 78.69907 241.0257 79.336 242.57019 79.73317 243.51325 80.13034 244.4563 80.76727 245.93651 81.16443 246.83948 81.5616 247.74243 82.19855 249.15836 82.59572 250.02121 82.99289 250.88408 83.62982 252.23578 84.02698 253.05849 84.42415 253.88121 85.06108 255.16826 85.45825 255.95088 85.85541 256.7335 86.49234 257.9567 86.88951 258.69923 87.28668 259.44178 87.92361 260.60029 88.32079 261.30268 88.71794 262.00508 89.35487 263.09938 89.75204 263.76167 90.14922 264.42399 90.78615 265.45396 91.18332 266.07618 91.58047 266.6984 92.2174 267.66416 92.61458 268.24623 93.01175 268.82829 93.6487 269.72938 94.04587 270.27137 94.44302 270.81333 95.07996 271.65058 95.47713 272.15245 95.8743 272.65434 96.51123 273.42695 96.90839 273.88868 97.30556 274.35044 97.94249 275.05876 98.33966 275.4804 98.73683 275.90208 99.37376 276.54615 99.77092 276.9277 100.16809 277.30924 100.80502 277.889 101.2022 278.23048 101.59937 278.57197 102.2363 279.08753 102.63345 279.38883 103.03062 279.69017 103.66757 280.14103 104.06474 280.40226 104.46191 280.66349 105.09885 281.0505 105.496 281.27165 105.89317 281.4928 106.5301 281.81517 106.92728 281.99617 107.32443 282.17716 107.96136 282.4353 108.35854 282.5762 108.7557 282.7171 109.39264 282.91093 109.78981 283.01176 110.18697 283.11259 110.8239 283.2422 111.22107 283.30287 111.61824 283.36354 112.25517 283.42848 112.65234 283.44905 113.0495 283.46965 113.68643 283.47074 114.0836 283.45124 114.48077 283.43174 115.11772 283.36814 115.5149 283.30848 115.91205 283.24885 116.54898 283.12098 116.94615 283.02128 117.34332 282.9216 117.98026 282.72987 118.37741 282.59004 118.77458 282.4502 119.41151 282.19346 119.80869 282.01347 120.20586 281.83348 120.84279 281.51286 121.23994 281.29286 121.63712 281.07286 122.27405 280.68794 122.67122 280.42778 123.06839 280.16764 123.70532 279.7181 124.10248 279.4178 124.49965 279.1175 125.13658 278.60368 125.53375 278.26338 125.93092 277.92304 126.56787 277.34529 126.96503 276.9649 127.3622 276.58448 127.99913 275.9421 128.3963 275.5215 128.79346 275.1009 129.43039 274.39396 129.82756 273.9332 130.22473 273.4725 130.86167 272.70167 131.25884 272.2009 131.65599 271.70018 132.29293 270.86503 132.6901 270.32414 133.08727 269.78324 133.7242 268.88349 134.12137 268.30244 134.51853 267.72138 135.15546 266.75743 135.55263 266.1363 135.9498 265.51515 136.58673 264.4869 136.9839 263.82569 137.38106 263.16444 138.018 262.0719 138.41518 261.37059 138.81235 260.66929 139.44928 259.51246 139.84644 258.77104 140.2436 258.02964 140.88054 256.80857 141.27771 256.027 141.67488 255.24547 142.31182 253.9598 142.70897 253.13809 143.10614 252.31639 143.74308 250.9665 144.14025 250.1047 144.53742 249.2429 145.17435 247.82872 145.5715 246.92684 145.96868 246.02495 146.6056 244.5465 147.00278 243.60453 147.39995 242.66255 148.03688 241.11978 148.43404 240.13773 148.8312 239.15566 149.46816 237.54862 149.86533 236.52646 150.26248 235.50432 150.89942 233.83304 151.29659 232.77074 151.69376 231.70844 152.33069 229.97255 152.72786 228.8701 153.12502 227.76767 153.76195 225.96755 154.15912 224.82501 154.55629 223.68248 155.19322 221.81809 155.5904 220.63545 155.98755 219.45284 156.62448 217.52413 157.02165 216.30142 157.41883 215.0787 158.05576 213.08573 158.45293 211.82294 158.85009 210.56014 159.48703 208.50293 159.8842 207.19997 160.28137 205.897 160.9183 203.77515 161.31546 202.43209 161.71263 201.08904 162.34957 198.90334 162.74674 197.52019 163.1439 196.13706 163.78084 193.88668 164.178 192.4634 164.57517 191.04012 165.2121 188.72548 165.60927 187.26212 166.00644 185.79874 166.64337 183.4199 167.04053 181.91638 167.4377 180.41286 168.07463 177.96936 168.4718 176.42575 168.86896 174.88214 169.50589 172.37477 169.90306 170.79108 170.30023 169.20738 170.93718 166.63529 171.33435 165.01149 171.7315 163.38771 172.36844 160.75176 172.76561 159.08789 173.16278 157.42401 173.79972 154.7234 174.19689 153.01938 174.59404 151.31537 175.23097 148.55054 175.62815 146.80641 176.02532 145.06229 176.66225 142.23323 177.05942 140.44896 177.45658 138.66469 178.0935 135.77098 178.49068 133.94661 178.88785 132.12226 179.52478 129.16469 179.92194 127.30023 180.3191 125.43579 180.95604 122.41356 181.35321 120.50896 181.75038 118.60437 182.38733 115.5179 182.78449 113.57321 183.18166 111.62852 184.21576 106.493 183.97783 107.67471"/>
<path transform="matrix(-.19728396,.98034897,.9803196,.19728986,72.87451,205.53705)" stroke-width="1.27522" stroke-linecap="round" stroke-linejoin="round" fill="none" stroke="#0000ff" d="M-2.27148 3.02866C-2.0822 1.8929 0 .18927 .56786 0 0-.18927-2.0822-1.8929-2.27148-3.02866"/>
<path transform="matrix(.19737394,.98031899,.98028966,-.19737986,214.09714,205.3446)" stroke-width="1.27522" stroke-linecap="round" stroke-linejoin="round" fill="none" stroke="#0000ff" d="M-2.27148 3.02866C-2.0822 1.8929 0 .18927 .56786 0 0-.18927-2.0822-1.8929-2.27148-3.02866"/>
</svg>
