<svg xmlns="http://www.w3.org/2000/svg" xmlns:xlink="http://www.w3.org/1999/xlink" xmlns:inkscape="http://www.inkscape.org/namespaces/inkscape" version="1.1" width="343" height="343" viewBox="0 0 343 343">
<defs>
<path id="font_1_1" d="M.33399964 .30233766C.33999635 .32835389 .36299134 .42037965 .43299867 .42037965 .43798829 .42037965 .46199037 .42037965 .48298646 .40734864 .45498658 .402359 .43499757 .37734986 .43499757 .35334779 .43499757 .33735658 .44599916 .31835938 .47299195 .31835938 .49499513 .31835938 .5269928 .3363495 .5269928 .37635804 .5269928 .42837525 .46798707 .4423828 .43399049 .4423828 .37599183 .4423828 .34098817 .38935853 .32899476 .36634828 .3039856 .43237306 .25 .4423828 .22099304 .4423828 .116989139 .4423828 .05999756 .3133545 .05999756 .28834535 .05999756 .27833558 .069992069 .27833558 .07199097 .27833558 .07998657 .27833558 .08299255 .28033448 .084991458 .28933717 .11898804 .39535523 .18499756 .42037965 .21899414 .42037965 .23799134 .42037965 .272995 .4113617 .272995 .35334779 .272995 .32235719 .2559967 .25532533 .21899414 .11528015 .20298767 .053268434 .16799927 .011245728 .12399292 .011245728 .117996219 .011245728 .09498596 .011245728 .07398987 .024276734 .09899902 .029266358 .12098694 .05027771 .12098694 .07827759 .12098694 .105270389 .09899902 .11328125 .083999637 .11328125 .053985597 .11328125 .0289917 .08728027 .0289917 .055267335 .0289917 .009246826 .07899475-.0107421879 .12298584-.0107421879 .18899536-.0107421879 .22499085 .059280397 .22799683 .0652771 .23999024 .028274537 .27598573-.0107421879 .33599855-.0107421879 .43899537-.0107421879 .49598695 .118270877 .49598695 .14328003 .49598695 .1532898 .4869995 .1532898 .48399354 .1532898 .47499085 .1532898 .47299195 .14929199 .47099305 .14228821 .43798829 .03527832 .36999513 .011245728 .33799745 .011245728 .29899598 .011245728 .2829895 .043273927 .2829895 .07727051 .2829895 .09927368 .2889862 .121276859 .2999878 .16529846L.33399964 .30233766Z"/>
<path id="font_1_2" d="M.48599244 .38136292C.48999024 .39537049 .48999024 .39736939 .48999024 .40437318 .48999024 .42237855 .47599793 .43138124 .46099855 .43138124 .45098878 .43138124 .43499757 .42536927 .42599488 .41036988 .42399598 .405365 .41600038 .37435914 .4119873 .35635377 .40499879 .33035279 .397995 .30334474 .3919983 .27633668L.34700013 .09628296C.34298707 .08126831 .2999878 .011245728 .23399353 .011245728 .18299866 .011245728 .17199707 .055267335 .17199707 .0922699 .17199707 .1382904 .18899536 .20030213 .22299195 .28833009 .23899842 .3293457 .24299622 .3403473 .24299622 .36035157 .24299622 .405365 .21099854 .4423828 .16099549 .4423828 .06599426 .4423828 .0289917 .29733277 .0289917 .28833009 .0289917 .27833558 .038986207 .27833558 .040985109 .27833558 .050994874 .27833558 .051986696 .28033448 .056991579 .29634095 .083999637 .3903656 .12399292 .42037965 .1579895 .42037965 .1659851 .42037965 .18299866 .42037965 .18299866 .3883667 .18299866 .36335755 .17298889 .3373413 .1659851 .31834413 .12599182 .21231079 .10798645 .1552887 .10798645 .10827637 .10798645 .019256592 .17098999-.0107421879 .22999573-.0107421879 .2689972-.0107421879 .30299378 .0062561037 .33099366 .03425598 .31799317-.017745972 .30599977-.06674194 .2659912-.11973572 .23999024-.15385437 .20199585-.18309021 .1559906-.18309021 .14199829-.18309021 .09700012-.18005371 .07998657-.14074707 .09599304-.14074707 .10899353-.14074707 .12298584-.1287384 .1329956-.11973572 .14299011-.10673523 .14299011-.08773804 .14299011-.056747438 .115997318-.052734376 .10598755-.052734376 .08299255-.052734376 .049987794-.068740848 .049987794-.11773682 .049987794-.16796875 .09399414-.20507813 .1559906-.20507813 .25898744-.20507813 .3619995-.11373901 .3899994-.00074768069L.48599244 .38136292Z"/>
<path id="font_2_1" d="M.13198853 .327713V.35173036C.13198853 .6047821 .2559967 .64100649 .30699159 .64100649 .33099366 .64100649 .37298585 .634964 .394989 .6007538 .37998963 .6007538 .33999635 .6007538 .33999635 .5557556 .33999635 .524765 .3639984 .5097656 .38598634 .5097656 .4019928 .5097656 .43199159 .51875308 .43199159 .5577545 .43199159 .6178589 .3880005 .6660156 .30499269 .6660156 .1769867 .6660156 .041992189 .5367584 .041992189 .31570436 .041992189 .048553468 .1579895-.022460938 .25099183-.022460938 .3619995-.022460938 .45700074 .07156372 .45700074 .2036438 .45700074 .33070375 .36799623 .4267578 .25698854 .4267578 .18899536 .4267578 .1519928 .37573243 .13198853 .327713M.25099183 .0055389406C.18798828 .0055389406 .1579895 .06556702 .1519928 .080566409 .13398743 .127594 .13398743 .2076416 .13398743 .22564698 .13398743 .30369569 .1659851 .40374757 .2559967 .40374757 .27198792 .40374757 .31799317 .40374757 .34899903 .34172059 .36698915 .30470277 .36698915 .2536621 .36698915 .20463562 .36698915 .15661621 .36698915 .10658264 .34999085 .0705719 .31999208 .010528564 .27398683 .0055389406 .25099183 .0055389406Z"/>
</defs>
<path transform="matrix(1.00002,0,0,-1.00008,30.115624,313.03355)" stroke-width=".3985" stroke-linecap="butt" stroke-miterlimit="10" stroke-linejoin="miter" fill="none" stroke="#000000" d="M-27.88852 0H311.35664"/>
<path transform="matrix(-1.00002,-0,0,1.00008,2.2265454,313.03355)" stroke-width=".31879" stroke-linecap="round" stroke-linejoin="round" fill="none" stroke="#000000" d="M-1.19551 1.59401C-1.09587 .99626 0 .09961 .29886 0 0-.09961-1.09587-.99626-1.19551-1.59401"/>
<path transform="matrix(1.00002,0,0,-1.00008,341.4785,313.03355)" stroke-width=".31879" stroke-linecap="round" stroke-linejoin="round" fill="none" stroke="#000000" d="M-1.19551 1.59401C-1.09587 .99626 0 .09961 .29886 0 0-.09961-1.09587-.99626-1.19551-1.59401"/>
<use data-text="x" xlink:href="#font_1_1" transform="matrix(10.909318,0,0,-10.909972,324.6455,304.04283)"/>
<path transform="matrix(1.00002,0,0,-1.00008,30.115624,313.03355)" stroke-width=".3985" stroke-linecap="butt" stroke-miterlimit="10" stroke-linejoin="miter" fill="none" stroke="#000000" d="M0-27.88852V311.35664"/>
<path transform="matrix(0,1.00008,1.00002,0,30.115624,340.9243)" stroke-width=".31879" stroke-linecap="round" stroke-linejoin="round" fill="none" stroke="#000000" d="M-1.19551 1.59401C-1.09587 .99626 0 .09961 .29886 0 0-.09961-1.09587-.99626-1.19551-1.59401"/>
<path transform="matrix(0,-1.00008,-1.00002,-0,30.115624,1.652008)" stroke-width=".31879" stroke-linecap="round" stroke-linejoin="round" fill="none" stroke="#000000" d="M-1.19551 1.59401C-1.09587 .99626 0 .09961 .29886 0 0-.09961-1.09587-.99626-1.19551-1.59401"/>
<use data-text="y" xlink:href="#font_1_2" transform="matrix(10.909318,0,0,-10.909972,38.584794,16.655823)"/>
<path transform="matrix(1.00002,0,0,-1.00008,30.115624,313.03355)" stroke-width=".3985" stroke-linecap="butt" stroke-miterlimit="10" stroke-linejoin="miter" fill="none" stroke="#000000" d="M170.08086-2.83484V2.83484"/>
<use data-text="6" xlink:href="#font_2_1" transform="matrix(10.909318,0,0,-10.909972,197.47299,327.88874)"/>
<path transform="matrix(1.00002,0,0,-1.00008,30.115624,313.03355)" stroke-width="1.59404" stroke-linecap="butt" stroke-miterlimit="10" stroke-linejoin="miter" fill="none" stroke="#0000ff" d="M141.9761-27.16591C142.14749-26.33011 142.14749-26.33011 142.30628-25.59758 142.46506-24.86507 142.71974-23.74106 142.87853-23.06723 143.03731-22.3934 143.29199-21.35995 143.45078-20.74104 143.60956-20.12212 143.86423-19.17397 144.02303-18.60648 144.18181-18.03899 144.43648-17.17024 144.59526-16.65096 144.75406-16.13168 145.00873-15.33795 145.16751-14.86372 145.3263-14.3895 145.58098-13.6652 145.73976-13.23306 145.89855-12.8009 146.15323-12.14198 146.31201-11.74901 146.4708-11.35603 146.72548-10.75732 146.88426-10.40079 147.04305-10.04427 147.29773-9.50188 147.45652-9.1793 147.6153-8.85674 147.86997-8.36702 148.02877-8.07591 148.18755-7.78479 148.44222-7.34319 148.601-7.08105 148.75978-6.81892 149.01447-6.42189 149.17325-6.18657 149.33203-5.95126 149.58672-5.59566 149.7455-5.38509 149.90428-5.1745 150.15897-4.85669 150.31775-4.6688 150.47653-4.4809 150.73122-4.19788 150.89-4.0308 151.04878-3.86374 151.30345-3.61267 151.46225-3.46461 151.62104-3.31656 151.8757-3.09445 152.03449-2.96375 152.19329-2.83304 152.44795-2.63742 152.60674-2.52255 152.76552-2.40768 153.0202-2.23637 153.17899-2.13585 153.33777-2.03534 153.59246-1.88567 153.75124-1.79805 153.91002-1.71045 154.1647-1.58037 154.32349-1.50435 154.48227-1.42833 154.73696-1.3156 154.89574-1.25002 155.05452-1.18443 155.30919-1.08781 155.46799-1.03159 155.62677-.97536 155.88144-.89268 156.04022-.84474 156.19902-.79678 156.45369-.72656 156.61248-.68599 156.77126-.64543 157.02594-.58649 157.18473-.55234 157.3435-.5182 157.59819-.46838 157.75698-.43988 157.91576-.41138 158.17044-.3704 158.32923-.3469 158.488-.32336 158.74269-.28964 158.90148-.27031 159.06026-.25099 159.31493-.22327 159.47371-.20761 159.6325-.19194 159.88718-.16997 160.04596-.15742 160.20475-.14488 160.45943-.12715 160.61821-.1172 160.777-.10724 161.03168-.09337 161.19046-.08563 161.34925-.07788 161.60393-.06734 161.76271-.0614 161.9215-.05548 162.17618-.0473 162.33496-.0428 162.49375-.0383 162.74842-.03227 162.90721-.02896 163.066-.02567 163.32067-.02135 163.47945-.01901 163.63825-.01666 163.89292-.0137 164.0517-.0121 164.21048-.01048 164.46517-.00845 164.62395-.00734 164.78273-.00621 165.03742-.0046 165.1962-.00389 165.35498-.00317 165.60967-.00256 165.76845-.00215 165.92723-.00174 166.18192-.00107 166.3407-.00084 166.49948-.00061 166.75415-.00052 166.91295-.00041 167.07173-.0003 167.3264-.00003 167.48519 0 167.64398 .00003 167.89865 0 168.05744 0 168.21622 0 168.4709 0 168.62969 0 168.78847 0 169.04315 0 169.20194 0 169.36072 0 169.6154 0 169.77419 0 169.93297 0 170.18764 0 170.34642 0 170.5052 0 170.75988 0 170.91866 0 171.07746 0 171.33213 0 171.4909 0 171.64969 0 171.90438 0 172.06316 0 172.22194 0 172.47663 0 172.6354 0 172.79419 0 173.04888-.00009 173.20766 0 173.36644 .00009 173.62113 .00061 173.7799 .00084 173.93869 .00107 174.19336 .0013 174.35216 .00171 174.51094 .00212 174.76561 .00317 174.9244 .00389 175.08319 .0046 175.33786 .00583 175.49665 .00691 175.65543 .008 175.91011 .01006 176.0689 .01167 176.22768 .01328 176.48236 .01633 176.64115 .01859 176.79993 .02084 177.05461 .02486 177.2134 .0281 177.37218 .03134 177.62686 .03755 177.78565 .04193 177.94443 .04631 178.1991 .05386 178.3579 .05968 178.51668 .06548 178.77135 .07628 178.93013 .0839 179.08893 .0915 179.3436 .10489 179.50238 .1146 179.66117 .12431 179.91585 .14162 180.07463 .15398 180.23342 .16634 180.4881 .1883 180.64688 .20372 180.80567 .21913 181.06035 .24611 181.21913 .26514 181.37792 .28415 181.6326 .31761 181.79138 .34082 181.95017 .36403 182.20484 .40443 182.36362 .43253 182.52242 .4606 182.77709 .50954 182.93587 .54324 183.09465 .57697 183.34934 .63547 183.50812 .67561 183.6669 .71576 183.92159 .78528 184.08037 .83263 184.23915 .87996 184.49384 .96132 184.65262 1.01688 184.8114 1.07245 185.06609 1.16821 185.22487 1.23314 185.38365 1.29808 185.63832 1.40964 185.79712 1.4849 185.9559 1.56013 186.21057 1.68884 186.36936 1.77556 186.52816 1.86226 186.78282 2.01035 186.9416 2.10991 187.10039 2.20946 187.35507 2.3793 187.51386 2.49313 187.67264 2.60696 187.92733 2.80093 188.0861 2.93044 188.24489 3.05994 188.49958 3.27988 188.65836 3.42654 188.81714 3.57321 189.07183 3.82191 189.2306 3.98755 189.38939 4.15317 189.64406 4.43398 189.80286 4.62036 189.96164 4.80675 190.21631 5.12212 190.37509 5.33102 190.53388 5.53993 190.78856 5.89258 190.94734 6.12602 191.10613 6.35947 191.36081 6.75345 191.51959 7.0136 191.67838 7.27374 191.93306 7.71205 192.09185 8.00107 192.25063 8.29008 192.50531 8.77646 192.6641 9.0967 192.82288 9.41692 193.07756 9.95514 193.23635 10.3091 193.39513 10.66304 193.6498 11.25758 193.80858 11.6478 193.96738 12.038 194.22205 12.6923 194.38083 13.12146 194.53961 13.55061 194.7943 14.26973 194.95308 14.74088 195.11186 15.21204 195.36655 16.00139 195.52533 16.5173 195.68412 17.03323 195.9388 17.89546 196.09758 18.45941 196.25637 19.02335 196.51105 19.96667 196.66983 20.58188 196.82862 21.19707 197.08329 22.22362 197.24208 22.89336 197.40087 23.5631 197.65554 24.68085 197.81432 25.409 197.97312 26.13713 198.38655 28.14133 198.14313 26.96074"/>
<path transform="matrix(-.20080403,.97965839,.9795996,.20081607,172.09458,340.20164)" stroke-width="1.27522" stroke-linecap="round" stroke-linejoin="round" fill="none" stroke="#0000ff" d="M-2.27148 3.02866C-2.0822 1.8929 0 .18927 .56786 0 0-.18927-2.0822-1.8929-2.27148-3.02866"/>
<path transform="matrix(.20193404,-.97941836,-.9793596,-.20194616,228.26273,286.07066)" stroke-width="1.27522" stroke-linecap="round" stroke-linejoin="round" fill="none" stroke="#0000ff" d="M-2.27148 3.02866C-2.0822 1.8929 0 .18927 .56786 0 0-.18927-2.0822-1.8929-2.27148-3.02866"/>
</svg>
