<svg xmlns="http://www.w3.org/2000/svg" xmlns:xlink="http://www.w3.org/1999/xlink" xmlns:inkscape="http://www.inkscape.org/namespaces/inkscape" version="1.1" width="343" height="343" viewBox="0 0 343 343">
<defs>
<path id="font_1_1" d="M.33399964 .30233766C.33999635 .32835389 .36299134 .42037965 .43299867 .42037965 .43798829 .42037965 .46199037 .42037965 .48298646 .40734864 .45498658 .402359 .43499757 .37734986 .43499757 .35334779 .43499757 .33735658 .44599916 .31835938 .47299195 .31835938 .49499513 .31835938 .5269928 .3363495 .5269928 .37635804 .5269928 .42837525 .46798707 .4423828 .43399049 .4423828 .37599183 .4423828 .34098817 .38935853 .32899476 .36634828 .3039856 .43237306 .25 .4423828 .22099304 .4423828 .116989139 .4423828 .05999756 .3133545 .05999756 .28834535 .05999756 .27833558 .069992069 .27833558 .07199097 .27833558 .07998657 .27833558 .08299255 .28033448 .084991458 .28933717 .11898804 .39535523 .18499756 .42037965 .21899414 .42037965 .23799134 .42037965 .272995 .4113617 .272995 .35334779 .272995 .32235719 .2559967 .25532533 .21899414 .11528015 .20298767 .053268434 .16799927 .011245728 .12399292 .011245728 .117996219 .011245728 .09498596 .011245728 .07398987 .024276734 .09899902 .029266358 .12098694 .05027771 .12098694 .07827759 .12098694 .105270389 .09899902 .11328125 .083999637 .11328125 .053985597 .11328125 .0289917 .08728027 .0289917 .055267335 .0289917 .009246826 .07899475-.0107421879 .12298584-.0107421879 .18899536-.0107421879 .22499085 .059280397 .22799683 .0652771 .23999024 .028274537 .27598573-.0107421879 .33599855-.0107421879 .43899537-.0107421879 .49598695 .118270877 .49598695 .14328003 .49598695 .1532898 .4869995 .1532898 .48399354 .1532898 .47499085 .1532898 .47299195 .14929199 .47099305 .14228821 .43798829 .03527832 .36999513 .011245728 .33799745 .011245728 .29899598 .011245728 .2829895 .043273927 .2829895 .07727051 .2829895 .09927368 .2889862 .121276859 .2999878 .16529846L.33399964 .30233766Z"/>
<path id="font_1_2" d="M.48599244 .38136292C.48999024 .39537049 .48999024 .39736939 .48999024 .40437318 .48999024 .42237855 .47599793 .43138124 .46099855 .43138124 .45098878 .43138124 .43499757 .42536927 .42599488 .41036988 .42399598 .405365 .41600038 .37435914 .4119873 .35635377 .40499879 .33035279 .397995 .30334474 .3919983 .27633668L.34700013 .09628296C.34298707 .08126831 .2999878 .011245728 .23399353 .011245728 .18299866 .011245728 .17199707 .055267335 .17199707 .0922699 .17199707 .1382904 .18899536 .20030213 .22299195 .28833009 .23899842 .3293457 .24299622 .3403473 .24299622 .36035157 .24299622 .405365 .21099854 .4423828 .16099549 .4423828 .06599426 .4423828 .0289917 .29733277 .0289917 .28833009 .0289917 .27833558 .038986207 .27833558 .040985109 .27833558 .050994874 .27833558 .051986696 .28033448 .056991579 .29634095 .083999637 .3903656 .12399292 .42037965 .1579895 .42037965 .1659851 .42037965 .18299866 .42037965 .18299866 .3883667 .18299866 .36335755 .17298889 .3373413 .1659851 .31834413 .12599182 .21231079 .10798645 .1552887 .10798645 .10827637 .10798645 .019256592 .17098999-.0107421879 .22999573-.0107421879 .2689972-.0107421879 .30299378 .0062561037 .33099366 .03425598 .31799317-.017745972 .30599977-.06674194 .2659912-.11973572 .23999024-.15385437 .20199585-.18309021 .1559906-.18309021 .14199829-.18309021 .09700012-.18005371 .07998657-.14074707 .09599304-.14074707 .10899353-.14074707 .12298584-.1287384 .1329956-.11973572 .14299011-.10673523 .14299011-.08773804 .14299011-.056747438 .115997318-.052734376 .10598755-.052734376 .08299255-.052734376 .049987794-.068740848 .049987794-.11773682 .049987794-.16796875 .09399414-.20507813 .1559906-.20507813 .25898744-.20507813 .3619995-.11373901 .3899994-.00074768069L.48599244 .38136292Z"/>
<path id="font_2_1" d="M.13198853 .327713V.35173036C.13198853 .6047821 .2559967 .64100649 .30699159 .64100649 .33099366 .64100649 .37298585 .634964 .394989 .6007538 .37998963 .6007538 .33999635 .6007538 .33999635 .5557556 .33999635 .524765 .3639984 .5097656 .38598634 .5097656 .4019928 .5097656 .43199159 .51875308 .43199159 .5577545 .43199159 .6178589 .3880005 .6660156 .30499269 .6660156 .1769867 .6660156 .041992189 .5367584 .041992189 .31570436 .041992189 .048553468 .1579895-.022460938 .25099183-.022460938 .3619995-.022460938 .45700074 .07156372 .45700074 .2036438 .45700074 .33070375 .36799623 .4267578 .25698854 .4267578 .18899536 .4267578 .1519928 .37573243 .13198853 .327713M.25099183 .0055389406C.18798828 .0055389406 .1579895 .06556702 .1519928 .080566409 .13398743 .127594 .13398743 .2076416 .13398743 .22564698 .13398743 .30369569 .1659851 .40374757 .2559967 .40374757 .27198792 .40374757 .31799317 .40374757 .34899903 .34172059 .36698915 .30470277 .36698915 .2536621 .36698915 .20463562 .36698915 .15661621 .36698915 .10658264 .34999085 .0705719 .31999208 .010528564 .27398683 .0055389406 .25099183 .0055389406Z"/>
<path id="font_2_2" d="M.16299439 .4569702C.116989139 .486969 .11299133 .52098086 .11299133 .5379791 .11299133 .598999 .17799378 .64100649 .24899292 .64100649 .32199098 .64100649 .38598634 .58898928 .38598634 .51698306 .38598634 .45996095 .34700013 .4119568 .2869873 .37695313L.16299439 .4569702M.30899049 .36193849C.3809967 .3989563 .42999269 .45095826 .42999269 .51698306 .42999269 .6090088 .34098817 .6660156 .25 .6660156 .1499939 .6660156 .068984989 .59199526 .068984989 .49897767 .068984989 .4809723 .070999149 .43595887 .11299133 .38894654 .12399292 .37695313 .16099549 .35194398 .18598938 .33494569 .12799073 .30592347 .041992189 .24984741 .041992189 .15072632 .041992189 .04458618 .14399719-.022460938 .24899292-.022460938 .3619995-.022460938 .45700074 .06060791 .45700074 .16773987 .45700074 .20379639 .44599916 .24885559 .4079895 .2909088 .3889923 .31193543 .37298585 .3219452 .30899049 .36193849M.20899964 .3199463 .33198548 .24183655C.3600006 .2228241 .40699769 .19277954 .40699769 .13169861 .40699769 .05760193 .33198548 .0055389406 .25 .0055389406 .1639862 .0055389406 .09199524 .067611698 .09199524 .15072632 .09199524 .20880127 .12399292 .27288819 .20899964 .3199463Z"/>
</defs>
<path transform="matrix(1.00002,0,0,-1.00008,30.115624,313.03355)" stroke-width=".3985" stroke-linecap="butt" stroke-miterlimit="10" stroke-linejoin="miter" fill="none" stroke="#000000" d="M-27.88852 0H311.35664"/>
<path transform="matrix(-1.00002,-0,0,1.00008,2.2265454,313.03355)" stroke-width=".31879" stroke-linecap="round" stroke-linejoin="round" fill="none" stroke="#000000" d="M-1.19551 1.59401C-1.09587 .99626 0 .09961 .29886 0 0-.09961-1.09587-.99626-1.19551-1.59401"/>
<path transform="matrix(1.00002,0,0,-1.00008,341.4785,313.03355)" stroke-width=".31879" stroke-linecap="round" stroke-linejoin="round" fill="none" stroke="#000000" d="M-1.19551 1.59401C-1.09587 .99626 0 .09961 .29886 0 0-.09961-1.09587-.99626-1.19551-1.59401"/>
<use data-text="x" xlink:href="#font_1_1" transform="matrix(10.909318,0,0,-10.909972,324.6455,304.04283)"/>
<path transform="matrix(1.00002,0,0,-1.00008,30.115624,313.03355)" stroke-width=".3985" stroke-linecap="butt" stroke-miterlimit="10" stroke-linejoin="miter" fill="none" stroke="#000000" d="M0-27.88852V311.35664"/>
<path transform="matrix(0,1.00008,1.00002,0,30.115624,340.9243)" stroke-width=".31879" stroke-linecap="round" stroke-linejoin="round" fill="none" stroke="#000000" d="M-1.19551 1.59401C-1.09587 .99626 0 .09961 .29886 0 0-.09961-1.09587-.99626-1.19551-1.59401"/>
<path transform="matrix(0,-1.00008,-1.00002,-0,30.115624,1.652008)" stroke-width=".31879" stroke-linecap="round" stroke-linejoin="round" fill="none" stroke="#000000" d="M-1.19551 1.59401C-1.09587 .99626 0 .09961 .29886 0 0-.09961-1.09587-.99626-1.19551-1.59401"/>
<use data-text="y" xlink:href="#font_1_2" transform="matrix(10.909318,0,0,-10.909972,38.584794,16.655823)"/>
<path transform="matrix(1.00002,0,0,-1.00008,30.115624,313.03355)" stroke-width=".3985" stroke-linecap="butt" stroke-miterlimit="10" stroke-linejoin="miter" fill="none" stroke="#000000" d="M170.08086-2.83484V2.83484"/>
<use data-text="6" xlink:href="#font_2_1" transform="matrix(10.909318,0,0,-10.909972,197.47299,327.88874)"/>
<path transform="matrix(1.00002,0,0,-1.00008,30.115624,313.03355)" stroke-width=".3985" stroke-linecap="butt" stroke-miterlimit="10" stroke-linejoin="miter" fill="none" stroke="#000000" d="M226.77448-2.83484V2.83484"/>
<use data-text="8" xlink:href="#font_2_2" transform="matrix(10.909318,0,0,-10.909972,254.16712,327.88874)"/>
<path transform="matrix(1.00002,0,0,-1.00008,30.115624,313.03355)" stroke-width="1.59404" stroke-linecap="butt" stroke-miterlimit="10" stroke-linejoin="miter" fill="none" stroke="#0000ff" d="M142.01364-27.17381C142.37532-25.65752 142.37532-25.65752 142.62162-24.69748 142.86789-23.73744 143.2629-22.28621 143.50917-21.42706 143.75547-20.5679 144.15045-19.27164 144.39675-18.50525 144.64304-17.73888 145.03803-16.58464 145.28432-15.90355 145.5306-15.22244 145.9256-14.1994 146.17188-13.59639 146.41817-12.99336 146.81316-12.08894 147.05945-11.5574 147.30574-11.02586 147.70073-10.23158 147.94702-9.7654 148.1933-9.29921 148.58829-8.60445 148.83458-8.19745 149.08087-7.79045 149.47586-7.18535 149.72216-6.83192 149.96843-6.47852 150.36344-5.95528 150.60971-5.65024 150.856-5.34518 151.25099-4.89493 151.49729-4.63333 151.74358-4.37173 152.13857-3.98756 152.38486-3.76479 152.63114-3.54202 153.02614-3.21608 153.27242-3.02776 153.5187-2.83943 153.9137-2.56537 154.15999-2.40749 154.40628-2.2496 154.80127-2.02075 155.04756-1.88976 155.29384-1.75876 155.68883-1.57074 155.93512-1.46326 156.18141-1.35577 156.5764-1.20244 156.8227-1.11507 157.06897-1.02771 157.46398-.90352 157.71025-.83348 157.95655-.76346 158.35153-.66527 158.59783-.61029 158.84412-.55531 159.2391-.47981 159.4854-.43727 159.73168-.39474 160.12668-.33601 160.37296-.30362 160.61925-.27122 161.01424-.22766 161.26053-.20372 161.50682-.17976 161.90181-.14815 162.1481-.13104 162.39438-.11395 162.78937-.09225 163.03566-.08044 163.28195-.06863 163.67694-.05374 163.92324-.04582 164.16951-.0379 164.56452-.0282 164.81079-.02335 165.05709-.0185 165.45207-.01355 165.69837-.0108 165.94466-.00806 166.33965-.0048 166.58594-.00345 166.83222-.00208 167.22722-.00131 167.4735-.00084 167.71979-.00037 168.11478-.00009 168.36107 0 168.60736 .00009 169.00235 0 169.24864 0 169.49492 0 169.88991 0 170.1362 0 170.38249 0 170.77748 0 171.02378 0 171.27005 0 171.66507 .00003 171.91135 0 172.15764-.00003 172.55263 .00009 172.79892-.00041 173.04521-.00095 173.4402-.00258 173.6865-.00389 173.93277-.00519 174.32778-.00749 174.57405-.00993 174.82035-.01237 175.21533-.0176 175.46163-.0216 175.70792-.02562 176.1029-.03273 176.34918-.03891 176.59548-.04507 176.99047-.05711 177.23676-.06616 177.48305-.07523 177.87804-.09181 178.12433-.10423 178.3706-.11665 178.76561-.139 179.01189-.15569 179.25818-.17236 179.65317-.20287 179.89946-.22447 180.14575-.24606 180.54074-.28435 180.78704-.3114 181.03331-.33847 181.42832-.38608 181.67459-.41956 181.92089-.45303 182.31587-.51196 182.56217-.55276 182.80846-.59357 183.20345-.6649 183.44972-.71368 183.69602-.76247 184.091-.847 184.3373-.90442 184.58359-.96184 184.97858-1.06084 185.22487-1.12761 185.47115-1.1944 185.86615-1.30896 186.11243-1.38583 186.35872-1.4627 186.75371-1.59402 187-1.6817 187.24629-1.76936 187.64128-1.91884 187.88758-2.01778 188.13385-2.11673 188.52886-2.28416 188.77513-2.39494 189.02143-2.50572 189.41641-2.6931 189.6627-2.81624 189.909-2.93938 190.30399-3.14677 190.55027-3.28252 190.79656-3.41824 191.19155-3.646 191.43784-3.79463 191.68413-3.94328 192.07912-4.19225 192.32541-4.35391 192.57169-4.5156 192.96669-4.7851 193.21297-4.9599 193.45926-5.1347 193.85425-5.42595 194.10054-5.6139 194.34683-5.80186 194.74182-6.11374 194.98812-6.3146 195.23439-6.51547 195.6294-6.84825 195.87567-7.0616 196.12197-7.27495 196.51696-7.62695 196.76325-7.85228 197.00954-8.07762 197.40453-8.44891 197.6508-8.68578 197.8971-8.92264 198.29209-9.31209 198.53838-9.55951 198.78467-9.80695 199.17966-10.21216 199.42595-10.46913 199.67223-10.72612 200.06723-11.14621 200.3135-11.41164 200.5598-11.67706 200.95479-12.1098 201.20108-12.38225 201.44738-12.6547 201.84238-13.09744 202.08867-13.37537 202.33495-13.65329 202.72995-14.1037 202.97623-14.38533 203.22252-14.66696 203.61751-15.122 203.8638-15.40526 204.11009-15.6885 204.50508-16.14426 204.75136-16.42691 204.99765-16.70958 205.39264-17.16298 205.63893-17.44252 205.88523-17.72205 206.28022-18.16797 206.5265-18.44168 206.77278-18.7154 207.16779-19.15048 207.41407-19.41531 207.66036-19.68016 208.05535-20.09787 208.30164-20.35046 208.54793-20.60307 208.94292-20.99895 209.18921-21.23587 209.43549-21.4728 209.83049-21.84088 210.07677-22.05812 210.32306-22.27536 210.71805-22.60817 210.96434-22.80165 211.21063-22.99513 211.60562-23.28735 211.8519-23.45264 212.09819-23.6179 212.49318-23.86067 212.73947-23.99286 212.98577-24.12506 213.38076-24.31146 213.62705-24.4055 213.87332-24.49954 214.26833-24.62025 214.5146-24.67065 214.7609-24.72107 215.15589-24.76788 215.40218-24.76883 215.64847-24.76979 216.04346-24.73224 216.28975-24.67758 216.53603-24.62291 216.93103-24.49158 217.1773-24.3748 217.4236-24.25801 217.81859-24.02171 218.06488-23.83586 218.31118-23.65 218.70616-23.29749 218.95244-23.03523 219.19873-22.77298 219.59372-22.29193 219.84001-21.94566 220.0863-21.5994 220.4813-20.97794 220.72759-20.53947 220.97386-20.10103 221.36887-19.3247 221.61515-18.78555 221.86144-18.2464 222.25643-17.3023 222.50272-16.65356 222.74901-16.00482 223.144-14.87761 223.39029-14.1098 223.63657-13.342 224.03157-12.01628 224.27785-11.11967 224.52414-10.22308 224.91913-8.68333 225.16542-7.64767 225.41172-6.61203 225.8067-4.84082 226.05298-3.65536 226.29927-2.46992 226.69426-.45018 226.94055 .89621 227.18685 2.24261 227.58184 4.52942 227.82813 6.0486 228.0744 7.56778 228.4694 10.14139 228.71569 11.84546 228.96198 13.54955 229.60326 18.3305 229.44304 17.13577"/>
<path transform="matrix(-.23193465,.9727478,.9726895,.23194856,172.13211,340.2095)" stroke-width="1.27522" stroke-linecap="round" stroke-linejoin="round" fill="none" stroke="#0000ff" d="M-2.27148 3.02866C-2.0822 1.8929 0 .18927 .56786 0 0-.18927-2.0822-1.8929-2.27148-3.02866"/>
<path transform="matrix(.13290267,-.99114927,-.9910898,-.13291063,259.56327,295.8964)" stroke-width="1.27522" stroke-linecap="round" stroke-linejoin="round" fill="none" stroke="#0000ff" d="M-2.27148 3.02866C-2.0822 1.8929 0 .18927 .56786 0 0-.18927-2.0822-1.8929-2.27148-3.02866"/>
</svg>
