<svg xmlns="http://www.w3.org/2000/svg" xmlns:xlink="http://www.w3.org/1999/xlink" xmlns:inkscape="http://www.inkscape.org/namespaces/inkscape" version="1.1" width="343" height="357" viewBox="0 0 343 357">
<defs>
<path id="font_1_1" d="M.33399964 .30233766C.33999635 .32835389 .36299134 .42037965 .43299867 .42037965 .43798829 .42037965 .46199037 .42037965 .48298646 .40734864 .45498658 .402359 .43499757 .37734986 .43499757 .35334779 .43499757 .33735658 .44599916 .31835938 .47299195 .31835938 .49499513 .31835938 .5269928 .3363495 .5269928 .37635804 .5269928 .42837525 .46798707 .4423828 .43399049 .4423828 .37599183 .4423828 .34098817 .38935853 .32899476 .36634828 .3039856 .43237306 .25 .4423828 .22099304 .4423828 .116989139 .4423828 .05999756 .3133545 .05999756 .28834535 .05999756 .27833558 .069992069 .27833558 .07199097 .27833558 .07998657 .27833558 .08299255 .28033448 .084991458 .28933717 .11898804 .39535523 .18499756 .42037965 .21899414 .42037965 .23799134 .42037965 .272995 .4113617 .272995 .35334779 .272995 .32235719 .2559967 .25532533 .21899414 .11528015 .20298767 .053268434 .16799927 .011245728 .12399292 .011245728 .117996219 .011245728 .09498596 .011245728 .07398987 .024276734 .09899902 .029266358 .12098694 .05027771 .12098694 .07827759 .12098694 .105270389 .09899902 .11328125 .083999637 .11328125 .053985597 .11328125 .0289917 .08728027 .0289917 .055267335 .0289917 .009246826 .07899475-.0107421879 .12298584-.0107421879 .18899536-.0107421879 .22499085 .059280397 .22799683 .0652771 .23999024 .028274537 .27598573-.0107421879 .33599855-.0107421879 .43899537-.0107421879 .49598695 .118270877 .49598695 .14328003 .49598695 .1532898 .4869995 .1532898 .48399354 .1532898 .47499085 .1532898 .47299195 .14929199 .47099305 .14228821 .43798829 .03527832 .36999513 .011245728 .33799745 .011245728 .29899598 .011245728 .2829895 .043273927 .2829895 .07727051 .2829895 .09927368 .2889862 .121276859 .2999878 .16529846L.33399964 .30233766Z"/>
<path id="font_1_2" d="M.48599244 .38136292C.48999024 .39537049 .48999024 .39736939 .48999024 .40437318 .48999024 .42237855 .47599793 .43138124 .46099855 .43138124 .45098878 .43138124 .43499757 .42536927 .42599488 .41036988 .42399598 .405365 .41600038 .37435914 .4119873 .35635377 .40499879 .33035279 .397995 .30334474 .3919983 .27633668L.34700013 .09628296C.34298707 .08126831 .2999878 .011245728 .23399353 .011245728 .18299866 .011245728 .17199707 .055267335 .17199707 .0922699 .17199707 .1382904 .18899536 .20030213 .22299195 .28833009 .23899842 .3293457 .24299622 .3403473 .24299622 .36035157 .24299622 .405365 .21099854 .4423828 .16099549 .4423828 .06599426 .4423828 .0289917 .29733277 .0289917 .28833009 .0289917 .27833558 .038986207 .27833558 .040985109 .27833558 .050994874 .27833558 .051986696 .28033448 .056991579 .29634095 .083999637 .3903656 .12399292 .42037965 .1579895 .42037965 .1659851 .42037965 .18299866 .42037965 .18299866 .3883667 .18299866 .36335755 .17298889 .3373413 .1659851 .31834413 .12599182 .21231079 .10798645 .1552887 .10798645 .10827637 .10798645 .019256592 .17098999-.0107421879 .22999573-.0107421879 .2689972-.0107421879 .30299378 .0062561037 .33099366 .03425598 .31799317-.017745972 .30599977-.06674194 .2659912-.11973572 .23999024-.15385437 .20199585-.18309021 .1559906-.18309021 .14199829-.18309021 .09700012-.18005371 .07998657-.14074707 .09599304-.14074707 .10899353-.14074707 .12298584-.1287384 .1329956-.11973572 .14299011-.10673523 .14299011-.08773804 .14299011-.056747438 .115997318-.052734376 .10598755-.052734376 .08299255-.052734376 .049987794-.068740848 .049987794-.11773682 .049987794-.16796875 .09399414-.20507813 .1559906-.20507813 .25898744-.20507813 .3619995-.11373901 .3899994-.00074768069L.48599244 .38136292Z"/>
<path id="font_2_1" d="M.13198853 .327713V.35173036C.13198853 .6047821 .2559967 .64100649 .30699159 .64100649 .33099366 .64100649 .37298585 .634964 .394989 .6007538 .37998963 .6007538 .33999635 .6007538 .33999635 .5557556 .33999635 .524765 .3639984 .5097656 .38598634 .5097656 .4019928 .5097656 .43199159 .51875308 .43199159 .5577545 .43199159 .6178589 .3880005 .6660156 .30499269 .6660156 .1769867 .6660156 .041992189 .5367584 .041992189 .31570436 .041992189 .048553468 .1579895-.022460938 .25099183-.022460938 .3619995-.022460938 .45700074 .07156372 .45700074 .2036438 .45700074 .33070375 .36799623 .4267578 .25698854 .4267578 .18899536 .4267578 .1519928 .37573243 .13198853 .327713M.25099183 .0055389406C.18798828 .0055389406 .1579895 .06556702 .1519928 .080566409 .13398743 .127594 .13398743 .2076416 .13398743 .22564698 .13398743 .30369569 .1659851 .40374757 .2559967 .40374757 .27198792 .40374757 .31799317 .40374757 .34899903 .34172059 .36698915 .30470277 .36698915 .2536621 .36698915 .20463562 .36698915 .15661621 .36698915 .10658264 .34999085 .0705719 .31999208 .010528564 .27398683 .0055389406 .25099183 .0055389406Z"/>
</defs>
<path transform="matrix(1.00002,0,0,-1,30.115624,313.01)" stroke-width=".3985" stroke-linecap="butt" stroke-miterlimit="10" stroke-linejoin="miter" fill="none" stroke="#000000" d="M-27.88852 0H311.35664"/>
<path transform="matrix(-1.00002,-0,0,1,2.2265454,313.01)" stroke-width=".31879" stroke-linecap="round" stroke-linejoin="round" fill="none" stroke="#000000" d="M-1.19551 1.59401C-1.09587 .99626 0 .09961 .29886 0 0-.09961-1.09587-.99626-1.19551-1.59401"/>
<path transform="matrix(1.00002,0,0,-1,341.4785,313.01)" stroke-width=".31879" stroke-linecap="round" stroke-linejoin="round" fill="none" stroke="#000000" d="M-1.19551 1.59401C-1.09587 .99626 0 .09961 .29886 0 0-.09961-1.09587-.99626-1.19551-1.59401"/>
<use data-text="x" xlink:href="#font_1_1" transform="matrix(10.909318,0,0,-10.9091,324.6455,304.02003)"/>
<path transform="matrix(1.00002,0,0,-1,30.115624,313.01)" stroke-width=".3985" stroke-linecap="butt" stroke-miterlimit="10" stroke-linejoin="miter" fill="none" stroke="#000000" d="M0-27.88852V311.35664"/>
<path transform="matrix(0,1,1.00002,0,30.115624,340.89854)" stroke-width=".31879" stroke-linecap="round" stroke-linejoin="round" fill="none" stroke="#000000" d="M-1.19551 1.59401C-1.09587 .99626 0 .09961 .29886 0 0-.09961-1.09587-.99626-1.19551-1.59401"/>
<path transform="matrix(0,-1,-1.00002,-0,30.115624,1.6533814)" stroke-width=".31879" stroke-linecap="round" stroke-linejoin="round" fill="none" stroke="#000000" d="M-1.19551 1.59401C-1.09587 .99626 0 .09961 .29886 0 0-.09961-1.09587-.99626-1.19551-1.59401"/>
<use data-text="y" xlink:href="#font_1_2" transform="matrix(10.909318,0,0,-10.9091,38.584794,16.656006)"/>
<path transform="matrix(1.00002,0,0,-1,30.115624,313.01)" stroke-width=".3985" stroke-linecap="butt" stroke-miterlimit="10" stroke-linejoin="miter" fill="none" stroke="#000000" d="M170.08086-2.83484V2.83484"/>
<use data-text="6" xlink:href="#font_2_1" transform="matrix(10.909318,0,0,-10.9091,197.47299,327.864)"/>
<path transform="matrix(1.00002,0,0,-1,30.115624,313.01)" stroke-width="1.59404" stroke-linecap="butt" stroke-miterlimit="10" stroke-linejoin="miter" fill="none" stroke="#0000ff" d="M128.41304-41.6678C128.18097-41.89986 128.18097-41.89986 128.41922-41.6616 128.65747-41.42336 129.03955-41.04128 129.2778-40.80302 129.51604-40.56479 129.89815-40.18268 130.1364-39.94444 130.37464-39.70619 130.75675-39.3241 130.99498-39.08585 131.23323-38.8476 131.61531-38.46552 131.85356-38.22726 132.09181-37.98903 132.4739-37.60692 132.71216-37.36867 132.9504-37.13043 133.3325-36.74832 133.57074-36.51009 133.80899-36.27184 134.1911-35.88974 134.42934-35.65149 134.66759-35.41324 135.04967-35.03116 135.28792-34.79291 135.52617-34.55467 135.90827-34.17256 136.14652-33.93433 136.38475-33.69608 136.76686-33.31398 137.0051-33.07573 137.24335-32.83748 137.62543-32.4554 137.86368-32.21715 138.10193-31.9789 138.48403-31.5968 138.72228-31.35855 138.96051-31.12032 139.34262-30.7382 139.58086-30.49997 139.8191-30.26172 140.2012-29.87964 140.43944-29.64139 140.67769-29.40314 141.05979-29.02104 141.29804-28.78279 141.53629-28.54456 141.91838-28.16245 142.15663-27.92421 142.39487-27.68596 142.77698-27.30385 143.01522-27.06561 143.25347-26.82736 143.63555-26.44528 143.8738-26.20703 144.11205-25.96878 144.49414-25.58669 144.73239-25.34843 144.97063-25.1102 145.35274-24.72809 145.59099-24.48985 145.82923-24.2516 146.21132-23.86952 146.44956-23.63127 146.6878-23.39302 147.0699-23.01093 147.30815-22.77267 147.5464-22.53444 147.9285-22.15233 148.16675-21.91408 148.40499-21.67584 148.78708-21.29375 149.02532-21.05551 149.26357-20.81726 149.64568-20.43517 149.88391-20.19691 150.12216-19.95866 150.50426-19.57657 150.74251-19.33832 150.98076-19.10008 151.36284-18.71799 151.60109-18.47975 151.83933-18.2415 152.22144-17.8594 152.45967-17.62115 152.69792-17.3829 153.08002-17.00081 153.31827-16.76256 153.55652-16.5243 153.93862-16.14221 154.17687-15.90396 154.4151-15.66573 154.7972-15.28363 155.03543-15.0454 155.27368-14.80714 155.65579-14.42505 155.89403-14.1868 156.13228-13.94855 156.51438-13.56645 156.75263-13.3282 156.99088-13.08997 157.37296-12.70787 157.6112-12.46964 157.84944-12.23138 158.23155-11.84927 158.46979-11.61104 158.70804-11.37279 159.09014-10.99069 159.32839-10.75244 159.56664-10.51419 159.94872-10.13211 160.18697-9.89386 160.4252-9.65562 160.80731-9.27351 161.04557-9.03528 161.2838-8.79703 161.66591-8.41493 161.90415-8.17668 162.1424-7.93843 162.52449-7.55634 162.76274-7.31808 163.00099-7.07985 163.38307-6.69775 163.62133-6.4595 163.85956-6.22127 164.24167-5.83916 164.4799-5.60092 164.71816-5.36267 165.10025-4.98058 165.3385-4.74232 165.57675-4.50407 165.95883-4.122 166.19709-3.88374 166.43534-3.64551 166.81743-3.2634 167.05568-3.02516 167.29392-2.78691 167.67603-2.40482 167.91426-2.16656 168.15251-1.92831 168.53459-1.54623 168.77285-1.30798 169.0111-1.06975 169.39319-.68764 169.63144-.44939 169.86968-.21115 170.25179 .17093 170.49002 .40916 170.72827 .64742 171.11037 1.0295 171.3486 1.26775 171.58686 1.506 171.96895 1.88809 172.2072 2.12634 172.44545 2.36458 172.82755 2.74669 173.0658 2.98492 173.30403 3.22318 173.68614 3.60529 173.92438 3.84352 174.16263 4.08177 174.54471 4.46385 174.78296 4.7021 175.02121 4.94035 175.4033 5.32245 175.64156 5.5607 175.87979 5.79893 176.2619 6.18105 176.50016 6.41928 176.73839 6.65753 177.12049 7.03961 177.35872 7.27786 177.59697 7.51611 177.97907 7.89821 178.21732 8.13646 178.45557 8.3747 178.83766 8.7568 179.07592 8.99506 179.31415 9.23329 179.69625 9.61539 179.93448 9.85362 180.17273 10.09187 180.55483 10.47397 180.79308 10.71222 181.03133 10.95047 181.41342 11.33257 181.65167 11.57082 181.88993 11.80905 182.27202 12.19116 182.51027 12.4294 182.7485 12.66765 183.1306 13.04973 183.36884 13.28798 183.60709 13.52623 183.98918 13.90833 184.22743 14.14658 184.46569 14.38481 184.84778 14.76692 185.08603 15.00517 185.32427 15.24341 185.70636 15.6255 185.9446 15.86374 186.18285 16.10199 186.56496 16.48409 186.80319 16.72234 187.04145 16.96059 187.42354 17.34268 187.66179 17.58093 187.90004 17.81917 188.28212 18.20126 188.52037 18.4395 188.7586 18.67775 189.14072 19.05986 189.37895 19.2981 189.6172 19.53635 189.9993 19.91844 190.23755 20.1567 190.4758 20.39494 190.85788 20.77702 191.09613 21.01527 191.33437 21.25351 191.71648 21.63562 191.95473 21.87386 192.19297 22.1121 192.57508 22.4942 192.81331 22.73245 193.05156 22.9707 193.43366 23.3528 193.6719 23.59105 193.91016 23.82928 194.29224 24.21138 194.53049 24.44962 194.76873 24.68787 195.15084 25.06998 195.38907 25.30821 195.62732 25.54646 196.00942 25.92856 196.24767 26.16681 196.48592 26.40506 196.868 26.78714 197.10625 27.02539 197.34449 27.26363 197.7266 27.64574 197.96485 27.88397 198.20308 28.12222 198.58519 28.50432 198.82343 28.74257 199.06168 28.98082 199.44376 29.3629 199.682 29.60115 199.92026 29.83939 200.30236 30.2215 200.5406 30.45975 200.77884 30.69798 201.16095 31.0801 201.39919 31.31833 201.63744 31.55658 202.01955 31.93867 202.25778 32.17693 202.49604 32.41518 202.87812 32.79726 203.11637 33.0355 203.35462 33.27374 203.73671 33.65585 203.97496 33.89409 204.2132 34.13234 204.5953 34.51445 204.83354 34.75269 205.0718 34.99094 205.45388 35.37302 205.69213 35.61127 205.93038 35.84952 206.31247 36.23161 206.55072 36.46986 206.78896 36.7081 207.17107 37.09021 207.40932 37.32845 207.64756 37.5667 208.02965 37.94878 208.26789 38.18703 208.50614 38.42528 208.88823 38.80737 209.12648 39.04562 209.36473 39.28386 209.74683 39.66597 209.98508 39.9042 210.22332 40.14246 210.60543 40.52457 210.84366 40.7628 211.08191 41.00105 211.46399 41.38313 211.70224 41.62138 211.94049 41.85963 212.56084 42.47998 211.70844 41.62756"/>
<path transform="matrix(-.70711418,.7071,.70711418,.7071,158.53125,354.6778)" stroke-width="1.27522" stroke-linecap="round" stroke-linejoin="round" fill="none" stroke="#0000ff" d="M-2.27148 3.02866C-2.0822 1.8929 0 .18927 .56786 0 0-.18927-2.0822-1.8929-2.27148-3.02866"/>
<path transform="matrix(.70711418,-.7071,-.70711418,-.7071,241.82828,271.38246)" stroke-width="1.27522" stroke-linecap="round" stroke-linejoin="round" fill="none" stroke="#0000ff" d="M-2.27148 3.02866C-2.0822 1.8929 0 .18927 .56786 0 0-.18927-2.0822-1.8929-2.27148-3.02866"/>
</svg>
