<svg xmlns="http://www.w3.org/2000/svg" xmlns:xlink="http://www.w3.org/1999/xlink" xmlns:inkscape="http://www.inkscape.org/namespaces/inkscape" version="1.1" width="343" height="343" viewBox="0 0 343 343">
<defs>
<path id="font_1_1" d="M.33399964 .30233766C.33999635 .32835389 .36299134 .42037965 .43299867 .42037965 .43798829 .42037965 .46199037 .42037965 .48298646 .40734864 .45498658 .402359 .43499757 .37734986 .43499757 .35334779 .43499757 .33735658 .44599916 .31835938 .47299195 .31835938 .49499513 .31835938 .5269928 .3363495 .5269928 .37635804 .5269928 .42837525 .46798707 .4423828 .43399049 .4423828 .37599183 .4423828 .34098817 .38935853 .32899476 .36634828 .3039856 .43237306 .25 .4423828 .22099304 .4423828 .116989139 .4423828 .05999756 .3133545 .05999756 .28834535 .05999756 .27833558 .069992069 .27833558 .07199097 .27833558 .07998657 .27833558 .08299255 .28033448 .084991458 .28933717 .11898804 .39535523 .18499756 .42037965 .21899414 .42037965 .23799134 .42037965 .272995 .4113617 .272995 .35334779 .272995 .32235719 .2559967 .25532533 .21899414 .11528015 .20298767 .053268434 .16799927 .011245728 .12399292 .011245728 .117996219 .011245728 .09498596 .011245728 .07398987 .024276734 .09899902 .029266358 .12098694 .05027771 .12098694 .07827759 .12098694 .105270389 .09899902 .11328125 .083999637 .11328125 .053985597 .11328125 .0289917 .08728027 .0289917 .055267335 .0289917 .009246826 .07899475-.0107421879 .12298584-.0107421879 .18899536-.0107421879 .22499085 .059280397 .22799683 .0652771 .23999024 .028274537 .27598573-.0107421879 .33599855-.0107421879 .43899537-.0107421879 .49598695 .118270877 .49598695 .14328003 .49598695 .1532898 .4869995 .1532898 .48399354 .1532898 .47499085 .1532898 .47299195 .14929199 .47099305 .14228821 .43798829 .03527832 .36999513 .011245728 .33799745 .011245728 .29899598 .011245728 .2829895 .043273927 .2829895 .07727051 .2829895 .09927368 .2889862 .121276859 .2999878 .16529846L.33399964 .30233766Z"/>
<path id="font_1_2" d="M.48599244 .38136292C.48999024 .39537049 .48999024 .39736939 .48999024 .40437318 .48999024 .42237855 .47599793 .43138124 .46099855 .43138124 .45098878 .43138124 .43499757 .42536927 .42599488 .41036988 .42399598 .405365 .41600038 .37435914 .4119873 .35635377 .40499879 .33035279 .397995 .30334474 .3919983 .27633668L.34700013 .09628296C.34298707 .08126831 .2999878 .011245728 .23399353 .011245728 .18299866 .011245728 .17199707 .055267335 .17199707 .0922699 .17199707 .1382904 .18899536 .20030213 .22299195 .28833009 .23899842 .3293457 .24299622 .3403473 .24299622 .36035157 .24299622 .405365 .21099854 .4423828 .16099549 .4423828 .06599426 .4423828 .0289917 .29733277 .0289917 .28833009 .0289917 .27833558 .038986207 .27833558 .040985109 .27833558 .050994874 .27833558 .051986696 .28033448 .056991579 .29634095 .083999637 .3903656 .12399292 .42037965 .1579895 .42037965 .1659851 .42037965 .18299866 .42037965 .18299866 .3883667 .18299866 .36335755 .17298889 .3373413 .1659851 .31834413 .12599182 .21231079 .10798645 .1552887 .10798645 .10827637 .10798645 .019256592 .17098999-.0107421879 .22999573-.0107421879 .2689972-.0107421879 .30299378 .0062561037 .33099366 .03425598 .31799317-.017745972 .30599977-.06674194 .2659912-.11973572 .23999024-.15385437 .20199585-.18309021 .1559906-.18309021 .14199829-.18309021 .09700012-.18005371 .07998657-.14074707 .09599304-.14074707 .10899353-.14074707 .12298584-.1287384 .1329956-.11973572 .14299011-.10673523 .14299011-.08773804 .14299011-.056747438 .115997318-.052734376 .10598755-.052734376 .08299255-.052734376 .049987794-.068740848 .049987794-.11773682 .049987794-.16796875 .09399414-.20507813 .1559906-.20507813 .25898744-.20507813 .3619995-.11373901 .3899994-.00074768069L.48599244 .38136292Z"/>
<path id="font_2_1" d="M.13198853 .327713V.35173036C.13198853 .6047821 .2559967 .64100649 .30699159 .64100649 .33099366 .64100649 .37298585 .634964 .394989 .6007538 .37998963 .6007538 .33999635 .6007538 .33999635 .5557556 .33999635 .524765 .3639984 .5097656 .38598634 .5097656 .4019928 .5097656 .43199159 .51875308 .43199159 .5577545 .43199159 .6178589 .3880005 .6660156 .30499269 .6660156 .1769867 .6660156 .041992189 .5367584 .041992189 .31570436 .041992189 .048553468 .1579895-.022460938 .25099183-.022460938 .3619995-.022460938 .45700074 .07156372 .45700074 .2036438 .45700074 .33070375 .36799623 .4267578 .25698854 .4267578 .18899536 .4267578 .1519928 .37573243 .13198853 .327713M.25099183 .0055389406C.18798828 .0055389406 .1579895 .06556702 .1519928 .080566409 .13398743 .127594 .13398743 .2076416 .13398743 .22564698 .13398743 .30369569 .1659851 .40374757 .2559967 .40374757 .27198792 .40374757 .31799317 .40374757 .34899903 .34172059 .36698915 .30470277 .36698915 .2536621 .36698915 .20463562 .36698915 .15661621 .36698915 .10658264 .34999085 .0705719 .31999208 .010528564 .27398683 .0055389406 .25099183 .0055389406Z"/>
<path id="font_2_2" d="M.16299439 .4569702C.116989139 .486969 .11299133 .52098086 .11299133 .5379791 .11299133 .598999 .17799378 .64100649 .24899292 .64100649 .32199098 .64100649 .38598634 .58898928 .38598634 .51698306 .38598634 .45996095 .34700013 .4119568 .2869873 .37695313L.16299439 .4569702M.30899049 .36193849C.3809967 .3989563 .42999269 .45095826 .42999269 .51698306 .42999269 .6090088 .34098817 .6660156 .25 .6660156 .1499939 .6660156 .068984989 .59199526 .068984989 .49897767 .068984989 .4809723 .070999149 .43595887 .11299133 .38894654 .12399292 .37695313 .16099549 .35194398 .18598938 .33494569 .12799073 .30592347 .041992189 .24984741 .041992189 .15072632 .041992189 .04458618 .14399719-.022460938 .24899292-.022460938 .3619995-.022460938 .45700074 .06060791 .45700074 .16773987 .45700074 .20379639 .44599916 .24885559 .4079895 .2909088 .3889923 .31193543 .37298585 .3219452 .30899049 .36193849M.20899964 .3199463 .33198548 .24183655C.3600006 .2228241 .40699769 .19277954 .40699769 .13169861 .40699769 .05760193 .33198548 .0055389406 .25 .0055389406 .1639862 .0055389406 .09199524 .067611698 .09199524 .15072632 .09199524 .20880127 .12399292 .27288819 .20899964 .3199463Z"/>
</defs>
<path transform="matrix(1.00002,0,0,-1.00005,30.115624,313.0247)" stroke-width=".3985" stroke-linecap="butt" stroke-miterlimit="10" stroke-linejoin="miter" fill="none" stroke="#000000" d="M-27.88852 0H311.35664"/>
<path transform="matrix(-1.00002,-0,0,1.00005,2.2265454,313.0247)" stroke-width=".31879" stroke-linecap="round" stroke-linejoin="round" fill="none" stroke="#000000" d="M-1.19551 1.59401C-1.09587 .99626 0 .09961 .29886 0 0-.09961-1.09587-.99626-1.19551-1.59401"/>
<path transform="matrix(1.00002,0,0,-1.00005,341.4785,313.0247)" stroke-width=".31879" stroke-linecap="round" stroke-linejoin="round" fill="none" stroke="#000000" d="M-1.19551 1.59401C-1.09587 .99626 0 .09961 .29886 0 0-.09961-1.09587-.99626-1.19551-1.59401"/>
<use data-text="x" xlink:href="#font_1_1" transform="matrix(10.909318,0,0,-10.909644,324.6455,304.03425)"/>
<path transform="matrix(1.00002,0,0,-1.00005,30.115624,313.0247)" stroke-width=".3985" stroke-linecap="butt" stroke-miterlimit="10" stroke-linejoin="miter" fill="none" stroke="#000000" d="M0-27.88852V311.35664"/>
<path transform="matrix(0,1.00005,1.00002,0,30.115624,340.9146)" stroke-width=".31879" stroke-linecap="round" stroke-linejoin="round" fill="none" stroke="#000000" d="M-1.19551 1.59401C-1.09587 .99626 0 .09961 .29886 0 0-.09961-1.09587-.99626-1.19551-1.59401"/>
<path transform="matrix(0,-1.00005,-1.00002,-0,30.115624,1.6524963)" stroke-width=".31879" stroke-linecap="round" stroke-linejoin="round" fill="none" stroke="#000000" d="M-1.19551 1.59401C-1.09587 .99626 0 .09961 .29886 0 0-.09961-1.09587-.99626-1.19551-1.59401"/>
<use data-text="y" xlink:href="#font_1_2" transform="matrix(10.909318,0,0,-10.909644,38.584794,16.655884)"/>
<path transform="matrix(1.00002,0,0,-1.00005,30.115624,313.0247)" stroke-width=".3985" stroke-linecap="butt" stroke-miterlimit="10" stroke-linejoin="miter" fill="none" stroke="#000000" d="M170.08086-2.83484V2.83484"/>
<use data-text="6" xlink:href="#font_2_1" transform="matrix(10.909318,0,0,-10.909644,197.47299,327.87944)"/>
<path transform="matrix(1.00002,0,0,-1.00005,30.115624,313.0247)" stroke-width=".3985" stroke-linecap="butt" stroke-miterlimit="10" stroke-linejoin="miter" fill="none" stroke="#000000" d="M226.77448-2.83484V2.83484"/>
<use data-text="8" xlink:href="#font_2_2" transform="matrix(10.909318,0,0,-10.909644,254.16712,327.87944)"/>
<path transform="matrix(1.00002,0,0,-1.00005,30.115624,313.0247)" stroke-width="1.59404" stroke-linecap="butt" stroke-miterlimit="10" stroke-linejoin="miter" fill="none" stroke="#0000ff" d="M142.08802 27.19405C142.39594 26.1921 142.39594 26.1921 142.65015 25.40814 142.90436 24.62419 143.31206 23.41875 143.56626 22.69612 143.82047 21.9735 144.22817 20.8647 144.48238 20.19994 144.73659 19.53517 145.14429 18.51463 145.3985 17.90489 145.6527 17.29517 146.06041 16.36293 146.3146 15.80536 146.56882 15.24777 146.97652 14.39455 147.23073 13.88618 147.48494 13.3778 147.89264 12.60312 148.14685 12.14133 148.40105 11.67953 148.80875 10.97603 149.06296 10.55782 149.31717 10.13959 149.72487 9.50397 149.97908 9.12697 150.23329 8.74998 150.64099 8.179 150.89519 7.84059 151.1494 7.50218 151.5571 6.99023 151.81131 6.6879 152.06552 6.38556 152.4732 5.93015 152.72742 5.66147 152.98162 5.39279 153.38933 4.98889 153.64353 4.75142 153.89774 4.51395 154.30544 4.15834 154.55965 3.94992 154.81386 3.7415 155.22156 3.43086 155.47577 3.24922 155.72997 3.06757 156.13768 2.7976 156.39188 2.64063 156.64609 2.48363 157.05379 2.25217 157.308 2.11769 157.56221 1.98322 157.96991 1.78545 158.22412 1.67131 158.47832 1.55717 158.88602 1.3906 159.14023 1.295 159.39444 1.19942 159.80214 1.06114 160.05635 .98228 160.31056 .90343 160.71826 .79068 160.97246 .72665 161.22667 .66261 161.63437 .57164 161.88858 .52077 162.14279 .46988 162.55048 .39928 162.80469 .35985 163.05889 .32043 163.4666 .26628 163.7208 .23659 163.975 .20688 164.3827 .16718 164.63692 .14575 164.89113 .12433 165.29883 .09682 165.55304 .08217 165.80724 .06754 166.21494 .0494 166.46915 .04022 166.72336 .03104 167.13106 .02095 167.38527 .01599 167.63948 .01102 168.04718 .00652 168.30138 .0043 168.55559 .0021 168.96329 .00058 169.2175 0 169.47171-.00058 169.87941 0 170.13362 0 170.38784 0 170.79553 .00064 171.04973 0 171.30394-.00064 171.71164-.00247 171.96585-.00473 172.22006-.007 172.62775-.01175 172.88196-.01642 173.13616-.0211 173.54387-.03033 173.79807-.03848 174.05228-.04663 174.45998-.06294 174.71419-.07524 174.9684-.08754 175.3761-.11018 175.63031-.12715 175.8845-.14413 176.2922-.17516 176.54642-.19765 176.80063-.22015 177.20833-.26079 177.46254-.28935 177.71675-.31792 178.12445-.36844 178.37865-.40355 178.63286-.43864 179.04056-.5002 179.29477-.54239 179.54898-.58456 179.95668-.65805 180.21089-.70761 180.46509-.75717 180.8728-.84247 181.127-.89966 181.38121-.95685 181.78891-1.05472 182.04312-1.11983 182.29734-1.18494 182.70502-1.29575 182.95923-1.36896 183.21343-1.44217 183.62114-1.56621 183.87534-1.64752 184.12955-1.72884 184.53725-1.86559 184.79146-1.95506 185.04567-2.04454 185.45337-2.19475 185.70758-2.29243 185.96178-2.39012 186.36948-2.55344 186.62369-2.65923 186.8779-2.76501 187.2856-2.94139 187.53981-3.055 187.79402-3.1686 188.20172-3.3568 188.45592-3.47803 188.71013-3.59924 189.11783-3.80006 189.37204-3.92873 189.62625-4.0574 190.03395-4.26988 190.28816-4.4054 190.54236-4.5409 190.95008-4.76347 191.20427-4.9054 191.45848-5.04732 191.86618-5.28033 192.12039-5.42833 192.3746-5.57632 192.7823-5.81871 193.03652-5.97205 193.29071-6.12537 193.6984-6.37552 193.9526-6.53346 194.20682-6.69142 194.61452-6.9485 194.86873-7.11047 195.12294-7.27245 195.53064-7.53568 195.78484-7.70088 196.03905-7.8661 196.44675-8.13376 196.70096-8.30125 196.95517-8.46875 197.36287-8.73923 197.61708-8.90811 197.87128-9.07698 198.27899-9.34914 198.53319-9.51842 198.7874-9.68771 199.1951-9.95966 199.44931-10.1283 199.70352-10.29694 200.11122-10.56703 200.36544-10.73386 200.61963-10.90068 201.02735-11.16699 201.28154-11.33075 201.53575-11.49452 201.94345-11.75479 202.19766-11.91425 202.45188-12.0737 202.85958-12.3262 203.11379-12.48001 203.36798-12.63382 203.77567-12.87611 204.02988-13.02284 204.28409-13.16957 204.69179-13.39941 204.946-13.53755 205.20021-13.67569 205.60791-13.89043 205.8621-14.01854 206.11632-14.14667 206.52402-14.3446 206.77823-14.46103 207.03244-14.57744 207.44014-14.75468 207.69435-14.85767 207.94855-14.96063 208.35626-15.11536 208.61046-15.20326 208.86467-15.29118 209.27237-15.42047 209.52658-15.49133 209.78079-15.56221 210.18849-15.66214 210.4427-15.7141 210.6969-15.76605 211.1046-15.83478 211.35881-15.86592 211.61302-15.89705 212.02072-15.93031 212.27494-15.93858 212.52915-15.94685 212.93685-15.94221 213.19104-15.9256 213.44525-15.90898 213.85294-15.86256 214.10715-15.81876 214.36136-15.77496 214.76906-15.68307 215.02327-15.60985 215.27747-15.53664 215.68518-15.3959 215.93938-15.29108 216.19359-15.18623 216.60129-14.99315 216.8555-14.85422 217.10971-14.71529 217.51741-14.46516 217.77162-14.28975 218.02582-14.11433 218.43354-13.80426 218.68773-13.58989 218.94194-13.37553 219.34964-13.00073 219.60385-12.74472 219.85807-12.48871 220.26576-12.04494 220.51998-11.74469 220.77417-11.44446 221.18187-10.9279 221.43608-10.58073 221.69029-10.23357 222.09799-9.63939 222.3522-9.24246 222.60642-8.84554 223.01412-8.16948 223.26831-7.71992 223.52252-7.27037 223.9302-6.50739 224.18442-6.0023 224.43863-5.49724 224.84633-4.6432 225.10054-4.07968 225.35474-3.51616 225.76245-2.56587 226.01665-1.94078 226.27086-1.31569 226.67856-.26418 226.93277 .4256 227.18698 1.11539 227.59468 2.27306 227.84889 3.03078 228.10309 3.78851 228.51079 5.05792 228.765 5.88683 229.01921 6.71573 229.42691 8.10161 229.68112 9.00499 229.93534 9.90837 230.34304 11.41653 230.59725 12.39781 230.85144 13.37909 231.25914 15.0147 231.51335 16.07742 231.76757 17.14015 232.42948 20.0572 232.16275 18.88164"/>
<path transform="matrix(-.29364587,-.95593777,-.95590916,.29365466,172.20648,285.82929)" stroke-width="1.27522" stroke-linecap="round" stroke-linejoin="round" fill="none" stroke="#0000ff" d="M-2.27148 3.02866C-2.0822 1.8929 0 .18927 .56786 0 0-.18927-2.0822-1.8929-2.27148-3.02866"/>
<path transform="matrix(.22125443,-.9752187,-.97518959,-.22126106,262.28303,294.14213)" stroke-width="1.27522" stroke-linecap="round" stroke-linejoin="round" fill="none" stroke="#0000ff" d="M-2.27148 3.02866C-2.0822 1.8929 0 .18927 .56786 0 0-.18927-2.0822-1.8929-2.27148-3.02866"/>
</svg>
