<svg xmlns="http://www.w3.org/2000/svg" xmlns:xlink="http://www.w3.org/1999/xlink" xmlns:inkscape="http://www.inkscape.org/namespaces/inkscape" version="1.1" width="173" height="30" viewBox="0 0 173 30">
<defs>
<path id="font_1_1" d="M.45999146 .31976319C.45999146 .39982606 .45498658 .47988893 .41999818 .5539398 .37399293 .65000918 .2919922 .6660156 .25 .6660156 .18998719 .6660156 .116989139 .64001467 .07598877 .54693606 .04399109 .47789 .038986207 .39982606 .038986207 .31976319 .038986207 .24472046 .042999269 .15464783 .083999637 .07859802 .1269989-.0024719239 .19999695-.022460938 .24899292-.022460938 .30299378-.022460938 .3789978-.0014648438 .4229889 .09359741 .45498658 .16265869 .45999146 .2407074 .45999146 .31976319M.24899292-.00047302247C.20999146-.00047302247 .15098572 .024551392 .1329956 .12062073 .12199402 .18066406 .12199402 .2727356 .12199402 .3317871 .12199402 .39582826 .12199402 .46188355 .12998963 .5159149 .14898682 .63500979 .22399903 .64401248 .24899292 .64401248 .28199769 .64401248 .34799195 .6259918 .36698915 .52693179 .3769989 .47088624 .3769989 .39482118 .3769989 .3317871 .3769989 .25672914 .3769989 .18867493 .3659973 .12461853 .35099793 .029556275 .2939911-.00047302247 .24899292-.00047302247Z"/>
<path id="font_2_1" d="M.6589966 .23046875C.6759949 .23046875 .69400027 .23046875 .69400027 .25045777 .69400027 .27046205 .6759949 .27046205 .6589966 .27046205H.117996219C.100997928 .27046205 .08299255 .27046205 .08299255 .25045777 .08299255 .23046875 .100997928 .23046875 .117996219 .23046875H.6589966Z"/>
<path id="font_1_2" d="M.2939911 .64004519C.2939911 .66400149 .2939911 .6660156 .2709961 .6660156 .20899964 .60227969 .12098694 .60227969 .08898926 .60227969V.57128909C.10899353 .57128909 .16799927 .57128909 .21998596 .5972748V.07902527C.21998596 .042999269 .21699524 .0309906 .1269989 .0309906H.09498596V0C.12998963 .0029907227 .21699524 .0029907227 .25698854 .0029907227 .29699708 .0029907227 .38398744 .0029907227 .4189911 0V.0309906H.3869934C.29699708 .0309906 .2939911 .041992189 .2939911 .07902527V.64004519Z"/>
<path id="font_1_4" d="M.44898988 .20022583C.44898988 .3193512 .36698915 .41944886 .25898744 .41944886 .21099854 .41944886 .16799927 .40345765 .13198853 .36842347V.5637665C.1519928 .5577698 .18499756 .55078127 .21699524 .55078127 .33999635 .55078127 .4099884 .6417694 .4099884 .6547699 .4099884 .6607666 .40699769 .6657715 .3999939 .6657715 .39898683 .6657715 .39698792 .6657715 .3919983 .66278079 .37199403 .6537781 .32299806 .6337738 .2559967 .6337738 .21598816 .6337738 .16999817 .6407776 .12298584 .6617737 .114990238 .66477969 .11299133 .66477969 .11099243 .66477969 .100997928 .66477969 .100997928 .6567688 .100997928 .6407776V.34439088C.100997928 .32637025 .100997928 .31835938 .114990238 .31835938 .12199402 .31835938 .12399292 .32136537 .12799073 .32736207 .13899231 .3433838 .17599488 .39746095 .25698854 .39746095 .30899049 .39746095 .33399964 .35139466 .34199525 .33337403 .35798646 .29632569 .3600006 .25727845 .3600006 .20722962 .3600006 .17222595 .3600006 .11222839 .33599855 .07035828 .31199647 .031463624 .2749939 .0055389406 .22898865 .0055389406 .1559906 .0055389406 .09899902 .058380128 .08198547 .11723328 .084991458 .1162262 .08799744 .115234378 .09899902 .115234378 .13198853 .115234378 .14898682 .14022827 .14898682 .16423035 .14898682 .18823242 .13198853 .21322632 .09899902 .21322632 .084991458 .21322632 .049987794 .20622254 .049987794 .16023255 .049987794 .07434082 .11898804-.022460938 .23098755-.022460938 .34700013-.022460938 .44898988 .073349 .44898988 .20022583Z"/>
<path id="font_1_3" d="M.2899933 .35191346C.37199403 .37893678 .42999269 .4490509 .42999269 .52809146 .42999269 .6100464 .34199525 .6660156 .24598694 .6660156 .14498902 .6660156 .068984989 .60606387 .068984989 .53009036 .068984989 .49710084 .09098816 .47808839 .11999512 .47808839 .15098572 .47808839 .17098999 .50009158 .17098999 .5290985 .17098999 .57910159 .12399292 .57910159 .10899353 .57910159 .13999939 .62802127 .20599365 .64100649 .24198914 .64100649 .2829895 .64100649 .33799745 .6190338 .33799745 .5290985 .33799745 .51708987 .33599855 .45906068 .30999757 .4149933 .27999879 .36691285 .24598694 .36390687 .22099304 .36291505 .21299744 .36190797 .18899536 .35990907 .18199158 .35990907 .17399597 .35890199 .16699219 .35791017 .16699219 .3479004 .16699219 .33691407 .17399597 .33691407 .19099427 .33691407H.23498535C.31698609 .33691407 .35398866 .2686615 .35398866 .17037964 .35398866 .034469606 .2849884 .0055389406 .24099732 .0055389406 .19799805 .0055389406 .12298584 .022491456 .08799744 .08137512 .12298584 .07637024 .1539917 .09837341 .1539917 .1363678 .1539917 .17237854 .1269989 .19238281 .09799194 .19238281 .07398987 .19238281 .041992189 .17837525 .041992189 .1343689 .041992189 .043441774 .1349945-.022460938 .24398804-.022460938 .3659973-.022460938 .45700074 .06838989 .45700074 .17037964 .45700074 .252594 .3939972 .33088685 .2899933 .35191346Z"/>
</defs>
<path transform="matrix(1.00002,0,0,-1.00003,86.80975,15.970909)" stroke-width=".3985" stroke-linecap="butt" stroke-miterlimit="10" stroke-linejoin="miter" fill="none" stroke="#000000" d="M-84.58214 0H84.58214"/>
<path transform="matrix(-1.00002,-0,0,1.00003,2.2259217,15.970909)" stroke-width=".31879" stroke-linecap="round" stroke-linejoin="round" fill="none" stroke="#000000" d="M-1.19551 1.59401C-1.09587 .99626 0 .09961 .29886 0 0-.09961-1.09587-.99626-1.19551-1.59401"/>
<path transform="matrix(1.00002,0,0,-1.00003,171.39359,15.970909)" stroke-width=".31879" stroke-linecap="round" stroke-linejoin="round" fill="none" stroke="#000000" d="M-1.19551 1.59401C-1.09587 .99626 0 .09961 .29886 0 0-.09961-1.09587-.99626-1.19551-1.59401"/>
<path transform="matrix(1.00002,0,0,-1.00003,86.80975,15.970909)" stroke-width=".3985" stroke-linecap="butt" stroke-miterlimit="10" stroke-linejoin="miter" fill="none" stroke="#000000" d="M0-2.83484V2.83484"/>
<use data-text="0" xlink:href="#font_1_1" transform="matrix(10.909318,0,0,-10.909428,84.0827,27.99027)"/>
<path transform="matrix(1.00002,0,0,-1.00003,86.80975,15.970909)" stroke-width="1.59404" stroke-linecap="butt" stroke-miterlimit="10" stroke-linejoin="miter" fill="none" stroke="#0000ff" d="M-56.69362 11.33855H83.83492"/>
<path transform="matrix(1.00002,0,0,-1.00003,170.64636,4.632019)" stroke-width="1.27522" stroke-linecap="round" stroke-linejoin="round" fill="none" stroke="#0000ff" d="M-2.27148 3.02866C-2.0822 1.8929 0 .18927 .56786 0 0-.18927-2.0822-1.8929-2.27148-3.02866"/>
<path transform="matrix(1.00002,0,0,-1.00003,86.80975,15.970909)" d="M-53.85876 11.33855C-53.85876 12.90419-55.12796 14.17339-56.69362 14.17339-58.25926 14.17339-59.52846 12.90419-59.52846 11.33855-59.52846 9.77289-58.25926 8.5037-56.69362 8.5037-55.12796 8.5037-53.85876 9.77289-53.85876 11.33855ZM-56.69362 11.33855" fill="#0000ff"/>
<path transform="matrix(1.00002,0,0,-1.00003,86.80975,15.970909)" stroke-width="1.59404" stroke-linecap="butt" stroke-miterlimit="10" stroke-linejoin="miter" fill="none" stroke="#0000ff" d="M-53.85876 11.33855C-53.85876 12.90419-55.12796 14.17339-56.69362 14.17339-58.25926 14.17339-59.52846 12.90419-59.52846 11.33855-59.52846 9.77289-58.25926 8.5037-56.69362 8.5037-55.12796 8.5037-53.85876 9.77289-53.85876 11.33855ZM-56.69362 11.33855"/>
<path transform="matrix(1.00002,0,0,-1.00003,86.80975,15.970909)" d="M-25.51195 11.33855C-25.51195 12.90419-26.78114 14.17339-28.3468 14.17339-29.91246 14.17339-31.18166 12.90419-31.18166 11.33855-31.18166 9.77289-29.91246 8.5037-28.3468 8.5037-26.78114 8.5037-25.51195 9.77289-25.51195 11.33855ZM-28.3468 11.33855" fill="#ffffff"/>
<path transform="matrix(1.00002,0,0,-1.00003,86.80975,15.970909)" stroke-width="1.59404" stroke-linecap="butt" stroke-miterlimit="10" stroke-linejoin="miter" fill="none" stroke="#0000ff" d="M-25.51195 11.33855C-25.51195 12.90419-26.78114 14.17339-28.3468 14.17339-29.91246 14.17339-31.18166 12.90419-31.18166 11.33855-31.18166 9.77289-29.91246 8.5037-28.3468 8.5037-26.78114 8.5037-25.51195 9.77289-25.51195 11.33855ZM-28.3468 11.33855"/>
<path transform="matrix(1.00002,0,0,-1.00003,86.80975,15.970909)" d="M31.18166 11.33855C31.18166 12.90419 29.91246 14.17339 28.3468 14.17339 26.78114 14.17339 25.51195 12.90419 25.51195 11.33855 25.51195 9.77289 26.78114 8.5037 28.3468 8.5037 29.91246 8.5037 31.18166 9.77289 31.18166 11.33855ZM28.3468 11.33855" fill="#ffffff"/>
<path transform="matrix(1.00002,0,0,-1.00003,86.80975,15.970909)" stroke-width="1.59404" stroke-linecap="butt" stroke-miterlimit="10" stroke-linejoin="miter" fill="none" stroke="#0000ff" d="M31.18166 11.33855C31.18166 12.90419 29.91246 14.17339 28.3468 14.17339 26.78114 14.17339 25.51195 12.90419 25.51195 11.33855 25.51195 9.77289 26.78114 8.5037 28.3468 8.5037 29.91246 8.5037 31.18166 9.77289 31.18166 11.33855ZM28.3468 11.33855"/>
<path transform="matrix(1.00002,0,0,-1.00003,86.80975,15.970909)" stroke-width=".3985" stroke-linecap="butt" stroke-miterlimit="10" stroke-linejoin="miter" fill="none" stroke="#000000" d="M-56.69362-2.83484V2.83484"/>
<use data-text="&#x2212;" xlink:href="#font_2_1" transform="matrix(10.909318,0,0,-10.909428,20.417428,27.536255)"/>
<use data-text="1" xlink:href="#font_1_2" transform="matrix(10.909318,0,0,-10.909428,28.902604,27.536255)"/>
<use data-text="5" xlink:href="#font_1_4" transform="matrix(10.909318,0,0,-10.909428,34.35726,27.536255)"/>
<path transform="matrix(1.00002,0,0,-1.00003,86.80975,15.970909)" stroke-width=".3985" stroke-linecap="butt" stroke-miterlimit="10" stroke-linejoin="miter" fill="none" stroke="#000000" d="M-28.3468-2.83484V2.83484"/>
<use data-text="&#x2212;" xlink:href="#font_2_1" transform="matrix(10.909318,0,0,-10.909428,51.492048,27.536255)"/>
<use data-text="3" xlink:href="#font_1_3" transform="matrix(10.909318,0,0,-10.909428,59.977224,27.536255)"/>
<path transform="matrix(1.00002,0,0,-1.00003,86.80975,15.970909)" stroke-width=".3985" stroke-linecap="butt" stroke-miterlimit="10" stroke-linejoin="miter" fill="none" stroke="#000000" d="M28.3468-2.83484V2.83484"/>
<use data-text="3" xlink:href="#font_1_3" transform="matrix(10.909318,0,0,-10.909428,112.42927,27.99027)"/>
</svg>
