<svg xmlns="http://www.w3.org/2000/svg" xmlns:xlink="http://www.w3.org/1999/xlink" xmlns:inkscape="http://www.inkscape.org/namespaces/inkscape" version="1.1" width="343" height="343" viewBox="0 0 343 343">
<defs>
<path id="font_1_1" d="M.33399964 .30233766C.33999635 .32835389 .36299134 .42037965 .43299867 .42037965 .43798829 .42037965 .46199037 .42037965 .48298646 .40734864 .45498658 .402359 .43499757 .37734986 .43499757 .35334779 .43499757 .33735658 .44599916 .31835938 .47299195 .31835938 .49499513 .31835938 .5269928 .3363495 .5269928 .37635804 .5269928 .42837525 .46798707 .4423828 .43399049 .4423828 .37599183 .4423828 .34098817 .38935853 .32899476 .36634828 .3039856 .43237306 .25 .4423828 .22099304 .4423828 .116989139 .4423828 .05999756 .3133545 .05999756 .28834535 .05999756 .27833558 .069992069 .27833558 .07199097 .27833558 .07998657 .27833558 .08299255 .28033448 .084991458 .28933717 .11898804 .39535523 .18499756 .42037965 .21899414 .42037965 .23799134 .42037965 .272995 .4113617 .272995 .35334779 .272995 .32235719 .2559967 .25532533 .21899414 .11528015 .20298767 .053268434 .16799927 .011245728 .12399292 .011245728 .117996219 .011245728 .09498596 .011245728 .07398987 .024276734 .09899902 .029266358 .12098694 .05027771 .12098694 .07827759 .12098694 .105270389 .09899902 .11328125 .083999637 .11328125 .053985597 .11328125 .0289917 .08728027 .0289917 .055267335 .0289917 .009246826 .07899475-.0107421879 .12298584-.0107421879 .18899536-.0107421879 .22499085 .059280397 .22799683 .0652771 .23999024 .028274537 .27598573-.0107421879 .33599855-.0107421879 .43899537-.0107421879 .49598695 .118270877 .49598695 .14328003 .49598695 .1532898 .4869995 .1532898 .48399354 .1532898 .47499085 .1532898 .47299195 .14929199 .47099305 .14228821 .43798829 .03527832 .36999513 .011245728 .33799745 .011245728 .29899598 .011245728 .2829895 .043273927 .2829895 .07727051 .2829895 .09927368 .2889862 .121276859 .2999878 .16529846L.33399964 .30233766Z"/>
<path id="font_1_2" d="M.48599244 .38136292C.48999024 .39537049 .48999024 .39736939 .48999024 .40437318 .48999024 .42237855 .47599793 .43138124 .46099855 .43138124 .45098878 .43138124 .43499757 .42536927 .42599488 .41036988 .42399598 .405365 .41600038 .37435914 .4119873 .35635377 .40499879 .33035279 .397995 .30334474 .3919983 .27633668L.34700013 .09628296C.34298707 .08126831 .2999878 .011245728 .23399353 .011245728 .18299866 .011245728 .17199707 .055267335 .17199707 .0922699 .17199707 .1382904 .18899536 .20030213 .22299195 .28833009 .23899842 .3293457 .24299622 .3403473 .24299622 .36035157 .24299622 .405365 .21099854 .4423828 .16099549 .4423828 .06599426 .4423828 .0289917 .29733277 .0289917 .28833009 .0289917 .27833558 .038986207 .27833558 .040985109 .27833558 .050994874 .27833558 .051986696 .28033448 .056991579 .29634095 .083999637 .3903656 .12399292 .42037965 .1579895 .42037965 .1659851 .42037965 .18299866 .42037965 .18299866 .3883667 .18299866 .36335755 .17298889 .3373413 .1659851 .31834413 .12599182 .21231079 .10798645 .1552887 .10798645 .10827637 .10798645 .019256592 .17098999-.0107421879 .22999573-.0107421879 .2689972-.0107421879 .30299378 .0062561037 .33099366 .03425598 .31799317-.017745972 .30599977-.06674194 .2659912-.11973572 .23999024-.15385437 .20199585-.18309021 .1559906-.18309021 .14199829-.18309021 .09700012-.18005371 .07998657-.14074707 .09599304-.14074707 .10899353-.14074707 .12298584-.1287384 .1329956-.11973572 .14299011-.10673523 .14299011-.08773804 .14299011-.056747438 .115997318-.052734376 .10598755-.052734376 .08299255-.052734376 .049987794-.068740848 .049987794-.11773682 .049987794-.16796875 .09399414-.20507813 .1559906-.20507813 .25898744-.20507813 .3619995-.11373901 .3899994-.00074768069L.48599244 .38136292Z"/>
<path id="font_2_56" d="M.44898988 .20091248C.44898988 .31991578 .36698915 .41992188 .25898744 .41992188 .21099854 .41992188 .16799927 .4039154 .13198853 .36891175V.5641022C.1519928 .55778506 .18499756 .55078127 .21699524 .55078127 .33999635 .55078127 .4099884 .6418457 .4099884 .65493777 .4099884 .6609802 .40699769 .6660156 .3999939 .6660156 .3999939 .66607668 .39698792 .66607668 .3919983 .66308596 .37199403 .65408328 .32299806 .63378909 .2559967 .63378909 .21598816 .63409426 .16999817 .641098 .12298584 .6621094 .114990238 .6651001 .11099243 .6651001 .11099243 .6651001 .100997928 .66508486 .100997928 .657074 .100997928 .64108279V.3447113C.100997928 .3266449 .100997928 .31861878 .114990238 .31861878 .12199402 .31861878 .12399292 .32164 .12799073 .32765199 .13899231 .34371949 .17599488 .3979187 .25698854 .3979187 .30899049 .3979187 .33399964 .3517456 .34199525 .3336792 .35798646 .2965393 .3600006 .2574005 .3600006 .20721436 .3600006 .17218018 .3600006 .112197879 .33599855 .07032776 .31199647 .031448366 .2749939 .0055389406 .22898865 .0055389406 .1559906 .0055389406 .09899902 .05836487 .08198547 .1171875 .084991458 .11685181 .08799744 .115859989 .09899902 .115859989 .13198853 .115859989 .14898682 .14085388 .14898682 .16485596 .14898682 .18885803 .13198853 .21386719 .09899902 .21386719 .084991458 .21386719 .049987794 .2068634 .049987794 .16085816 .049987794 .07432556 .11898804-.022460938 .23098755-.022460938 .34700013-.022460938 .44898988 .07331848 .44898988 .20019531V.20091248Z"/>
<path id="font_2_82" d="M.4189911 0V.0309906H.3869934C.29699708 .0309906 .2939911 .041992189 .2939911 .07902527V.64012148C.2939911 .6640167 .2939911 .6660156 .2709961 .6660156 .20899964 .60227969 .12098694 .60227969 .08898926 .60227969V.57128909C.10899353 .57128909 .16799927 .57128909 .21998596 .5972748V.07902527C.21998596 .042999269 .21699524 .0309906 .1269989 .0309906H.09498596V0C.12998963 .0029907227 .21699524 .0029907227 .25698854 .0029907227 .29699708 .0029907227 .38398744 .0029907227 .4189911 0Z"/>
<path id="font_2_121" d="M.45999146 .31976319C.45999146 .39982606 .45498658 .47988893 .41999818 .5539398 .37399293 .65000918 .2919922 .6660156 .25 .6660156 .18998719 .6660156 .116989139 .64001467 .07598877 .54693606 .04399109 .47789 .038986207 .39982606 .038986207 .31976319 .038986207 .24472046 .042999269 .15464783 .083999637 .07859802 .1269989-.0024719239 .19999695-.022460938 .24899292-.022460938 .30299378-.022460938 .3789978-.0014648438 .4229889 .09359741 .45498658 .16265869 .45999146 .2407074 .45999146 .31976319M.3769989 .3317871C.3769989 .25672914 .3769989 .18867493 .3659973 .12461853 .35099793 .029556275 .2939911-.00047302247 .24899292-.00047302247 .20999146-.00047302247 .15098572 .024551392 .1329956 .12062073 .12199402 .18066406 .12199402 .2727356 .12199402 .3317871 .12199402 .39582826 .12199402 .46188355 .12998963 .5159149 .14898682 .63500979 .22399903 .64401248 .24899292 .64401248 .28199769 .64401248 .34799195 .6259918 .36698915 .52693179 .3769989 .47088624 .3769989 .39482118 .3769989 .3317871Z"/>
</defs>
<path transform="matrix(1.00002,0,0,-1.00005,30.115624,313.0247)" stroke-width=".19925" stroke-linecap="butt" stroke-miterlimit="10" stroke-linejoin="miter" fill="none" stroke="#7f807f" d="M-28.3468-28.3468H283.4681M-28.3468 0H283.4681M-28.3468 28.3468H283.4681M-28.3468 56.69362H283.4681M-28.3468 85.04042H283.4681M-28.3468 113.38724H283.4681M-28.3468 141.73404H283.4681M-28.3468 170.08086H283.4681M-28.3468 198.42766H283.4681M-28.3468 226.77448H283.4681M-28.3468 255.12128H283.4681M-28.3468 283.45814H283.4681M-28.3468-28.3468V283.4681M0-28.3468V283.4681M28.3468-28.3468V283.4681M56.69362-28.3468V283.4681M85.04042-28.3468V283.4681M113.38724-28.3468V283.4681M141.73404-28.3468V283.4681M170.08086-28.3468V283.4681M198.42766-28.3468V283.4681M226.77448-28.3468V283.4681M255.12128-28.3468V283.4681M283.45814-28.3468V283.4681M283.4681 283.4681"/>
<path transform="matrix(1.00002,0,0,-1.00005,30.115624,313.0247)" stroke-width=".3985" stroke-linecap="butt" stroke-miterlimit="10" stroke-linejoin="miter" fill="none" stroke="#000000" d="M-27.88852 0H311.35664"/>
<path transform="matrix(-1.00002,-0,0,1.00005,2.2265454,313.0247)" stroke-width=".31879" stroke-linecap="round" stroke-linejoin="round" fill="none" stroke="#000000" d="M-1.19551 1.59401C-1.09587 .99626 0 .09961 .29886 0 0-.09961-1.09587-.99626-1.19551-1.59401"/>
<path transform="matrix(1.00002,0,0,-1.00005,341.4785,313.0247)" stroke-width=".31879" stroke-linecap="round" stroke-linejoin="round" fill="none" stroke="#000000" d="M-1.19551 1.59401C-1.09587 .99626 0 .09961 .29886 0 0-.09961-1.09587-.99626-1.19551-1.59401"/>
<use data-text="x" xlink:href="#font_1_1" transform="matrix(10.909318,0,0,-10.909644,324.6455,304.03425)"/>
<path transform="matrix(1.00002,0,0,-1.00005,30.115624,313.0247)" stroke-width=".3985" stroke-linecap="butt" stroke-miterlimit="10" stroke-linejoin="miter" fill="none" stroke="#000000" d="M0-27.88852V311.35664"/>
<path transform="matrix(0,1.00005,1.00002,0,30.115624,340.9146)" stroke-width=".31879" stroke-linecap="round" stroke-linejoin="round" fill="none" stroke="#000000" d="M-1.19551 1.59401C-1.09587 .99626 0 .09961 .29886 0 0-.09961-1.09587-.99626-1.19551-1.59401"/>
<path transform="matrix(0,-1.00005,-1.00002,-0,30.115624,1.6524963)" stroke-width=".31879" stroke-linecap="round" stroke-linejoin="round" fill="none" stroke="#000000" d="M-1.19551 1.59401C-1.09587 .99626 0 .09961 .29886 0 0-.09961-1.09587-.99626-1.19551-1.59401"/>
<use data-text="y" xlink:href="#font_1_2" transform="matrix(10.909318,0,0,-10.909644,38.584794,16.655884)"/>
<path transform="matrix(1.00002,0,0,-1.00005,30.115624,313.0247)" stroke-width=".3985" stroke-linecap="butt" stroke-miterlimit="10" stroke-linejoin="miter" fill="none" stroke="#000000" d="M141.73404 2.83484V-2.83484"/>
<path transform="matrix(1.00002,0,0,-1.00005,30.115624,313.0247)" stroke-width=".3985" stroke-linecap="butt" stroke-miterlimit="10" stroke-linejoin="miter" fill="none" stroke="#000000" d="M2.83484 141.73404H-2.83484"/>
<use data-text="5" xlink:href="#font_2_56" transform="matrix(10.909318,0,0,-10.909644,169.1254,327.87644)"/>
<use data-text="5" xlink:href="#font_2_56" transform="matrix(10.909318,0,0,-10.909644,16.049344,174.7968)"/>
<path transform="matrix(1.00002,0,0,-1.00005,30.115624,313.0247)" stroke-width=".3985" stroke-linecap="butt" stroke-miterlimit="10" stroke-linejoin="miter" fill="none" stroke="#000000" d="M283.4681 2.83484V-2.83484"/>
<path transform="matrix(1.00002,0,0,-1.00005,30.115624,313.0247)" stroke-width=".3985" stroke-linecap="butt" stroke-miterlimit="10" stroke-linejoin="miter" fill="none" stroke="#000000" d="M2.83484 283.4681H-2.83484"/>
<use data-text="1" xlink:href="#font_2_82" transform="matrix(10.909318,0,0,-10.909644,308.1342,327.87644)"/>
<use data-text="0" xlink:href="#font_2_121" transform="matrix(10.909318,0,0,-10.909644,313.58885,327.87644)"/>
<use data-text="1" xlink:href="#font_2_82" transform="matrix(10.909318,0,0,-10.909644,13.3222889,33.055727)"/>
<use data-text="0" xlink:href="#font_2_121" transform="matrix(10.909318,0,0,-10.909644,18.776947,33.055727)"/>
<path transform="matrix(1.00002,0,0,-1.00005,30.115624,313.0247)" stroke-width="1.59404" stroke-linecap="butt" stroke-miterlimit="10" stroke-linejoin="miter" fill="none" stroke="#0000ff" d="M28.3468 113.38724 85.04042 141.73404"/>
<path transform="matrix(1.00002,0,0,-1.00005,30.115624,313.0247)" stroke-width="1.59404" stroke-linecap="butt" stroke-miterlimit="10" stroke-linejoin="miter" fill="none" stroke="#0000ff" d="M85.04042 283.4681 113.38724 226.77448"/>
<path transform="matrix(1.00002,0,0,-1.00005,30.115624,313.0247)" stroke-width="1.59404" stroke-linecap="butt" stroke-miterlimit="10" stroke-linejoin="miter" fill="none" stroke="#0000ff" d="M170.08086 28.3468 283.4681 255.12128"/>
<path transform="matrix(1.00002,0,0,-1.00005,30.115624,313.0247)" d="M31.33563 113.38724C31.33563 115.03793 29.99751 116.37607 28.3468 116.37607 26.69609 116.37607 25.35797 115.03793 25.35797 113.38724 25.35797 111.73653 26.69609 110.3984 28.3468 110.3984 29.99751 110.3984 31.33563 111.73653 31.33563 113.38724ZM28.3468 113.38724" fill="#0000ff"/>
<path transform="matrix(1.00002,0,0,-1.00005,30.115624,313.0247)" stroke-width="1.59404" stroke-linecap="butt" stroke-miterlimit="10" stroke-linejoin="miter" fill="none" stroke="#0000ff" d="M31.33563 113.38724C31.33563 115.03793 29.99751 116.37607 28.3468 116.37607 26.69609 116.37607 25.35797 115.03793 25.35797 113.38724 25.35797 111.73653 26.69609 110.3984 28.3468 110.3984 29.99751 110.3984 31.33563 111.73653 31.33563 113.38724ZM28.3468 113.38724"/>
<path transform="matrix(1.00002,0,0,-1.00005,30.115624,313.0247)" d="M88.02925 141.73404C88.02925 143.38475 86.69113 144.72287 85.04042 144.72287 83.38971 144.72287 82.05159 143.38475 82.05159 141.73404 82.05159 140.08333 83.38971 138.74521 85.04042 138.74521 86.69113 138.74521 88.02925 140.08333 88.02925 141.73404ZM85.04042 141.73404" fill="#ffffff"/>
<path transform="matrix(1.00002,0,0,-1.00005,30.115624,313.0247)" stroke-width="1.59404" stroke-linecap="butt" stroke-miterlimit="10" stroke-linejoin="miter" fill="none" stroke="#0000ff" d="M88.02925 141.73404C88.02925 143.38475 86.69113 144.72287 85.04042 144.72287 83.38971 144.72287 82.05159 143.38475 82.05159 141.73404 82.05159 140.08333 83.38971 138.74521 85.04042 138.74521 86.69113 138.74521 88.02925 140.08333 88.02925 141.73404ZM85.04042 141.73404"/>
<path transform="matrix(1.00002,0,0,-1.00005,30.115624,313.0247)" d="M88.02925 283.4681C88.02925 285.1188 86.69113 286.4569 85.04042 286.4569 83.38971 286.4569 82.05159 285.1188 82.05159 283.4681 82.05159 281.81739 83.38971 280.47926 85.04042 280.47926 86.69113 280.47926 88.02925 281.81739 88.02925 283.4681ZM85.04042 283.4681" fill="#ffffff"/>
<path transform="matrix(1.00002,0,0,-1.00005,30.115624,313.0247)" stroke-width="1.59404" stroke-linecap="butt" stroke-miterlimit="10" stroke-linejoin="miter" fill="none" stroke="#0000ff" d="M88.02925 283.4681C88.02925 285.1188 86.69113 286.4569 85.04042 286.4569 83.38971 286.4569 82.05159 285.1188 82.05159 283.4681 82.05159 281.81739 83.38971 280.47926 85.04042 280.47926 86.69113 280.47926 88.02925 281.81739 88.02925 283.4681ZM85.04042 283.4681"/>
<path transform="matrix(1.00002,0,0,-1.00005,30.115624,313.0247)" d="M116.37607 226.77448C116.37607 228.42517 115.03793 229.7633 113.38724 229.7633 111.73653 229.7633 110.3984 228.42517 110.3984 226.77448 110.3984 225.12377 111.73653 223.78565 113.38724 223.78565 115.03793 223.78565 116.37607 225.12377 116.37607 226.77448ZM113.38724 226.77448" fill="#ffffff"/>
<path transform="matrix(1.00002,0,0,-1.00005,30.115624,313.0247)" stroke-width="1.59404" stroke-linecap="butt" stroke-miterlimit="10" stroke-linejoin="miter" fill="none" stroke="#0000ff" d="M116.37607 226.77448C116.37607 228.42517 115.03793 229.7633 113.38724 229.7633 111.73653 229.7633 110.3984 228.42517 110.3984 226.77448 110.3984 225.12377 111.73653 223.78565 113.38724 223.78565 115.03793 223.78565 116.37607 225.12377 116.37607 226.77448ZM113.38724 226.77448"/>
<path transform="matrix(1.00002,0,0,-1.00005,30.115624,313.0247)" d="M173.06969 28.3468C173.06969 29.99751 171.73155 31.33563 170.08086 31.33563 168.43015 31.33563 167.09203 29.99751 167.09203 28.3468 167.09203 26.69609 168.43015 25.35797 170.08086 25.35797 171.73155 25.35797 173.06969 26.69609 173.06969 28.3468ZM170.08086 28.3468" fill="#0000ff"/>
<path transform="matrix(1.00002,0,0,-1.00005,30.115624,313.0247)" stroke-width="1.59404" stroke-linecap="butt" stroke-miterlimit="10" stroke-linejoin="miter" fill="none" stroke="#0000ff" d="M173.06969 28.3468C173.06969 29.99751 171.73155 31.33563 170.08086 31.33563 168.43015 31.33563 167.09203 29.99751 167.09203 28.3468 167.09203 26.69609 168.43015 25.35797 170.08086 25.35797 171.73155 25.35797 173.06969 26.69609 173.06969 28.3468ZM170.08086 28.3468"/>
<path transform="matrix(1.00002,0,0,-1.00005,30.115624,313.0247)" d="M286.4569 255.12128C286.4569 256.772 285.1188 258.1101 283.4681 258.1101 281.81739 258.1101 280.47926 256.772 280.47926 255.12128 280.47926 253.47058 281.81739 252.13245 283.4681 252.13245 285.1188 252.13245 286.4569 253.47058 286.4569 255.12128ZM283.4681 255.12128" fill="#0000ff"/>
<path transform="matrix(1.00002,0,0,-1.00005,30.115624,313.0247)" stroke-width="1.59404" stroke-linecap="butt" stroke-miterlimit="10" stroke-linejoin="miter" fill="none" stroke="#0000ff" d="M286.4569 255.12128C286.4569 256.772 285.1188 258.1101 283.4681 258.1101 281.81739 258.1101 280.47926 256.772 280.47926 255.12128 280.47926 253.47058 281.81739 252.13245 283.4681 252.13245 285.1188 252.13245 286.4569 253.47058 286.4569 255.12128ZM283.4681 255.12128"/>
<path transform="matrix(1.00002,0,0,-1.00005,30.115624,313.0247)" d="M229.7633 141.73404C229.7633 143.38475 228.42517 144.72287 226.77448 144.72287 225.12377 144.72287 223.78565 143.38475 223.78565 141.73404 223.78565 140.08333 225.12377 138.74521 226.77448 138.74521 228.42517 138.74521 229.7633 140.08333 229.7633 141.73404ZM226.77448 141.73404" fill="#ffffff"/>
<path transform="matrix(1.00002,0,0,-1.00005,30.115624,313.0247)" stroke-width="1.59404" stroke-linecap="butt" stroke-miterlimit="10" stroke-linejoin="miter" fill="none" stroke="#0000ff" d="M229.7633 141.73404C229.7633 143.38475 228.42517 144.72287 226.77448 144.72287 225.12377 144.72287 223.78565 143.38475 223.78565 141.73404 223.78565 140.08333 225.12377 138.74521 226.77448 138.74521 228.42517 138.74521 229.7633 140.08333 229.7633 141.73404ZM226.77448 141.73404"/>
<path transform="matrix(1.00002,0,0,-1.00005,30.115624,313.0247)" d="M229.7633 0C229.7633 1.6507 228.42517 2.98883 226.77448 2.98883 225.12377 2.98883 223.78565 1.6507 223.78565 0 223.78565-1.6507 225.12377-2.98883 226.77448-2.98883 228.42517-2.98883 229.7633-1.6507 229.7633 0ZM226.77448 0" fill="#0000ff"/>
<path transform="matrix(1.00002,0,0,-1.00005,30.115624,313.0247)" stroke-width="1.59404" stroke-linecap="butt" stroke-miterlimit="10" stroke-linejoin="miter" fill="none" stroke="#0000ff" d="M229.7633 0C229.7633 1.6507 228.42517 2.98883 226.77448 2.98883 225.12377 2.98883 223.78565 1.6507 223.78565 0 223.78565-1.6507 225.12377-2.98883 226.77448-2.98883 228.42517-2.98883 229.7633-1.6507 229.7633 0ZM226.77448 0"/>
</svg>
